<mxfile host="app.diagrams.net" agent="Mozilla/5.0 (Windows NT 10.0; Win64; x64) AppleWebKit/537.36 (KHTML, like Gecko) Chrome/138.0.0.0 Safari/537.36" version="27.0.6">
  <diagram name="Page-1" id="sb7j0wL8Mnjlqq6XINSS">
    <mxGraphModel grid="1" page="1" gridSize="10" guides="1" tooltips="1" connect="1" arrows="1" fold="1" pageScale="1" pageWidth="4681" pageHeight="3300" math="0" shadow="0">
      <root>
        <mxCell id="0" />
        <mxCell id="1" parent="0" />
        <mxCell id="aUg-6YMT8PlGPVR0eo5o-1" value="Roles" style="rounded=0;whiteSpace=wrap;html=1;" vertex="1" parent="1">
          <mxGeometry x="3614.5" y="1575" width="140" height="50" as="geometry" />
        </mxCell>
        <mxCell id="aUg-6YMT8PlGPVR0eo5o-2" value="&lt;u&gt;RoleID&lt;/u&gt;" style="ellipse;whiteSpace=wrap;html=1;" vertex="1" parent="1">
          <mxGeometry x="3544.5" y="1475" width="110" height="50" as="geometry" />
        </mxCell>
        <mxCell id="aUg-6YMT8PlGPVR0eo5o-3" value="RoleName" style="ellipse;whiteSpace=wrap;html=1;" vertex="1" parent="1">
          <mxGeometry x="3714.5" y="1475" width="100" height="50" as="geometry" />
        </mxCell>
        <mxCell id="aUg-6YMT8PlGPVR0eo5o-4" value="Description" style="ellipse;whiteSpace=wrap;html=1;" vertex="1" parent="1">
          <mxGeometry x="3434.5" y="1555" width="110" height="40" as="geometry" />
        </mxCell>
        <mxCell id="aUg-6YMT8PlGPVR0eo5o-5" value="" style="endArrow=none;html=1;rounded=0;entryX=0.675;entryY=0.965;entryDx=0;entryDy=0;entryPerimeter=0;exitX=0.114;exitY=-0.043;exitDx=0;exitDy=0;exitPerimeter=0;" edge="1" parent="1" source="aUg-6YMT8PlGPVR0eo5o-1" target="aUg-6YMT8PlGPVR0eo5o-2">
          <mxGeometry width="50" height="50" relative="1" as="geometry">
            <mxPoint x="3724.5" y="1585" as="sourcePoint" />
            <mxPoint x="3774.5" y="1535" as="targetPoint" />
          </mxGeometry>
        </mxCell>
        <mxCell id="aUg-6YMT8PlGPVR0eo5o-6" value="" style="endArrow=none;html=1;rounded=0;entryX=0;entryY=0.5;entryDx=0;entryDy=0;exitX=0.762;exitY=0.867;exitDx=0;exitDy=0;exitPerimeter=0;" edge="1" parent="1" source="aUg-6YMT8PlGPVR0eo5o-4" target="aUg-6YMT8PlGPVR0eo5o-1">
          <mxGeometry width="50" height="50" relative="1" as="geometry">
            <mxPoint x="3524.5" y="1625" as="sourcePoint" />
            <mxPoint x="3574.5" y="1575" as="targetPoint" />
          </mxGeometry>
        </mxCell>
        <mxCell id="aUg-6YMT8PlGPVR0eo5o-7" value="" style="endArrow=none;html=1;rounded=0;entryX=0.325;entryY=1.03;entryDx=0;entryDy=0;entryPerimeter=0;exitX=0.677;exitY=-0.034;exitDx=0;exitDy=0;exitPerimeter=0;" edge="1" parent="1" source="aUg-6YMT8PlGPVR0eo5o-1" target="aUg-6YMT8PlGPVR0eo5o-3">
          <mxGeometry width="50" height="50" relative="1" as="geometry">
            <mxPoint x="3704.5" y="1585" as="sourcePoint" />
            <mxPoint x="3754.5" y="1535" as="targetPoint" />
          </mxGeometry>
        </mxCell>
        <mxCell id="aUg-6YMT8PlGPVR0eo5o-8" value="Permissions" style="rounded=0;whiteSpace=wrap;html=1;" vertex="1" parent="1">
          <mxGeometry x="2984.5" y="1765" width="110" height="40" as="geometry" />
        </mxCell>
        <mxCell id="aUg-6YMT8PlGPVR0eo5o-9" value="PermissionKey" style="ellipse;whiteSpace=wrap;html=1;" vertex="1" parent="1">
          <mxGeometry x="3024.5" y="1690" width="100" height="30" as="geometry" />
        </mxCell>
        <mxCell id="aUg-6YMT8PlGPVR0eo5o-10" value="&lt;u&gt;PermissionID&lt;/u&gt;" style="ellipse;whiteSpace=wrap;html=1;" vertex="1" parent="1">
          <mxGeometry x="2914.5" y="1685" width="100" height="40" as="geometry" />
        </mxCell>
        <mxCell id="aUg-6YMT8PlGPVR0eo5o-11" value="Description" style="ellipse;whiteSpace=wrap;html=1;" vertex="1" parent="1">
          <mxGeometry x="2834.5" y="1765" width="120" height="40" as="geometry" />
        </mxCell>
        <mxCell id="aUg-6YMT8PlGPVR0eo5o-12" value="" style="endArrow=none;html=1;rounded=0;entryX=0.097;entryY=0.747;entryDx=0;entryDy=0;entryPerimeter=0;exitX=0.589;exitY=0.067;exitDx=0;exitDy=0;exitPerimeter=0;" edge="1" parent="1" source="aUg-6YMT8PlGPVR0eo5o-8" target="aUg-6YMT8PlGPVR0eo5o-9">
          <mxGeometry width="50" height="50" relative="1" as="geometry">
            <mxPoint x="3184.5" y="1785" as="sourcePoint" />
            <mxPoint x="3234.5" y="1735" as="targetPoint" />
          </mxGeometry>
        </mxCell>
        <mxCell id="aUg-6YMT8PlGPVR0eo5o-13" value="" style="endArrow=none;html=1;rounded=0;exitX=0.179;exitY=0.017;exitDx=0;exitDy=0;exitPerimeter=0;" edge="1" parent="1" source="aUg-6YMT8PlGPVR0eo5o-8" target="aUg-6YMT8PlGPVR0eo5o-10">
          <mxGeometry width="50" height="50" relative="1" as="geometry">
            <mxPoint x="3114.5" y="1785" as="sourcePoint" />
            <mxPoint x="3164.5" y="1735" as="targetPoint" />
          </mxGeometry>
        </mxCell>
        <mxCell id="aUg-6YMT8PlGPVR0eo5o-14" value="" style="endArrow=none;html=1;rounded=0;entryX=0;entryY=0.5;entryDx=0;entryDy=0;" edge="1" parent="1" source="aUg-6YMT8PlGPVR0eo5o-11" target="aUg-6YMT8PlGPVR0eo5o-8">
          <mxGeometry width="50" height="50" relative="1" as="geometry">
            <mxPoint x="3054.5" y="1855" as="sourcePoint" />
            <mxPoint x="3104.5" y="1805" as="targetPoint" />
          </mxGeometry>
        </mxCell>
        <mxCell id="aUg-6YMT8PlGPVR0eo5o-15" value="Users" style="rounded=0;whiteSpace=wrap;html=1;" vertex="1" parent="1">
          <mxGeometry x="4249.5" y="2015" width="120" height="60" as="geometry" />
        </mxCell>
        <mxCell id="aUg-6YMT8PlGPVR0eo5o-16" value="&lt;u&gt;UserID&lt;/u&gt;" style="ellipse;whiteSpace=wrap;html=1;" vertex="1" parent="1">
          <mxGeometry x="4144.5" y="1815" width="120" height="40" as="geometry" />
        </mxCell>
        <mxCell id="aUg-6YMT8PlGPVR0eo5o-17" value="Email" style="ellipse;whiteSpace=wrap;html=1;" vertex="1" parent="1">
          <mxGeometry x="4404.5" y="1785" width="90" height="40" as="geometry" />
        </mxCell>
        <mxCell id="aUg-6YMT8PlGPVR0eo5o-18" value="" style="endArrow=none;html=1;rounded=0;exitX=0.15;exitY=0.014;exitDx=0;exitDy=0;exitPerimeter=0;" edge="1" parent="1" source="aUg-6YMT8PlGPVR0eo5o-15" target="aUg-6YMT8PlGPVR0eo5o-16">
          <mxGeometry width="50" height="50" relative="1" as="geometry">
            <mxPoint x="4274.5" y="2005" as="sourcePoint" />
            <mxPoint x="4324.5" y="1955" as="targetPoint" />
          </mxGeometry>
        </mxCell>
        <mxCell id="aUg-6YMT8PlGPVR0eo5o-19" value="" style="endArrow=none;html=1;rounded=0;entryX=0.5;entryY=1;entryDx=0;entryDy=0;exitX=0.5;exitY=0;exitDx=0;exitDy=0;" edge="1" parent="1" source="aUg-6YMT8PlGPVR0eo5o-15" target="aUg-6YMT8PlGPVR0eo5o-17">
          <mxGeometry width="50" height="50" relative="1" as="geometry">
            <mxPoint x="4294.5" y="2015" as="sourcePoint" />
            <mxPoint x="4344.5" y="1965" as="targetPoint" />
          </mxGeometry>
        </mxCell>
        <mxCell id="aUg-6YMT8PlGPVR0eo5o-20" value="PasswordHash" style="ellipse;whiteSpace=wrap;html=1;" vertex="1" parent="1">
          <mxGeometry x="4369.5" y="1915" width="109" height="50" as="geometry" />
        </mxCell>
        <mxCell id="aUg-6YMT8PlGPVR0eo5o-21" value="" style="endArrow=none;html=1;rounded=0;entryX=0.233;entryY=0.894;entryDx=0;entryDy=0;entryPerimeter=0;exitX=0.75;exitY=0;exitDx=0;exitDy=0;" edge="1" parent="1" source="aUg-6YMT8PlGPVR0eo5o-15" target="aUg-6YMT8PlGPVR0eo5o-20">
          <mxGeometry width="50" height="50" relative="1" as="geometry">
            <mxPoint x="4374.5" y="2035" as="sourcePoint" />
            <mxPoint x="4424.5" y="1985" as="targetPoint" />
          </mxGeometry>
        </mxCell>
        <mxCell id="aUg-6YMT8PlGPVR0eo5o-22" value="FirstName" style="ellipse;whiteSpace=wrap;html=1;" vertex="1" parent="1">
          <mxGeometry x="4074.5" y="1935" width="100" height="40" as="geometry" />
        </mxCell>
        <mxCell id="aUg-6YMT8PlGPVR0eo5o-23" value="" style="endArrow=none;html=1;rounded=0;entryX=0.026;entryY=0.449;entryDx=0;entryDy=0;entryPerimeter=0;exitX=0.994;exitY=0.657;exitDx=0;exitDy=0;exitPerimeter=0;" edge="1" parent="1" source="aUg-6YMT8PlGPVR0eo5o-22" target="aUg-6YMT8PlGPVR0eo5o-15">
          <mxGeometry width="50" height="50" relative="1" as="geometry">
            <mxPoint x="4154.5" y="2055" as="sourcePoint" />
            <mxPoint x="4204.5" y="2005" as="targetPoint" />
          </mxGeometry>
        </mxCell>
        <mxCell id="aUg-6YMT8PlGPVR0eo5o-24" value="LastName" style="ellipse;whiteSpace=wrap;html=1;" vertex="1" parent="1">
          <mxGeometry x="4004.5" y="1975" width="120" height="40" as="geometry" />
        </mxCell>
        <mxCell id="aUg-6YMT8PlGPVR0eo5o-25" value="" style="endArrow=none;html=1;rounded=0;entryX=0.026;entryY=0.662;entryDx=0;entryDy=0;entryPerimeter=0;exitX=0.931;exitY=0.319;exitDx=0;exitDy=0;exitPerimeter=0;" edge="1" parent="1" source="aUg-6YMT8PlGPVR0eo5o-24" target="aUg-6YMT8PlGPVR0eo5o-15">
          <mxGeometry width="50" height="50" relative="1" as="geometry">
            <mxPoint x="4164.5" y="2095" as="sourcePoint" />
            <mxPoint x="4214.5" y="2045" as="targetPoint" />
          </mxGeometry>
        </mxCell>
        <mxCell id="aUg-6YMT8PlGPVR0eo5o-26" value="Phone" style="ellipse;whiteSpace=wrap;html=1;" vertex="1" parent="1">
          <mxGeometry x="4478.5" y="1905" width="110" height="40" as="geometry" />
        </mxCell>
        <mxCell id="aUg-6YMT8PlGPVR0eo5o-27" value="BirthDate" style="ellipse;whiteSpace=wrap;html=1;" vertex="1" parent="1">
          <mxGeometry x="4420.5" y="2165" width="120" height="40" as="geometry" />
        </mxCell>
        <mxCell id="aUg-6YMT8PlGPVR0eo5o-28" value="Gender" style="ellipse;whiteSpace=wrap;html=1;" vertex="1" parent="1">
          <mxGeometry x="4324.5" y="2225" width="120" height="40" as="geometry" />
        </mxCell>
        <mxCell id="aUg-6YMT8PlGPVR0eo5o-29" value="RoleID" style="ellipse;whiteSpace=wrap;html=1;" vertex="1" parent="1">
          <mxGeometry x="4014.5" y="2045" width="115" height="40" as="geometry" />
        </mxCell>
        <mxCell id="aUg-6YMT8PlGPVR0eo5o-30" value="CreatedAt" style="ellipse;whiteSpace=wrap;html=1;" vertex="1" parent="1">
          <mxGeometry x="4024.5" y="2115" width="120" height="40" as="geometry" />
        </mxCell>
        <mxCell id="aUg-6YMT8PlGPVR0eo5o-31" value="IsActive" style="ellipse;whiteSpace=wrap;html=1;" vertex="1" parent="1">
          <mxGeometry x="4154.5" y="2165" width="120" height="40" as="geometry" />
        </mxCell>
        <mxCell id="aUg-6YMT8PlGPVR0eo5o-32" value="" style="endArrow=none;html=1;rounded=0;entryX=0.121;entryY=0.994;entryDx=0;entryDy=0;entryPerimeter=0;exitX=0.833;exitY=0.162;exitDx=0;exitDy=0;exitPerimeter=0;" edge="1" parent="1" source="aUg-6YMT8PlGPVR0eo5o-29" target="aUg-6YMT8PlGPVR0eo5o-15">
          <mxGeometry width="50" height="50" relative="1" as="geometry">
            <mxPoint x="4224.5" y="2155" as="sourcePoint" />
            <mxPoint x="4274.5" y="2105" as="targetPoint" />
          </mxGeometry>
        </mxCell>
        <mxCell id="aUg-6YMT8PlGPVR0eo5o-33" value="" style="endArrow=none;html=1;rounded=0;entryX=0.993;entryY=0.427;entryDx=0;entryDy=0;entryPerimeter=0;" edge="1" parent="1" source="aUg-6YMT8PlGPVR0eo5o-26" target="aUg-6YMT8PlGPVR0eo5o-15">
          <mxGeometry width="50" height="50" relative="1" as="geometry">
            <mxPoint x="4334.5" y="2135" as="sourcePoint" />
            <mxPoint x="4384.5" y="2085" as="targetPoint" />
          </mxGeometry>
        </mxCell>
        <mxCell id="aUg-6YMT8PlGPVR0eo5o-34" value="" style="endArrow=none;html=1;rounded=0;entryX=0.033;entryY=0.612;entryDx=0;entryDy=0;entryPerimeter=0;exitX=0.984;exitY=0.805;exitDx=0;exitDy=0;exitPerimeter=0;" edge="1" parent="1" source="aUg-6YMT8PlGPVR0eo5o-15" target="aUg-6YMT8PlGPVR0eo5o-27">
          <mxGeometry width="50" height="50" relative="1" as="geometry">
            <mxPoint x="4334.5" y="2125" as="sourcePoint" />
            <mxPoint x="4384.5" y="2075" as="targetPoint" />
          </mxGeometry>
        </mxCell>
        <mxCell id="aUg-6YMT8PlGPVR0eo5o-35" value="" style="endArrow=none;html=1;rounded=0;entryX=0.844;entryY=1.017;entryDx=0;entryDy=0;entryPerimeter=0;" edge="1" parent="1" source="aUg-6YMT8PlGPVR0eo5o-28" target="aUg-6YMT8PlGPVR0eo5o-15">
          <mxGeometry width="50" height="50" relative="1" as="geometry">
            <mxPoint x="4364.5" y="2135" as="sourcePoint" />
            <mxPoint x="4414.5" y="2085" as="targetPoint" />
          </mxGeometry>
        </mxCell>
        <mxCell id="aUg-6YMT8PlGPVR0eo5o-36" value="" style="endArrow=none;html=1;rounded=0;entryX=0.239;entryY=0.96;entryDx=0;entryDy=0;entryPerimeter=0;exitX=0.75;exitY=0;exitDx=0;exitDy=0;exitPerimeter=0;" edge="1" parent="1" source="aUg-6YMT8PlGPVR0eo5o-30" target="aUg-6YMT8PlGPVR0eo5o-15">
          <mxGeometry width="50" height="50" relative="1" as="geometry">
            <mxPoint x="4224.5" y="2155" as="sourcePoint" />
            <mxPoint x="4274.5" y="2105" as="targetPoint" />
          </mxGeometry>
        </mxCell>
        <mxCell id="aUg-6YMT8PlGPVR0eo5o-37" value="" style="endArrow=none;html=1;rounded=0;entryX=0.62;entryY=0.971;entryDx=0;entryDy=0;entryPerimeter=0;exitX=0.521;exitY=0.021;exitDx=0;exitDy=0;exitPerimeter=0;" edge="1" parent="1" source="aUg-6YMT8PlGPVR0eo5o-31" target="aUg-6YMT8PlGPVR0eo5o-15">
          <mxGeometry width="50" height="50" relative="1" as="geometry">
            <mxPoint x="4334.5" y="2165" as="sourcePoint" />
            <mxPoint x="4384.5" y="2115" as="targetPoint" />
          </mxGeometry>
        </mxCell>
        <mxCell id="aUg-6YMT8PlGPVR0eo5o-38" value="Centers" style="rounded=0;whiteSpace=wrap;html=1;" vertex="1" parent="1">
          <mxGeometry x="2582" y="3542.5" width="120" height="60" as="geometry" />
        </mxCell>
        <mxCell id="aUg-6YMT8PlGPVR0eo5o-39" value="&lt;u&gt;CenterID&lt;/u&gt;" style="ellipse;whiteSpace=wrap;html=1;" vertex="1" parent="1">
          <mxGeometry x="2324.5" y="3592.5" width="130" height="50" as="geometry" />
        </mxCell>
        <mxCell id="aUg-6YMT8PlGPVR0eo5o-40" value="Name" style="ellipse;whiteSpace=wrap;html=1;" vertex="1" parent="1">
          <mxGeometry x="2314.5" y="3502.5" width="130" height="50" as="geometry" />
        </mxCell>
        <mxCell id="aUg-6YMT8PlGPVR0eo5o-41" value="Address" style="ellipse;whiteSpace=wrap;html=1;" vertex="1" parent="1">
          <mxGeometry x="2424.5" y="3435" width="110" height="40" as="geometry" />
        </mxCell>
        <mxCell id="aUg-6YMT8PlGPVR0eo5o-42" value="City" style="ellipse;whiteSpace=wrap;html=1;" vertex="1" parent="1">
          <mxGeometry x="2702" y="3425" width="90" height="40" as="geometry" />
        </mxCell>
        <mxCell id="aUg-6YMT8PlGPVR0eo5o-43" value="Phone" style="ellipse;whiteSpace=wrap;html=1;" vertex="1" parent="1">
          <mxGeometry x="2384.5" y="3692.5" width="100" height="30" as="geometry" />
        </mxCell>
        <mxCell id="aUg-6YMT8PlGPVR0eo5o-44" value="Latitude" style="ellipse;whiteSpace=wrap;html=1;" vertex="1" parent="1">
          <mxGeometry x="2494.5" y="3697.5" width="80" height="50" as="geometry" />
        </mxCell>
        <mxCell id="aUg-6YMT8PlGPVR0eo5o-45" value="Longitude" style="ellipse;whiteSpace=wrap;html=1;" vertex="1" parent="1">
          <mxGeometry x="2649.5" y="3692.5" width="90" height="45" as="geometry" />
        </mxCell>
        <mxCell id="aUg-6YMT8PlGPVR0eo5o-46" value="IsActive" style="ellipse;whiteSpace=wrap;html=1;" vertex="1" parent="1">
          <mxGeometry x="2764.5" y="3647.5" width="90" height="40" as="geometry" />
        </mxCell>
        <mxCell id="aUg-6YMT8PlGPVR0eo5o-47" value="" style="endArrow=none;html=1;rounded=0;exitX=0.365;exitY=0.024;exitDx=0;exitDy=0;exitPerimeter=0;" edge="1" parent="1" source="aUg-6YMT8PlGPVR0eo5o-38" target="aUg-6YMT8PlGPVR0eo5o-41">
          <mxGeometry width="50" height="50" relative="1" as="geometry">
            <mxPoint x="2582" y="3562.5" as="sourcePoint" />
            <mxPoint x="2632" y="3512.5" as="targetPoint" />
          </mxGeometry>
        </mxCell>
        <mxCell id="aUg-6YMT8PlGPVR0eo5o-48" value="" style="endArrow=none;html=1;rounded=0;entryX=-0.001;entryY=0.182;entryDx=0;entryDy=0;entryPerimeter=0;" edge="1" parent="1" source="aUg-6YMT8PlGPVR0eo5o-40" target="aUg-6YMT8PlGPVR0eo5o-38">
          <mxGeometry width="50" height="50" relative="1" as="geometry">
            <mxPoint x="2522" y="3572.5" as="sourcePoint" />
            <mxPoint x="2572" y="3522.5" as="targetPoint" />
          </mxGeometry>
        </mxCell>
        <mxCell id="aUg-6YMT8PlGPVR0eo5o-49" value="" style="endArrow=none;html=1;rounded=0;entryX=0.019;entryY=0.636;entryDx=0;entryDy=0;entryPerimeter=0;" edge="1" parent="1" source="aUg-6YMT8PlGPVR0eo5o-39" target="aUg-6YMT8PlGPVR0eo5o-38">
          <mxGeometry width="50" height="50" relative="1" as="geometry">
            <mxPoint x="2542" y="3602.5" as="sourcePoint" />
            <mxPoint x="2592" y="3552.5" as="targetPoint" />
          </mxGeometry>
        </mxCell>
        <mxCell id="aUg-6YMT8PlGPVR0eo5o-50" value="" style="endArrow=none;html=1;rounded=0;entryX=0.078;entryY=0.982;entryDx=0;entryDy=0;entryPerimeter=0;" edge="1" parent="1" source="aUg-6YMT8PlGPVR0eo5o-43" target="aUg-6YMT8PlGPVR0eo5o-38">
          <mxGeometry width="50" height="50" relative="1" as="geometry">
            <mxPoint x="2532" y="3652.5" as="sourcePoint" />
            <mxPoint x="2582" y="3602.5" as="targetPoint" />
          </mxGeometry>
        </mxCell>
        <mxCell id="aUg-6YMT8PlGPVR0eo5o-51" value="" style="endArrow=none;html=1;rounded=0;exitX=0.611;exitY=0.057;exitDx=0;exitDy=0;exitPerimeter=0;" edge="1" parent="1" source="aUg-6YMT8PlGPVR0eo5o-44" target="aUg-6YMT8PlGPVR0eo5o-38">
          <mxGeometry width="50" height="50" relative="1" as="geometry">
            <mxPoint x="2582" y="3652.5" as="sourcePoint" />
            <mxPoint x="2632" y="3602.5" as="targetPoint" />
          </mxGeometry>
        </mxCell>
        <mxCell id="aUg-6YMT8PlGPVR0eo5o-52" value="" style="endArrow=none;html=1;rounded=0;entryX=0.696;entryY=0.952;entryDx=0;entryDy=0;entryPerimeter=0;exitX=0.033;exitY=0.252;exitDx=0;exitDy=0;exitPerimeter=0;" edge="1" parent="1" source="aUg-6YMT8PlGPVR0eo5o-45" target="aUg-6YMT8PlGPVR0eo5o-38">
          <mxGeometry width="50" height="50" relative="1" as="geometry">
            <mxPoint x="2672" y="3662.5" as="sourcePoint" />
            <mxPoint x="2722" y="3612.5" as="targetPoint" />
          </mxGeometry>
        </mxCell>
        <mxCell id="aUg-6YMT8PlGPVR0eo5o-53" value="" style="endArrow=none;html=1;rounded=0;entryX=0.414;entryY=0.984;entryDx=0;entryDy=0;entryPerimeter=0;exitX=0.686;exitY=0.034;exitDx=0;exitDy=0;exitPerimeter=0;" edge="1" parent="1" source="aUg-6YMT8PlGPVR0eo5o-38" target="aUg-6YMT8PlGPVR0eo5o-42">
          <mxGeometry width="50" height="50" relative="1" as="geometry">
            <mxPoint x="2682" y="3582.5" as="sourcePoint" />
            <mxPoint x="2732" y="3532.5" as="targetPoint" />
          </mxGeometry>
        </mxCell>
        <mxCell id="aUg-6YMT8PlGPVR0eo5o-54" value="" style="endArrow=none;html=1;rounded=0;exitX=0.992;exitY=0.597;exitDx=0;exitDy=0;exitPerimeter=0;" edge="1" parent="1" source="aUg-6YMT8PlGPVR0eo5o-38" target="aUg-6YMT8PlGPVR0eo5o-46">
          <mxGeometry width="50" height="50" relative="1" as="geometry">
            <mxPoint x="2702" y="3602.5" as="sourcePoint" />
            <mxPoint x="2752" y="3552.5" as="targetPoint" />
          </mxGeometry>
        </mxCell>
        <mxCell id="aUg-6YMT8PlGPVR0eo5o-55" value="Categories" style="rounded=0;whiteSpace=wrap;html=1;" vertex="1" parent="1">
          <mxGeometry x="3222" y="3502.5" width="120" height="60" as="geometry" />
        </mxCell>
        <mxCell id="aUg-6YMT8PlGPVR0eo5o-56" value="&lt;u&gt;CategoryID&lt;/u&gt;" style="ellipse;whiteSpace=wrap;html=1;" vertex="1" parent="1">
          <mxGeometry x="3022" y="3622.5" width="120" height="80" as="geometry" />
        </mxCell>
        <mxCell id="aUg-6YMT8PlGPVR0eo5o-57" value="Name" style="ellipse;whiteSpace=wrap;html=1;" vertex="1" parent="1">
          <mxGeometry x="3217" y="3622.5" width="120" height="80" as="geometry" />
        </mxCell>
        <mxCell id="aUg-6YMT8PlGPVR0eo5o-58" value="Description" style="ellipse;whiteSpace=wrap;html=1;" vertex="1" parent="1">
          <mxGeometry x="3362" y="3602.5" width="120" height="80" as="geometry" />
        </mxCell>
        <mxCell id="aUg-6YMT8PlGPVR0eo5o-59" value="" style="endArrow=none;html=1;rounded=0;entryX=0.06;entryY=0.999;entryDx=0;entryDy=0;entryPerimeter=0;exitX=0.76;exitY=0.101;exitDx=0;exitDy=0;exitPerimeter=0;" edge="1" parent="1" source="aUg-6YMT8PlGPVR0eo5o-56" target="aUg-6YMT8PlGPVR0eo5o-55">
          <mxGeometry width="50" height="50" relative="1" as="geometry">
            <mxPoint x="3312" y="3622.5" as="sourcePoint" />
            <mxPoint x="3362" y="3572.5" as="targetPoint" />
          </mxGeometry>
        </mxCell>
        <mxCell id="aUg-6YMT8PlGPVR0eo5o-60" value="" style="endArrow=none;html=1;rounded=0;entryX=0.5;entryY=1;entryDx=0;entryDy=0;" edge="1" parent="1" source="aUg-6YMT8PlGPVR0eo5o-57" target="aUg-6YMT8PlGPVR0eo5o-55">
          <mxGeometry width="50" height="50" relative="1" as="geometry">
            <mxPoint x="3442" y="3642.5" as="sourcePoint" />
            <mxPoint x="3492" y="3592.5" as="targetPoint" />
          </mxGeometry>
        </mxCell>
        <mxCell id="aUg-6YMT8PlGPVR0eo5o-61" value="" style="endArrow=none;html=1;rounded=0;entryX=0.106;entryY=0.16;entryDx=0;entryDy=0;entryPerimeter=0;exitX=0.825;exitY=0.97;exitDx=0;exitDy=0;exitPerimeter=0;" edge="1" parent="1" source="aUg-6YMT8PlGPVR0eo5o-55" target="aUg-6YMT8PlGPVR0eo5o-58">
          <mxGeometry width="50" height="50" relative="1" as="geometry">
            <mxPoint x="3492" y="3642.5" as="sourcePoint" />
            <mxPoint x="3542" y="3592.5" as="targetPoint" />
          </mxGeometry>
        </mxCell>
        <mxCell id="aUg-6YMT8PlGPVR0eo5o-62" value="Courses" style="rounded=0;whiteSpace=wrap;html=1;" vertex="1" parent="1">
          <mxGeometry x="3284.5" y="2990.75" width="120" height="60" as="geometry" />
        </mxCell>
        <mxCell id="aUg-6YMT8PlGPVR0eo5o-63" value="&lt;u&gt;CourseID&lt;/u&gt;" style="ellipse;whiteSpace=wrap;html=1;" vertex="1" parent="1">
          <mxGeometry x="3034.5" y="2848.5" width="120" height="50" as="geometry" />
        </mxCell>
        <mxCell id="aUg-6YMT8PlGPVR0eo5o-64" value="Title" style="ellipse;whiteSpace=wrap;html=1;" vertex="1" parent="1">
          <mxGeometry x="3064.5" y="2930.75" width="120" height="40" as="geometry" />
        </mxCell>
        <mxCell id="aUg-6YMT8PlGPVR0eo5o-65" value="Slug" style="ellipse;whiteSpace=wrap;html=1;" vertex="1" parent="1">
          <mxGeometry x="3019.5" y="2960.25" width="110" height="40" as="geometry" />
        </mxCell>
        <mxCell id="aUg-6YMT8PlGPVR0eo5o-66" value="Description" style="ellipse;whiteSpace=wrap;html=1;" vertex="1" parent="1">
          <mxGeometry x="3072.5" y="3063.75" width="90" height="30" as="geometry" />
        </mxCell>
        <mxCell id="aUg-6YMT8PlGPVR0eo5o-67" value="Level" style="ellipse;whiteSpace=wrap;html=1;" vertex="1" parent="1">
          <mxGeometry x="3142" y="2822.5" width="100" height="30" as="geometry" />
        </mxCell>
        <mxCell id="aUg-6YMT8PlGPVR0eo5o-68" value="Language" style="ellipse;whiteSpace=wrap;html=1;" vertex="1" parent="1">
          <mxGeometry x="3079.5" y="3100.75" width="100" height="30" as="geometry" />
        </mxCell>
        <mxCell id="aUg-6YMT8PlGPVR0eo5o-69" value="DurationHours" style="ellipse;whiteSpace=wrap;html=1;" vertex="1" parent="1">
          <mxGeometry x="3227" y="2805" width="110" height="30" as="geometry" />
        </mxCell>
        <mxCell id="aUg-6YMT8PlGPVR0eo5o-70" value="Price" style="ellipse;whiteSpace=wrap;html=1;" vertex="1" parent="1">
          <mxGeometry x="3207" y="3187.75" width="90" height="30" as="geometry" />
        </mxCell>
        <mxCell id="aUg-6YMT8PlGPVR0eo5o-71" value="StartDate" style="ellipse;whiteSpace=wrap;html=1;" vertex="1" parent="1">
          <mxGeometry x="3354.5" y="3165.25" width="90" height="35" as="geometry" />
        </mxCell>
        <mxCell id="aUg-6YMT8PlGPVR0eo5o-72" value="EndDate" style="ellipse;whiteSpace=wrap;html=1;" vertex="1" parent="1">
          <mxGeometry x="3394.5" y="3123.25" width="90" height="20" as="geometry" />
        </mxCell>
        <mxCell id="aUg-6YMT8PlGPVR0eo5o-73" value="CenterID" style="ellipse;whiteSpace=wrap;html=1;" vertex="1" parent="1">
          <mxGeometry x="3444.5" y="2870.75" width="110" height="30" as="geometry" />
        </mxCell>
        <mxCell id="aUg-6YMT8PlGPVR0eo5o-74" value="InstructorID" style="ellipse;whiteSpace=wrap;html=1;" vertex="1" parent="1">
          <mxGeometry x="3464.5" y="2920.75" width="100" height="30" as="geometry" />
        </mxCell>
        <mxCell id="aUg-6YMT8PlGPVR0eo5o-75" value="ThumbnailURL" style="ellipse;whiteSpace=wrap;html=1;" vertex="1" parent="1">
          <mxGeometry x="3474.5" y="2980.75" width="100" height="30" as="geometry" />
        </mxCell>
        <mxCell id="aUg-6YMT8PlGPVR0eo5o-76" value="IsActive" style="ellipse;whiteSpace=wrap;html=1;" vertex="1" parent="1">
          <mxGeometry x="3459.5" y="3050.75" width="110" height="30" as="geometry" />
        </mxCell>
        <mxCell id="aUg-6YMT8PlGPVR0eo5o-77" value="" style="endArrow=none;html=1;rounded=0;entryX=0.902;entryY=0.869;entryDx=0;entryDy=0;entryPerimeter=0;exitX=0.112;exitY=0.058;exitDx=0;exitDy=0;exitPerimeter=0;" edge="1" parent="1" source="aUg-6YMT8PlGPVR0eo5o-62" target="aUg-6YMT8PlGPVR0eo5o-63">
          <mxGeometry width="50" height="50" relative="1" as="geometry">
            <mxPoint x="3254.5" y="2970.75" as="sourcePoint" />
            <mxPoint x="3304.5" y="2920.75" as="targetPoint" />
          </mxGeometry>
        </mxCell>
        <mxCell id="aUg-6YMT8PlGPVR0eo5o-78" value="" style="endArrow=none;html=1;rounded=0;entryX=0.016;entryY=0.328;entryDx=0;entryDy=0;entryPerimeter=0;exitX=0.993;exitY=0.585;exitDx=0;exitDy=0;exitPerimeter=0;" edge="1" parent="1" source="aUg-6YMT8PlGPVR0eo5o-64" target="aUg-6YMT8PlGPVR0eo5o-62">
          <mxGeometry width="50" height="50" relative="1" as="geometry">
            <mxPoint x="3174.5" y="3020.75" as="sourcePoint" />
            <mxPoint x="3224.5" y="2970.75" as="targetPoint" />
          </mxGeometry>
        </mxCell>
        <mxCell id="aUg-6YMT8PlGPVR0eo5o-79" value="" style="endArrow=none;html=1;rounded=0;entryX=0.02;entryY=0.613;entryDx=0;entryDy=0;entryPerimeter=0;exitX=0.96;exitY=0.61;exitDx=0;exitDy=0;exitPerimeter=0;" edge="1" parent="1" source="aUg-6YMT8PlGPVR0eo5o-65" target="aUg-6YMT8PlGPVR0eo5o-62">
          <mxGeometry width="50" height="50" relative="1" as="geometry">
            <mxPoint x="3204.5" y="3050.75" as="sourcePoint" />
            <mxPoint x="3254.5" y="3000.75" as="targetPoint" />
          </mxGeometry>
        </mxCell>
        <mxCell id="aUg-6YMT8PlGPVR0eo5o-80" value="" style="endArrow=none;html=1;rounded=0;entryX=-0.023;entryY=0.734;entryDx=0;entryDy=0;entryPerimeter=0;" edge="1" parent="1" source="aUg-6YMT8PlGPVR0eo5o-66" target="aUg-6YMT8PlGPVR0eo5o-62">
          <mxGeometry width="50" height="50" relative="1" as="geometry">
            <mxPoint x="3204.5" y="3080.75" as="sourcePoint" />
            <mxPoint x="3254.5" y="3030.75" as="targetPoint" />
          </mxGeometry>
        </mxCell>
        <mxCell id="aUg-6YMT8PlGPVR0eo5o-81" value="" style="endArrow=none;html=1;rounded=0;entryX=0.69;entryY=1.016;entryDx=0;entryDy=0;entryPerimeter=0;exitX=0.219;exitY=0.016;exitDx=0;exitDy=0;exitPerimeter=0;" edge="1" parent="1" source="aUg-6YMT8PlGPVR0eo5o-62" target="aUg-6YMT8PlGPVR0eo5o-67">
          <mxGeometry width="50" height="50" relative="1" as="geometry">
            <mxPoint x="3284.5" y="2980.75" as="sourcePoint" />
            <mxPoint x="3334.5" y="2930.75" as="targetPoint" />
          </mxGeometry>
        </mxCell>
        <mxCell id="aUg-6YMT8PlGPVR0eo5o-82" value="" style="endArrow=none;html=1;rounded=0;entryX=0.434;entryY=1.002;entryDx=0;entryDy=0;entryPerimeter=0;exitX=0.532;exitY=0.023;exitDx=0;exitDy=0;exitPerimeter=0;" edge="1" parent="1" source="aUg-6YMT8PlGPVR0eo5o-62" target="aUg-6YMT8PlGPVR0eo5o-69">
          <mxGeometry width="50" height="50" relative="1" as="geometry">
            <mxPoint x="3344.5" y="2980.75" as="sourcePoint" />
            <mxPoint x="3394.5" y="2930.75" as="targetPoint" />
          </mxGeometry>
        </mxCell>
        <mxCell id="aUg-6YMT8PlGPVR0eo5o-83" value="" style="endArrow=none;html=1;rounded=0;entryX=0.185;entryY=0.959;entryDx=0;entryDy=0;entryPerimeter=0;exitX=0.799;exitY=-0.034;exitDx=0;exitDy=0;exitPerimeter=0;" edge="1" parent="1" source="aUg-6YMT8PlGPVR0eo5o-62" target="aUg-6YMT8PlGPVR0eo5o-73">
          <mxGeometry width="50" height="50" relative="1" as="geometry">
            <mxPoint x="3374.5" y="2980.75" as="sourcePoint" />
            <mxPoint x="3424.5" y="2930.75" as="targetPoint" />
          </mxGeometry>
        </mxCell>
        <mxCell id="aUg-6YMT8PlGPVR0eo5o-84" value="" style="endArrow=none;html=1;rounded=0;entryX=0.048;entryY=0.836;entryDx=0;entryDy=0;entryPerimeter=0;exitX=1;exitY=0;exitDx=0;exitDy=0;" edge="1" parent="1" source="aUg-6YMT8PlGPVR0eo5o-62" target="aUg-6YMT8PlGPVR0eo5o-74">
          <mxGeometry width="50" height="50" relative="1" as="geometry">
            <mxPoint x="3404.5" y="3010.75" as="sourcePoint" />
            <mxPoint x="3454.5" y="2960.75" as="targetPoint" />
          </mxGeometry>
        </mxCell>
        <mxCell id="aUg-6YMT8PlGPVR0eo5o-85" value="" style="endArrow=none;html=1;rounded=0;entryX=0.044;entryY=0.252;entryDx=0;entryDy=0;entryPerimeter=0;exitX=1.008;exitY=0.57;exitDx=0;exitDy=0;exitPerimeter=0;" edge="1" parent="1" source="aUg-6YMT8PlGPVR0eo5o-62" target="aUg-6YMT8PlGPVR0eo5o-75">
          <mxGeometry width="50" height="50" relative="1" as="geometry">
            <mxPoint x="3414.5" y="3030.75" as="sourcePoint" />
            <mxPoint x="3464.5" y="2980.75" as="targetPoint" />
          </mxGeometry>
        </mxCell>
        <mxCell id="aUg-6YMT8PlGPVR0eo5o-86" value="" style="endArrow=none;html=1;rounded=0;exitX=0.984;exitY=0.919;exitDx=0;exitDy=0;exitPerimeter=0;" edge="1" parent="1" source="aUg-6YMT8PlGPVR0eo5o-62" target="aUg-6YMT8PlGPVR0eo5o-76">
          <mxGeometry width="50" height="50" relative="1" as="geometry">
            <mxPoint x="3364.5" y="3100.75" as="sourcePoint" />
            <mxPoint x="3414.5" y="3050.75" as="targetPoint" />
          </mxGeometry>
        </mxCell>
        <mxCell id="aUg-6YMT8PlGPVR0eo5o-87" value="" style="endArrow=none;html=1;rounded=0;entryX=0.02;entryY=0.89;entryDx=0;entryDy=0;entryPerimeter=0;exitX=0.734;exitY=0.005;exitDx=0;exitDy=0;exitPerimeter=0;" edge="1" parent="1" source="aUg-6YMT8PlGPVR0eo5o-68" target="aUg-6YMT8PlGPVR0eo5o-62">
          <mxGeometry width="50" height="50" relative="1" as="geometry">
            <mxPoint x="3224.5" y="3100.75" as="sourcePoint" />
            <mxPoint x="3274.5" y="3050.75" as="targetPoint" />
          </mxGeometry>
        </mxCell>
        <mxCell id="aUg-6YMT8PlGPVR0eo5o-88" value="" style="endArrow=none;html=1;rounded=0;entryX=0.176;entryY=0.976;entryDx=0;entryDy=0;entryPerimeter=0;exitX=0.706;exitY=0.02;exitDx=0;exitDy=0;exitPerimeter=0;" edge="1" parent="1" source="aUg-6YMT8PlGPVR0eo5o-70" target="aUg-6YMT8PlGPVR0eo5o-62">
          <mxGeometry width="50" height="50" relative="1" as="geometry">
            <mxPoint x="3244.5" y="3110.75" as="sourcePoint" />
            <mxPoint x="3294.5" y="3060.75" as="targetPoint" />
          </mxGeometry>
        </mxCell>
        <mxCell id="aUg-6YMT8PlGPVR0eo5o-89" value="" style="endArrow=none;html=1;rounded=0;entryX=0.56;entryY=0.99;entryDx=0;entryDy=0;entryPerimeter=0;exitX=0.562;exitY=-0.039;exitDx=0;exitDy=0;exitPerimeter=0;" edge="1" parent="1" source="aUg-6YMT8PlGPVR0eo5o-71" target="aUg-6YMT8PlGPVR0eo5o-62">
          <mxGeometry width="50" height="50" relative="1" as="geometry">
            <mxPoint x="3314.5" y="3110.75" as="sourcePoint" />
            <mxPoint x="3364.5" y="3060.75" as="targetPoint" />
          </mxGeometry>
        </mxCell>
        <mxCell id="aUg-6YMT8PlGPVR0eo5o-90" value="" style="endArrow=none;html=1;rounded=0;entryX=0.809;entryY=1.032;entryDx=0;entryDy=0;entryPerimeter=0;exitX=0.464;exitY=0.099;exitDx=0;exitDy=0;exitPerimeter=0;" edge="1" parent="1" source="aUg-6YMT8PlGPVR0eo5o-72" target="aUg-6YMT8PlGPVR0eo5o-62">
          <mxGeometry width="50" height="50" relative="1" as="geometry">
            <mxPoint x="3394.5" y="3130.75" as="sourcePoint" />
            <mxPoint x="3444.5" y="3080.75" as="targetPoint" />
          </mxGeometry>
        </mxCell>
        <mxCell id="aUg-6YMT8PlGPVR0eo5o-91" value="Lessons" style="rounded=0;whiteSpace=wrap;html=1;" vertex="1" parent="1">
          <mxGeometry x="5444.5" y="2902.5" width="120" height="60" as="geometry" />
        </mxCell>
        <mxCell id="aUg-6YMT8PlGPVR0eo5o-92" value="&lt;u&gt;LessonID&lt;/u&gt;" style="ellipse;whiteSpace=wrap;html=1;" vertex="1" parent="1">
          <mxGeometry x="5414.5" y="2702.5" width="110" height="50" as="geometry" />
        </mxCell>
        <mxCell id="aUg-6YMT8PlGPVR0eo5o-93" value="CourseID" style="ellipse;whiteSpace=wrap;html=1;" vertex="1" parent="1">
          <mxGeometry x="5504.5" y="2805" width="120" height="45" as="geometry" />
        </mxCell>
        <mxCell id="aUg-6YMT8PlGPVR0eo5o-94" value="Title" style="ellipse;whiteSpace=wrap;html=1;" vertex="1" parent="1">
          <mxGeometry x="5304.5" y="2862.5" width="80" height="30" as="geometry" />
        </mxCell>
        <mxCell id="aUg-6YMT8PlGPVR0eo5o-95" value="Content" style="ellipse;whiteSpace=wrap;html=1;" vertex="1" parent="1">
          <mxGeometry x="5274.5" y="2917.5" width="100" height="30" as="geometry" />
        </mxCell>
        <mxCell id="aUg-6YMT8PlGPVR0eo5o-96" value="VideoURL" style="ellipse;whiteSpace=wrap;html=1;" vertex="1" parent="1">
          <mxGeometry x="5624.5" y="2856.5" width="90" height="42" as="geometry" />
        </mxCell>
        <mxCell id="aUg-6YMT8PlGPVR0eo5o-97" value="DurationMin" style="ellipse;whiteSpace=wrap;html=1;" vertex="1" parent="1">
          <mxGeometry x="5594.5" y="3009.75" width="90" height="40" as="geometry" />
        </mxCell>
        <mxCell id="aUg-6YMT8PlGPVR0eo5o-98" value="OrderIndex" style="ellipse;whiteSpace=wrap;html=1;" vertex="1" parent="1">
          <mxGeometry x="5269.5" y="2992.5" width="110" height="40" as="geometry" />
        </mxCell>
        <mxCell id="aUg-6YMT8PlGPVR0eo5o-99" value="" style="endArrow=none;html=1;rounded=0;entryX=0.644;entryY=0.934;entryDx=0;entryDy=0;entryPerimeter=0;exitX=0.326;exitY=0.007;exitDx=0;exitDy=0;exitPerimeter=0;" edge="1" parent="1" source="aUg-6YMT8PlGPVR0eo5o-91" target="aUg-6YMT8PlGPVR0eo5o-92">
          <mxGeometry width="50" height="50" relative="1" as="geometry">
            <mxPoint x="5434.5" y="2902.5" as="sourcePoint" />
            <mxPoint x="5484.5" y="2852.5" as="targetPoint" />
          </mxGeometry>
        </mxCell>
        <mxCell id="aUg-6YMT8PlGPVR0eo5o-100" value="" style="endArrow=none;html=1;rounded=0;entryX=0.315;entryY=0.909;entryDx=0;entryDy=0;entryPerimeter=0;exitX=0.702;exitY=-0.041;exitDx=0;exitDy=0;exitPerimeter=0;" edge="1" parent="1" source="aUg-6YMT8PlGPVR0eo5o-91" target="aUg-6YMT8PlGPVR0eo5o-93">
          <mxGeometry width="50" height="50" relative="1" as="geometry">
            <mxPoint x="5474.5" y="2902.5" as="sourcePoint" />
            <mxPoint x="5524.5" y="2852.5" as="targetPoint" />
          </mxGeometry>
        </mxCell>
        <mxCell id="aUg-6YMT8PlGPVR0eo5o-101" value="" style="endArrow=none;html=1;rounded=0;entryX=0;entryY=0.333;entryDx=0;entryDy=0;entryPerimeter=0;exitX=0.9;exitY=0.883;exitDx=0;exitDy=0;exitPerimeter=0;" edge="1" parent="1" source="aUg-6YMT8PlGPVR0eo5o-94" target="aUg-6YMT8PlGPVR0eo5o-91">
          <mxGeometry width="50" height="50" relative="1" as="geometry">
            <mxPoint x="5374.5" y="2922.5" as="sourcePoint" />
            <mxPoint x="5424.5" y="2872.5" as="targetPoint" />
          </mxGeometry>
        </mxCell>
        <mxCell id="aUg-6YMT8PlGPVR0eo5o-102" value="" style="endArrow=none;html=1;rounded=0;entryX=0;entryY=0.667;entryDx=0;entryDy=0;entryPerimeter=0;exitX=0.941;exitY=0.814;exitDx=0;exitDy=0;exitPerimeter=0;" edge="1" parent="1" source="aUg-6YMT8PlGPVR0eo5o-95" target="aUg-6YMT8PlGPVR0eo5o-91">
          <mxGeometry width="50" height="50" relative="1" as="geometry">
            <mxPoint x="5374.5" y="2962.5" as="sourcePoint" />
            <mxPoint x="5424.5" y="2912.5" as="targetPoint" />
          </mxGeometry>
        </mxCell>
        <mxCell id="aUg-6YMT8PlGPVR0eo5o-103" value="" style="endArrow=none;html=1;rounded=0;entryX=-0.007;entryY=0.832;entryDx=0;entryDy=0;entryPerimeter=0;exitX=0.444;exitY=-0.042;exitDx=0;exitDy=0;exitPerimeter=0;" edge="1" parent="1" source="aUg-6YMT8PlGPVR0eo5o-98" target="aUg-6YMT8PlGPVR0eo5o-91">
          <mxGeometry width="50" height="50" relative="1" as="geometry">
            <mxPoint x="5484.5" y="3012.5" as="sourcePoint" />
            <mxPoint x="5534.5" y="2962.5" as="targetPoint" />
          </mxGeometry>
        </mxCell>
        <mxCell id="aUg-6YMT8PlGPVR0eo5o-104" value="" style="endArrow=none;html=1;rounded=0;entryX=0.025;entryY=0.426;entryDx=0;entryDy=0;entryPerimeter=0;exitX=0.979;exitY=0.773;exitDx=0;exitDy=0;exitPerimeter=0;" edge="1" parent="1" source="aUg-6YMT8PlGPVR0eo5o-91" target="aUg-6YMT8PlGPVR0eo5o-97">
          <mxGeometry width="50" height="50" relative="1" as="geometry">
            <mxPoint x="5544.5" y="2982.5" as="sourcePoint" />
            <mxPoint x="5594.5" y="2932.5" as="targetPoint" />
          </mxGeometry>
        </mxCell>
        <mxCell id="aUg-6YMT8PlGPVR0eo5o-105" value="" style="endArrow=none;html=1;rounded=0;entryX=0.066;entryY=0.692;entryDx=0;entryDy=0;entryPerimeter=0;exitX=1.006;exitY=0.376;exitDx=0;exitDy=0;exitPerimeter=0;" edge="1" parent="1" source="aUg-6YMT8PlGPVR0eo5o-91" target="aUg-6YMT8PlGPVR0eo5o-96">
          <mxGeometry width="50" height="50" relative="1" as="geometry">
            <mxPoint x="5554.5" y="2942.5" as="sourcePoint" />
            <mxPoint x="5604.5" y="2892.5" as="targetPoint" />
          </mxGeometry>
        </mxCell>
        <mxCell id="aUg-6YMT8PlGPVR0eo5o-106" value="LessonAttachments" style="rounded=0;whiteSpace=wrap;html=1;" vertex="1" parent="1">
          <mxGeometry x="5914.5" y="2932.5" width="120" height="60" as="geometry" />
        </mxCell>
        <mxCell id="aUg-6YMT8PlGPVR0eo5o-107" value="&lt;u&gt;AttachmentID&lt;/u&gt;" style="ellipse;whiteSpace=wrap;html=1;" vertex="1" parent="1">
          <mxGeometry x="5804.5" y="2828.5" width="130" height="34" as="geometry" />
        </mxCell>
        <mxCell id="aUg-6YMT8PlGPVR0eo5o-108" value="LessonID" style="ellipse;whiteSpace=wrap;html=1;" vertex="1" parent="1">
          <mxGeometry x="5954.5" y="2827" width="100" height="37" as="geometry" />
        </mxCell>
        <mxCell id="aUg-6YMT8PlGPVR0eo5o-109" value="FileURL" style="ellipse;whiteSpace=wrap;html=1;" vertex="1" parent="1">
          <mxGeometry x="6094.5" y="2822" width="120" height="47" as="geometry" />
        </mxCell>
        <mxCell id="aUg-6YMT8PlGPVR0eo5o-110" value="FileType" style="ellipse;whiteSpace=wrap;html=1;" vertex="1" parent="1">
          <mxGeometry x="6114.5" y="2892.5" width="110" height="40" as="geometry" />
        </mxCell>
        <mxCell id="aUg-6YMT8PlGPVR0eo5o-111" value="UploadedAt" style="ellipse;whiteSpace=wrap;html=1;" vertex="1" parent="1">
          <mxGeometry x="6124.5" y="2972.5" width="120" height="40" as="geometry" />
        </mxCell>
        <mxCell id="aUg-6YMT8PlGPVR0eo5o-112" value="" style="endArrow=none;html=1;rounded=0;entryX=0.478;entryY=0.956;entryDx=0;entryDy=0;entryPerimeter=0;exitX=0.194;exitY=0.03;exitDx=0;exitDy=0;exitPerimeter=0;" edge="1" parent="1" source="aUg-6YMT8PlGPVR0eo5o-106" target="aUg-6YMT8PlGPVR0eo5o-107">
          <mxGeometry width="50" height="50" relative="1" as="geometry">
            <mxPoint x="5894.5" y="2912.5" as="sourcePoint" />
            <mxPoint x="5944.5" y="2862.5" as="targetPoint" />
          </mxGeometry>
        </mxCell>
        <mxCell id="aUg-6YMT8PlGPVR0eo5o-113" value="" style="endArrow=none;html=1;rounded=0;entryX=0.449;entryY=0.97;entryDx=0;entryDy=0;entryPerimeter=0;exitX=0.53;exitY=-0.006;exitDx=0;exitDy=0;exitPerimeter=0;" edge="1" parent="1" source="aUg-6YMT8PlGPVR0eo5o-106" target="aUg-6YMT8PlGPVR0eo5o-108">
          <mxGeometry width="50" height="50" relative="1" as="geometry">
            <mxPoint x="5954.5" y="2922.5" as="sourcePoint" />
            <mxPoint x="6004.5" y="2872.5" as="targetPoint" />
          </mxGeometry>
        </mxCell>
        <mxCell id="aUg-6YMT8PlGPVR0eo5o-114" value="" style="endArrow=none;html=1;rounded=0;entryX=0.116;entryY=0.79;entryDx=0;entryDy=0;entryPerimeter=0;exitX=0.79;exitY=0.017;exitDx=0;exitDy=0;exitPerimeter=0;" edge="1" parent="1" source="aUg-6YMT8PlGPVR0eo5o-106" target="aUg-6YMT8PlGPVR0eo5o-109">
          <mxGeometry width="50" height="50" relative="1" as="geometry">
            <mxPoint x="6024.5" y="2922.5" as="sourcePoint" />
            <mxPoint x="6074.5" y="2872.5" as="targetPoint" />
          </mxGeometry>
        </mxCell>
        <mxCell id="aUg-6YMT8PlGPVR0eo5o-115" value="" style="endArrow=none;html=1;rounded=0;entryX=0.022;entryY=0.67;entryDx=0;entryDy=0;entryPerimeter=0;exitX=0.984;exitY=0.381;exitDx=0;exitDy=0;exitPerimeter=0;" edge="1" parent="1" source="aUg-6YMT8PlGPVR0eo5o-106" target="aUg-6YMT8PlGPVR0eo5o-110">
          <mxGeometry width="50" height="50" relative="1" as="geometry">
            <mxPoint x="6064.5" y="2952.5" as="sourcePoint" />
            <mxPoint x="6114.5" y="2902.5" as="targetPoint" />
          </mxGeometry>
        </mxCell>
        <mxCell id="aUg-6YMT8PlGPVR0eo5o-116" value="" style="endArrow=none;html=1;rounded=0;entryX=0.004;entryY=0.353;entryDx=0;entryDy=0;entryPerimeter=0;exitX=0.996;exitY=0.649;exitDx=0;exitDy=0;exitPerimeter=0;" edge="1" parent="1" source="aUg-6YMT8PlGPVR0eo5o-106" target="aUg-6YMT8PlGPVR0eo5o-111">
          <mxGeometry width="50" height="50" relative="1" as="geometry">
            <mxPoint x="6044.5" y="2992.5" as="sourcePoint" />
            <mxPoint x="6094.5" y="2942.5" as="targetPoint" />
          </mxGeometry>
        </mxCell>
        <mxCell id="aUg-6YMT8PlGPVR0eo5o-117" value="Assignments" style="rounded=0;whiteSpace=wrap;html=1;" vertex="1" parent="1">
          <mxGeometry x="5064.5" y="2398.5" width="120" height="60" as="geometry" />
        </mxCell>
        <mxCell id="aUg-6YMT8PlGPVR0eo5o-118" value="&lt;u&gt;AssignmentID&lt;/u&gt;" style="ellipse;whiteSpace=wrap;html=1;" vertex="1" parent="1">
          <mxGeometry x="4964.5" y="2308.5" width="120" height="50" as="geometry" />
        </mxCell>
        <mxCell id="aUg-6YMT8PlGPVR0eo5o-119" value="LessonID" style="ellipse;whiteSpace=wrap;html=1;" vertex="1" parent="1">
          <mxGeometry x="5099.5" y="2279.5" width="105" height="40" as="geometry" />
        </mxCell>
        <mxCell id="aUg-6YMT8PlGPVR0eo5o-120" value="Title" style="ellipse;whiteSpace=wrap;html=1;" vertex="1" parent="1">
          <mxGeometry x="5204.5" y="2279.5" width="80" height="40" as="geometry" />
        </mxCell>
        <mxCell id="aUg-6YMT8PlGPVR0eo5o-121" value="Description" style="ellipse;whiteSpace=wrap;html=1;" vertex="1" parent="1">
          <mxGeometry x="5254.5" y="2333.5" width="80" height="35" as="geometry" />
        </mxCell>
        <mxCell id="aUg-6YMT8PlGPVR0eo5o-122" value="MaxScore" style="ellipse;whiteSpace=wrap;html=1;" vertex="1" parent="1">
          <mxGeometry x="5259.5" y="2470" width="80" height="42" as="geometry" />
        </mxCell>
        <mxCell id="aUg-6YMT8PlGPVR0eo5o-123" value="DueDate" style="ellipse;whiteSpace=wrap;html=1;" vertex="1" parent="1">
          <mxGeometry x="4884.5" y="2368.5" width="80" height="35" as="geometry" />
        </mxCell>
        <mxCell id="aUg-6YMT8PlGPVR0eo5o-124" value="" style="endArrow=none;html=1;rounded=0;entryX=0.91;entryY=0.711;entryDx=0;entryDy=0;entryPerimeter=0;exitX=-0.016;exitY=0.448;exitDx=0;exitDy=0;exitPerimeter=0;" edge="1" parent="1" source="aUg-6YMT8PlGPVR0eo5o-117" target="aUg-6YMT8PlGPVR0eo5o-123">
          <mxGeometry width="50" height="50" relative="1" as="geometry">
            <mxPoint x="4974.5" y="2428.5" as="sourcePoint" />
            <mxPoint x="5024.5" y="2378.5" as="targetPoint" />
          </mxGeometry>
        </mxCell>
        <mxCell id="aUg-6YMT8PlGPVR0eo5o-125" value="" style="endArrow=none;html=1;rounded=0;exitX=0.065;exitY=0.015;exitDx=0;exitDy=0;exitPerimeter=0;" edge="1" parent="1" source="aUg-6YMT8PlGPVR0eo5o-117" target="aUg-6YMT8PlGPVR0eo5o-118">
          <mxGeometry width="50" height="50" relative="1" as="geometry">
            <mxPoint x="5004.5" y="2408.5" as="sourcePoint" />
            <mxPoint x="5054.5" y="2358.5" as="targetPoint" />
          </mxGeometry>
        </mxCell>
        <mxCell id="aUg-6YMT8PlGPVR0eo5o-126" value="" style="endArrow=none;html=1;rounded=0;entryX=0.456;entryY=0.954;entryDx=0;entryDy=0;entryPerimeter=0;exitX=0.432;exitY=0.038;exitDx=0;exitDy=0;exitPerimeter=0;" edge="1" parent="1" source="aUg-6YMT8PlGPVR0eo5o-117" target="aUg-6YMT8PlGPVR0eo5o-119">
          <mxGeometry width="50" height="50" relative="1" as="geometry">
            <mxPoint x="5124.5" y="2408.5" as="sourcePoint" />
            <mxPoint x="5174.5" y="2358.5" as="targetPoint" />
          </mxGeometry>
        </mxCell>
        <mxCell id="aUg-6YMT8PlGPVR0eo5o-127" value="" style="endArrow=none;html=1;rounded=0;entryX=0.202;entryY=0.949;entryDx=0;entryDy=0;entryPerimeter=0;exitX=0.792;exitY=0.054;exitDx=0;exitDy=0;exitPerimeter=0;" edge="1" parent="1" source="aUg-6YMT8PlGPVR0eo5o-117" target="aUg-6YMT8PlGPVR0eo5o-120">
          <mxGeometry width="50" height="50" relative="1" as="geometry">
            <mxPoint x="5174.5" y="2418.5" as="sourcePoint" />
            <mxPoint x="5224.5" y="2368.5" as="targetPoint" />
          </mxGeometry>
        </mxCell>
        <mxCell id="aUg-6YMT8PlGPVR0eo5o-128" value="" style="endArrow=none;html=1;rounded=0;entryX=0.045;entryY=0.672;entryDx=0;entryDy=0;entryPerimeter=0;exitX=1;exitY=0.425;exitDx=0;exitDy=0;exitPerimeter=0;" edge="1" parent="1" source="aUg-6YMT8PlGPVR0eo5o-117" target="aUg-6YMT8PlGPVR0eo5o-121">
          <mxGeometry width="50" height="50" relative="1" as="geometry">
            <mxPoint x="5174.5" y="2438.5" as="sourcePoint" />
            <mxPoint x="5224.5" y="2388.5" as="targetPoint" />
          </mxGeometry>
        </mxCell>
        <mxCell id="aUg-6YMT8PlGPVR0eo5o-129" value="" style="endArrow=none;html=1;rounded=0;entryX=0.05;entryY=0.426;entryDx=0;entryDy=0;entryPerimeter=0;exitX=1;exitY=0.833;exitDx=0;exitDy=0;exitPerimeter=0;" edge="1" parent="1" source="aUg-6YMT8PlGPVR0eo5o-117" target="aUg-6YMT8PlGPVR0eo5o-122">
          <mxGeometry width="50" height="50" relative="1" as="geometry">
            <mxPoint x="5194.5" y="2468.5" as="sourcePoint" />
            <mxPoint x="5244.5" y="2418.5" as="targetPoint" />
          </mxGeometry>
        </mxCell>
        <mxCell id="aUg-6YMT8PlGPVR0eo5o-130" value="Submissions" style="rounded=0;whiteSpace=wrap;html=1;" vertex="1" parent="1">
          <mxGeometry x="5674.5" y="2426" width="120" height="60" as="geometry" />
        </mxCell>
        <mxCell id="aUg-6YMT8PlGPVR0eo5o-131" value="&lt;u&gt;SubmissionID&lt;/u&gt;" style="ellipse;whiteSpace=wrap;html=1;" vertex="1" parent="1">
          <mxGeometry x="5594.5" y="2319.5" width="110" height="50" as="geometry" />
        </mxCell>
        <mxCell id="aUg-6YMT8PlGPVR0eo5o-132" value="AssignmentID" style="ellipse;whiteSpace=wrap;html=1;" vertex="1" parent="1">
          <mxGeometry x="5724.5" y="2310.5" width="90" height="64" as="geometry" />
        </mxCell>
        <mxCell id="aUg-6YMT8PlGPVR0eo5o-133" value="StudentID" style="ellipse;whiteSpace=wrap;html=1;" vertex="1" parent="1">
          <mxGeometry x="5839.5" y="2326" width="90" height="55" as="geometry" />
        </mxCell>
        <mxCell id="aUg-6YMT8PlGPVR0eo5o-134" value="SubmitDate" style="ellipse;whiteSpace=wrap;html=1;" vertex="1" parent="1">
          <mxGeometry x="5854.5" y="2428.5" width="90" height="40" as="geometry" />
        </mxCell>
        <mxCell id="aUg-6YMT8PlGPVR0eo5o-135" value="FileURL" style="ellipse;whiteSpace=wrap;html=1;" vertex="1" parent="1">
          <mxGeometry x="5534.5" y="2391.5" width="90" height="40" as="geometry" />
        </mxCell>
        <mxCell id="aUg-6YMT8PlGPVR0eo5o-136" value="Score" style="ellipse;whiteSpace=wrap;html=1;" vertex="1" parent="1">
          <mxGeometry x="5489.5" y="2529" width="90" height="35" as="geometry" />
        </mxCell>
        <mxCell id="aUg-6YMT8PlGPVR0eo5o-137" value="Feedback" style="ellipse;whiteSpace=wrap;html=1;" vertex="1" parent="1">
          <mxGeometry x="5594.5" y="2566.5" width="80" height="37" as="geometry" />
        </mxCell>
        <mxCell id="aUg-6YMT8PlGPVR0eo5o-138" value="" style="endArrow=none;html=1;rounded=0;entryX=0.639;entryY=0.957;entryDx=0;entryDy=0;entryPerimeter=0;exitX=0.286;exitY=-0.016;exitDx=0;exitDy=0;exitPerimeter=0;" edge="1" parent="1" source="aUg-6YMT8PlGPVR0eo5o-130" target="aUg-6YMT8PlGPVR0eo5o-131">
          <mxGeometry width="50" height="50" relative="1" as="geometry">
            <mxPoint x="5664.5" y="2428.5" as="sourcePoint" />
            <mxPoint x="5714.5" y="2378.5" as="targetPoint" />
          </mxGeometry>
        </mxCell>
        <mxCell id="aUg-6YMT8PlGPVR0eo5o-139" value="" style="endArrow=none;html=1;rounded=0;entryX=0.446;entryY=1.037;entryDx=0;entryDy=0;entryPerimeter=0;exitX=0.569;exitY=-0.032;exitDx=0;exitDy=0;exitPerimeter=0;" edge="1" parent="1" source="aUg-6YMT8PlGPVR0eo5o-130" target="aUg-6YMT8PlGPVR0eo5o-132">
          <mxGeometry width="50" height="50" relative="1" as="geometry">
            <mxPoint x="5704.5" y="2438.5" as="sourcePoint" />
            <mxPoint x="5754.5" y="2388.5" as="targetPoint" />
          </mxGeometry>
        </mxCell>
        <mxCell id="aUg-6YMT8PlGPVR0eo5o-140" value="" style="endArrow=none;html=1;rounded=0;exitX=0.781;exitY=0.021;exitDx=0;exitDy=0;exitPerimeter=0;" edge="1" parent="1" source="aUg-6YMT8PlGPVR0eo5o-130" target="aUg-6YMT8PlGPVR0eo5o-133">
          <mxGeometry width="50" height="50" relative="1" as="geometry">
            <mxPoint x="5774.5" y="2428.5" as="sourcePoint" />
            <mxPoint x="5824.5" y="2378.5" as="targetPoint" />
          </mxGeometry>
        </mxCell>
        <mxCell id="aUg-6YMT8PlGPVR0eo5o-141" value="" style="endArrow=none;html=1;rounded=0;exitX=1.004;exitY=0.589;exitDx=0;exitDy=0;exitPerimeter=0;" edge="1" parent="1" source="aUg-6YMT8PlGPVR0eo5o-130" target="aUg-6YMT8PlGPVR0eo5o-134">
          <mxGeometry width="50" height="50" relative="1" as="geometry">
            <mxPoint x="5794.5" y="2478.5" as="sourcePoint" />
            <mxPoint x="5844.5" y="2428.5" as="targetPoint" />
          </mxGeometry>
        </mxCell>
        <mxCell id="aUg-6YMT8PlGPVR0eo5o-142" value="" style="endArrow=none;html=1;rounded=0;entryX=0;entryY=0.5;entryDx=0;entryDy=0;exitX=0.889;exitY=0.875;exitDx=0;exitDy=0;exitPerimeter=0;" edge="1" parent="1" source="aUg-6YMT8PlGPVR0eo5o-135" target="aUg-6YMT8PlGPVR0eo5o-130">
          <mxGeometry width="50" height="50" relative="1" as="geometry">
            <mxPoint x="5604.5" y="2498.5" as="sourcePoint" />
            <mxPoint x="5654.5" y="2448.5" as="targetPoint" />
          </mxGeometry>
        </mxCell>
        <mxCell id="aUg-6YMT8PlGPVR0eo5o-143" value="" style="endArrow=none;html=1;rounded=0;entryX=0.021;entryY=0.657;entryDx=0;entryDy=0;entryPerimeter=0;exitX=0.756;exitY=0.171;exitDx=0;exitDy=0;exitPerimeter=0;" edge="1" parent="1" source="aUg-6YMT8PlGPVR0eo5o-136" target="aUg-6YMT8PlGPVR0eo5o-130">
          <mxGeometry width="50" height="50" relative="1" as="geometry">
            <mxPoint x="5594.5" y="2508.5" as="sourcePoint" />
            <mxPoint x="5644.5" y="2458.5" as="targetPoint" />
          </mxGeometry>
        </mxCell>
        <mxCell id="aUg-6YMT8PlGPVR0eo5o-144" value="" style="endArrow=none;html=1;rounded=0;entryX=0.002;entryY=0.853;entryDx=0;entryDy=0;entryPerimeter=0;exitX=0.618;exitY=0.062;exitDx=0;exitDy=0;exitPerimeter=0;" edge="1" parent="1" source="aUg-6YMT8PlGPVR0eo5o-137" target="aUg-6YMT8PlGPVR0eo5o-130">
          <mxGeometry width="50" height="50" relative="1" as="geometry">
            <mxPoint x="5614.5" y="2528.5" as="sourcePoint" />
            <mxPoint x="5664.5" y="2478.5" as="targetPoint" />
          </mxGeometry>
        </mxCell>
        <mxCell id="aUg-6YMT8PlGPVR0eo5o-145" value="Quizzes" style="rounded=0;whiteSpace=wrap;html=1;" vertex="1" parent="1">
          <mxGeometry x="5057" y="3482.5" width="120" height="60" as="geometry" />
        </mxCell>
        <mxCell id="aUg-6YMT8PlGPVR0eo5o-146" value="&lt;u&gt;QuizID&lt;/u&gt;" style="ellipse;whiteSpace=wrap;html=1;" vertex="1" parent="1">
          <mxGeometry x="4897" y="3512.5" width="90" height="40" as="geometry" />
        </mxCell>
        <mxCell id="aUg-6YMT8PlGPVR0eo5o-147" value="LessonID" style="ellipse;whiteSpace=wrap;html=1;" vertex="1" parent="1">
          <mxGeometry x="4902" y="3447.5" width="90" height="35" as="geometry" />
        </mxCell>
        <mxCell id="aUg-6YMT8PlGPVR0eo5o-148" value="Title" style="ellipse;whiteSpace=wrap;html=1;" vertex="1" parent="1">
          <mxGeometry x="4922" y="3607.5" width="90" height="30" as="geometry" />
        </mxCell>
        <mxCell id="aUg-6YMT8PlGPVR0eo5o-149" value="TimeLimitSec" style="ellipse;whiteSpace=wrap;html=1;" vertex="1" parent="1">
          <mxGeometry x="5027" y="3612.5" width="110" height="40" as="geometry" />
        </mxCell>
        <mxCell id="aUg-6YMT8PlGPVR0eo5o-150" value="" style="endArrow=none;html=1;rounded=0;entryX=0.015;entryY=0.403;entryDx=0;entryDy=0;entryPerimeter=0;exitX=0.938;exitY=0.675;exitDx=0;exitDy=0;exitPerimeter=0;" edge="1" parent="1" source="aUg-6YMT8PlGPVR0eo5o-147" target="aUg-6YMT8PlGPVR0eo5o-145">
          <mxGeometry width="50" height="50" relative="1" as="geometry">
            <mxPoint x="4987" y="3502.5" as="sourcePoint" />
            <mxPoint x="5037" y="3452.5" as="targetPoint" />
          </mxGeometry>
        </mxCell>
        <mxCell id="aUg-6YMT8PlGPVR0eo5o-151" value="" style="endArrow=none;html=1;rounded=0;" edge="1" parent="1" source="aUg-6YMT8PlGPVR0eo5o-146" target="aUg-6YMT8PlGPVR0eo5o-145">
          <mxGeometry width="50" height="50" relative="1" as="geometry">
            <mxPoint x="4987" y="3572.5" as="sourcePoint" />
            <mxPoint x="5037" y="3522.5" as="targetPoint" />
          </mxGeometry>
        </mxCell>
        <mxCell id="aUg-6YMT8PlGPVR0eo5o-152" value="" style="endArrow=none;html=1;rounded=0;entryX=0.086;entryY=0.974;entryDx=0;entryDy=0;entryPerimeter=0;exitX=0.716;exitY=0.13;exitDx=0;exitDy=0;exitPerimeter=0;" edge="1" parent="1" source="aUg-6YMT8PlGPVR0eo5o-148" target="aUg-6YMT8PlGPVR0eo5o-145">
          <mxGeometry width="50" height="50" relative="1" as="geometry">
            <mxPoint x="4997" y="3602.5" as="sourcePoint" />
            <mxPoint x="5047" y="3552.5" as="targetPoint" />
          </mxGeometry>
        </mxCell>
        <mxCell id="aUg-6YMT8PlGPVR0eo5o-153" value="" style="endArrow=none;html=1;rounded=0;entryX=0.452;entryY=0.985;entryDx=0;entryDy=0;entryPerimeter=0;exitX=0.554;exitY=0.077;exitDx=0;exitDy=0;exitPerimeter=0;" edge="1" parent="1" source="aUg-6YMT8PlGPVR0eo5o-149" target="aUg-6YMT8PlGPVR0eo5o-145">
          <mxGeometry width="50" height="50" relative="1" as="geometry">
            <mxPoint x="5077" y="3602.5" as="sourcePoint" />
            <mxPoint x="5127" y="3552.5" as="targetPoint" />
          </mxGeometry>
        </mxCell>
        <mxCell id="aUg-6YMT8PlGPVR0eo5o-154" value="QuizQuestions" style="rounded=0;whiteSpace=wrap;html=1;" vertex="1" parent="1">
          <mxGeometry x="5704.5" y="3787.5" width="120" height="60" as="geometry" />
        </mxCell>
        <mxCell id="aUg-6YMT8PlGPVR0eo5o-155" value="&lt;u&gt;QuestionID&lt;/u&gt;" style="ellipse;whiteSpace=wrap;html=1;" vertex="1" parent="1">
          <mxGeometry x="5599.5" y="3682.5" width="95" height="40" as="geometry" />
        </mxCell>
        <mxCell id="aUg-6YMT8PlGPVR0eo5o-156" value="QuizID" style="ellipse;whiteSpace=wrap;html=1;" vertex="1" parent="1">
          <mxGeometry x="5724.5" y="3687.5" width="90" height="30" as="geometry" />
        </mxCell>
        <mxCell id="aUg-6YMT8PlGPVR0eo5o-157" value="QuestionTxt" style="ellipse;whiteSpace=wrap;html=1;" vertex="1" parent="1">
          <mxGeometry x="5844.5" y="3687.5" width="80" height="40" as="geometry" />
        </mxCell>
        <mxCell id="aUg-6YMT8PlGPVR0eo5o-158" value="QuestionType" style="ellipse;whiteSpace=wrap;html=1;" vertex="1" parent="1">
          <mxGeometry x="5564.5" y="3927.5" width="100" height="40" as="geometry" />
        </mxCell>
        <mxCell id="aUg-6YMT8PlGPVR0eo5o-159" value="OrderIndex" style="ellipse;whiteSpace=wrap;html=1;" vertex="1" parent="1">
          <mxGeometry x="5789.5" y="3907.5" width="90" height="40" as="geometry" />
        </mxCell>
        <mxCell id="aUg-6YMT8PlGPVR0eo5o-160" value="" style="endArrow=none;html=1;rounded=0;entryX=0.606;entryY=0.994;entryDx=0;entryDy=0;entryPerimeter=0;exitX=0.214;exitY=0.033;exitDx=0;exitDy=0;exitPerimeter=0;" edge="1" parent="1" source="aUg-6YMT8PlGPVR0eo5o-154" target="aUg-6YMT8PlGPVR0eo5o-155">
          <mxGeometry width="50" height="50" relative="1" as="geometry">
            <mxPoint x="5664.5" y="3777.5" as="sourcePoint" />
            <mxPoint x="5714.5" y="3727.5" as="targetPoint" />
          </mxGeometry>
        </mxCell>
        <mxCell id="aUg-6YMT8PlGPVR0eo5o-161" value="" style="endArrow=none;html=1;rounded=0;entryX=0.5;entryY=1;entryDx=0;entryDy=0;exitX=0.5;exitY=0;exitDx=0;exitDy=0;" edge="1" parent="1" source="aUg-6YMT8PlGPVR0eo5o-154" target="aUg-6YMT8PlGPVR0eo5o-156">
          <mxGeometry width="50" height="50" relative="1" as="geometry">
            <mxPoint x="5744.5" y="3787.5" as="sourcePoint" />
            <mxPoint x="5794.5" y="3737.5" as="targetPoint" />
          </mxGeometry>
        </mxCell>
        <mxCell id="aUg-6YMT8PlGPVR0eo5o-162" value="" style="endArrow=none;html=1;rounded=0;entryX=0.34;entryY=0.934;entryDx=0;entryDy=0;entryPerimeter=0;exitX=0.801;exitY=0.055;exitDx=0;exitDy=0;exitPerimeter=0;" edge="1" parent="1" source="aUg-6YMT8PlGPVR0eo5o-154" target="aUg-6YMT8PlGPVR0eo5o-157">
          <mxGeometry width="50" height="50" relative="1" as="geometry">
            <mxPoint x="5794.5" y="3787.5" as="sourcePoint" />
            <mxPoint x="5844.5" y="3737.5" as="targetPoint" />
          </mxGeometry>
        </mxCell>
        <mxCell id="aUg-6YMT8PlGPVR0eo5o-163" value="" style="endArrow=none;html=1;rounded=0;entryX=0;entryY=0.5;entryDx=0;entryDy=0;exitX=0.974;exitY=0.728;exitDx=0;exitDy=0;exitPerimeter=0;" edge="1" parent="1" source="aUg-6YMT8PlGPVR0eo5o-158" target="aUg-6YMT8PlGPVR0eo5o-154">
          <mxGeometry width="50" height="50" relative="1" as="geometry">
            <mxPoint x="5614.5" y="3837.5" as="sourcePoint" />
            <mxPoint x="5664.5" y="3787.5" as="targetPoint" />
          </mxGeometry>
        </mxCell>
        <mxCell id="aUg-6YMT8PlGPVR0eo5o-164" value="" style="endArrow=none;html=1;rounded=0;" edge="1" parent="1" source="aUg-6YMT8PlGPVR0eo5o-159" target="aUg-6YMT8PlGPVR0eo5o-154">
          <mxGeometry width="50" height="50" relative="1" as="geometry">
            <mxPoint x="5624.5" y="3877.5" as="sourcePoint" />
            <mxPoint x="5674.5" y="3827.5" as="targetPoint" />
          </mxGeometry>
        </mxCell>
        <mxCell id="aUg-6YMT8PlGPVR0eo5o-165" value="QuizOptions" style="rounded=0;whiteSpace=wrap;html=1;" vertex="1" parent="1">
          <mxGeometry x="5029.5" y="3807.5" width="120" height="60" as="geometry" />
        </mxCell>
        <mxCell id="aUg-6YMT8PlGPVR0eo5o-166" value="&lt;u&gt;OptionID&lt;/u&gt;" style="ellipse;whiteSpace=wrap;html=1;" vertex="1" parent="1">
          <mxGeometry x="4864.5" y="3847.5" width="100" height="50" as="geometry" />
        </mxCell>
        <mxCell id="aUg-6YMT8PlGPVR0eo5o-167" value="QuestionID" style="ellipse;whiteSpace=wrap;html=1;" vertex="1" parent="1">
          <mxGeometry x="4874.5" y="3927.5" width="90" height="40" as="geometry" />
        </mxCell>
        <mxCell id="aUg-6YMT8PlGPVR0eo5o-168" value="OptionText" style="ellipse;whiteSpace=wrap;html=1;" vertex="1" parent="1">
          <mxGeometry x="4999.5" y="3937.5" width="100" height="40" as="geometry" />
        </mxCell>
        <mxCell id="aUg-6YMT8PlGPVR0eo5o-169" value="IsCorrect" style="ellipse;whiteSpace=wrap;html=1;" vertex="1" parent="1">
          <mxGeometry x="5169.5" y="3922.5" width="90" height="50" as="geometry" />
        </mxCell>
        <mxCell id="aUg-6YMT8PlGPVR0eo5o-170" value="" style="endArrow=none;html=1;rounded=0;entryX=0.008;entryY=0.611;entryDx=0;entryDy=0;entryPerimeter=0;exitX=0.956;exitY=0.638;exitDx=0;exitDy=0;exitPerimeter=0;" edge="1" parent="1" source="aUg-6YMT8PlGPVR0eo5o-166" target="aUg-6YMT8PlGPVR0eo5o-165">
          <mxGeometry width="50" height="50" relative="1" as="geometry">
            <mxPoint x="4969.5" y="3917.5" as="sourcePoint" />
            <mxPoint x="5019.5" y="3867.5" as="targetPoint" />
          </mxGeometry>
        </mxCell>
        <mxCell id="aUg-6YMT8PlGPVR0eo5o-171" value="" style="endArrow=none;html=1;rounded=0;entryX=0.059;entryY=0.974;entryDx=0;entryDy=0;entryPerimeter=0;exitX=0.665;exitY=0.089;exitDx=0;exitDy=0;exitPerimeter=0;" edge="1" parent="1" source="aUg-6YMT8PlGPVR0eo5o-167" target="aUg-6YMT8PlGPVR0eo5o-165">
          <mxGeometry width="50" height="50" relative="1" as="geometry">
            <mxPoint x="4969.5" y="3927.5" as="sourcePoint" />
            <mxPoint x="5019.5" y="3877.5" as="targetPoint" />
          </mxGeometry>
        </mxCell>
        <mxCell id="aUg-6YMT8PlGPVR0eo5o-172" value="" style="endArrow=none;html=1;rounded=0;entryX=0.427;entryY=1.03;entryDx=0;entryDy=0;entryPerimeter=0;exitX=0.604;exitY=0.089;exitDx=0;exitDy=0;exitPerimeter=0;" edge="1" parent="1" source="aUg-6YMT8PlGPVR0eo5o-168" target="aUg-6YMT8PlGPVR0eo5o-165">
          <mxGeometry width="50" height="50" relative="1" as="geometry">
            <mxPoint x="5059.5" y="3927.5" as="sourcePoint" />
            <mxPoint x="5109.5" y="3877.5" as="targetPoint" />
          </mxGeometry>
        </mxCell>
        <mxCell id="aUg-6YMT8PlGPVR0eo5o-173" value="" style="endArrow=none;html=1;rounded=0;entryX=0.236;entryY=0.074;entryDx=0;entryDy=0;entryPerimeter=0;exitX=0.711;exitY=1.005;exitDx=0;exitDy=0;exitPerimeter=0;" edge="1" parent="1" source="aUg-6YMT8PlGPVR0eo5o-165" target="aUg-6YMT8PlGPVR0eo5o-169">
          <mxGeometry width="50" height="50" relative="1" as="geometry">
            <mxPoint x="5084.5" y="3922.5" as="sourcePoint" />
            <mxPoint x="5134.5" y="3872.5" as="targetPoint" />
          </mxGeometry>
        </mxCell>
        <mxCell id="aUg-6YMT8PlGPVR0eo5o-174" value="QuizAttempts" style="rounded=0;whiteSpace=wrap;html=1;" vertex="1" parent="1">
          <mxGeometry x="5674.5" y="3397.5" width="120" height="60" as="geometry" />
        </mxCell>
        <mxCell id="aUg-6YMT8PlGPVR0eo5o-175" value="&lt;u&gt;AttemptID&lt;/u&gt;" style="ellipse;whiteSpace=wrap;html=1;" vertex="1" parent="1">
          <mxGeometry x="5594.5" y="3295" width="110" height="40" as="geometry" />
        </mxCell>
        <mxCell id="aUg-6YMT8PlGPVR0eo5o-176" value="QuizID" style="ellipse;whiteSpace=wrap;html=1;" vertex="1" parent="1">
          <mxGeometry x="5729.5" y="3292.5" width="80" height="40" as="geometry" />
        </mxCell>
        <mxCell id="aUg-6YMT8PlGPVR0eo5o-177" value="StudentID" style="ellipse;whiteSpace=wrap;html=1;" vertex="1" parent="1">
          <mxGeometry x="5849.5" y="3295" width="80" height="40" as="geometry" />
        </mxCell>
        <mxCell id="aUg-6YMT8PlGPVR0eo5o-178" value="StartedAt" style="ellipse;whiteSpace=wrap;html=1;" vertex="1" parent="1">
          <mxGeometry x="5859.5" y="3367.5" width="80" height="40" as="geometry" />
        </mxCell>
        <mxCell id="aUg-6YMT8PlGPVR0eo5o-179" value="FinishedAt" style="ellipse;whiteSpace=wrap;html=1;" vertex="1" parent="1">
          <mxGeometry x="5874.5" y="3447.5" width="90" height="40" as="geometry" />
        </mxCell>
        <mxCell id="aUg-6YMT8PlGPVR0eo5o-180" value="Score" style="ellipse;whiteSpace=wrap;html=1;" vertex="1" parent="1">
          <mxGeometry x="5684.5" y="3502.5" width="100" height="40" as="geometry" />
        </mxCell>
        <mxCell id="aUg-6YMT8PlGPVR0eo5o-181" value="" style="endArrow=none;html=1;rounded=0;entryX=0.505;entryY=0.928;entryDx=0;entryDy=0;entryPerimeter=0;exitX=0.17;exitY=0;exitDx=0;exitDy=0;exitPerimeter=0;" edge="1" parent="1" source="aUg-6YMT8PlGPVR0eo5o-174" target="aUg-6YMT8PlGPVR0eo5o-175">
          <mxGeometry width="50" height="50" relative="1" as="geometry">
            <mxPoint x="5604.5" y="3417.5" as="sourcePoint" />
            <mxPoint x="5654.5" y="3367.5" as="targetPoint" />
          </mxGeometry>
        </mxCell>
        <mxCell id="aUg-6YMT8PlGPVR0eo5o-182" value="" style="endArrow=none;html=1;rounded=0;entryX=0.443;entryY=0.944;entryDx=0;entryDy=0;entryPerimeter=0;exitX=0.638;exitY=0.008;exitDx=0;exitDy=0;exitPerimeter=0;" edge="1" parent="1" source="aUg-6YMT8PlGPVR0eo5o-174" target="aUg-6YMT8PlGPVR0eo5o-176">
          <mxGeometry width="50" height="50" relative="1" as="geometry">
            <mxPoint x="5714.5" y="3387.5" as="sourcePoint" />
            <mxPoint x="5764.5" y="3337.5" as="targetPoint" />
          </mxGeometry>
        </mxCell>
        <mxCell id="aUg-6YMT8PlGPVR0eo5o-183" value="" style="endArrow=none;html=1;rounded=0;entryX=0.211;entryY=0.89;entryDx=0;entryDy=0;entryPerimeter=0;" edge="1" parent="1" source="aUg-6YMT8PlGPVR0eo5o-174" target="aUg-6YMT8PlGPVR0eo5o-177">
          <mxGeometry width="50" height="50" relative="1" as="geometry">
            <mxPoint x="5774.5" y="3387.5" as="sourcePoint" />
            <mxPoint x="5824.5" y="3337.5" as="targetPoint" />
          </mxGeometry>
        </mxCell>
        <mxCell id="aUg-6YMT8PlGPVR0eo5o-184" value="" style="endArrow=none;html=1;rounded=0;exitX=1.015;exitY=0.332;exitDx=0;exitDy=0;exitPerimeter=0;" edge="1" parent="1" source="aUg-6YMT8PlGPVR0eo5o-174" target="aUg-6YMT8PlGPVR0eo5o-178">
          <mxGeometry width="50" height="50" relative="1" as="geometry">
            <mxPoint x="5794.5" y="3427.5" as="sourcePoint" />
            <mxPoint x="5844.5" y="3377.5" as="targetPoint" />
          </mxGeometry>
        </mxCell>
        <mxCell id="aUg-6YMT8PlGPVR0eo5o-185" value="" style="endArrow=none;html=1;rounded=0;exitX=1.012;exitY=0.651;exitDx=0;exitDy=0;exitPerimeter=0;" edge="1" parent="1" source="aUg-6YMT8PlGPVR0eo5o-174" target="aUg-6YMT8PlGPVR0eo5o-179">
          <mxGeometry width="50" height="50" relative="1" as="geometry">
            <mxPoint x="5784.5" y="3487.5" as="sourcePoint" />
            <mxPoint x="5834.5" y="3437.5" as="targetPoint" />
          </mxGeometry>
        </mxCell>
        <mxCell id="aUg-6YMT8PlGPVR0eo5o-186" value="" style="endArrow=none;html=1;rounded=0;entryX=0.454;entryY=0.994;entryDx=0;entryDy=0;entryPerimeter=0;exitX=0.437;exitY=0.044;exitDx=0;exitDy=0;exitPerimeter=0;" edge="1" parent="1" source="aUg-6YMT8PlGPVR0eo5o-180" target="aUg-6YMT8PlGPVR0eo5o-174">
          <mxGeometry width="50" height="50" relative="1" as="geometry">
            <mxPoint x="5664.5" y="3507.5" as="sourcePoint" />
            <mxPoint x="5714.5" y="3457.5" as="targetPoint" />
          </mxGeometry>
        </mxCell>
        <mxCell id="aUg-6YMT8PlGPVR0eo5o-187" value="LiveSessions" style="rounded=0;whiteSpace=wrap;html=1;" vertex="1" parent="1">
          <mxGeometry x="2524.5" y="3115.25" width="120" height="60" as="geometry" />
        </mxCell>
        <mxCell id="aUg-6YMT8PlGPVR0eo5o-188" value="&lt;u&gt;SessionID&lt;/u&gt;" style="ellipse;whiteSpace=wrap;html=1;" vertex="1" parent="1">
          <mxGeometry x="2371" y="3039.5" width="90" height="52.5" as="geometry" />
        </mxCell>
        <mxCell id="aUg-6YMT8PlGPVR0eo5o-189" value="CourseID" style="ellipse;whiteSpace=wrap;html=1;" vertex="1" parent="1">
          <mxGeometry x="2324.5" y="3120.25" width="90" height="50" as="geometry" />
        </mxCell>
        <mxCell id="aUg-6YMT8PlGPVR0eo5o-190" value="Title" style="ellipse;whiteSpace=wrap;html=1;" vertex="1" parent="1">
          <mxGeometry x="2332" y="3207.75" width="75" height="37" as="geometry" />
        </mxCell>
        <mxCell id="aUg-6YMT8PlGPVR0eo5o-191" value="StartTime" style="ellipse;whiteSpace=wrap;html=1;" vertex="1" parent="1">
          <mxGeometry x="2387" y="3255.25" width="80" height="45" as="geometry" />
        </mxCell>
        <mxCell id="aUg-6YMT8PlGPVR0eo5o-192" value="EndTime" style="ellipse;whiteSpace=wrap;html=1;" vertex="1" parent="1">
          <mxGeometry x="2444.5" y="3282.5" width="80" height="50" as="geometry" />
        </mxCell>
        <mxCell id="aUg-6YMT8PlGPVR0eo5o-193" value="MeetingURL" style="ellipse;whiteSpace=wrap;html=1;" vertex="1" parent="1">
          <mxGeometry x="2674.5" y="3255.25" width="90" height="44" as="geometry" />
        </mxCell>
        <mxCell id="aUg-6YMT8PlGPVR0eo5o-194" value="CenterID" style="ellipse;whiteSpace=wrap;html=1;" vertex="1" parent="1">
          <mxGeometry x="2694.5" y="3168.25" width="100" height="50" as="geometry" />
        </mxCell>
        <mxCell id="aUg-6YMT8PlGPVR0eo5o-195" value="" style="endArrow=none;html=1;rounded=0;entryX=0.018;entryY=0.564;entryDx=0;entryDy=0;entryPerimeter=0;" edge="1" parent="1" source="aUg-6YMT8PlGPVR0eo5o-188" target="aUg-6YMT8PlGPVR0eo5o-187">
          <mxGeometry width="50" height="50" relative="1" as="geometry">
            <mxPoint x="2474.5" y="3195.25" as="sourcePoint" />
            <mxPoint x="2524.5" y="3145.25" as="targetPoint" />
          </mxGeometry>
        </mxCell>
        <mxCell id="aUg-6YMT8PlGPVR0eo5o-196" value="" style="endArrow=none;html=1;rounded=0;entryX=0.008;entryY=0.788;entryDx=0;entryDy=0;entryPerimeter=0;" edge="1" parent="1" source="aUg-6YMT8PlGPVR0eo5o-189" target="aUg-6YMT8PlGPVR0eo5o-187">
          <mxGeometry width="50" height="50" relative="1" as="geometry">
            <mxPoint x="2464.5" y="3215.25" as="sourcePoint" />
            <mxPoint x="2514.5" y="3165.25" as="targetPoint" />
          </mxGeometry>
        </mxCell>
        <mxCell id="aUg-6YMT8PlGPVR0eo5o-197" value="" style="endArrow=none;html=1;rounded=0;entryX=0.166;entryY=0.974;entryDx=0;entryDy=0;entryPerimeter=0;" edge="1" parent="1" source="aUg-6YMT8PlGPVR0eo5o-190" target="aUg-6YMT8PlGPVR0eo5o-187">
          <mxGeometry width="50" height="50" relative="1" as="geometry">
            <mxPoint x="2484.5" y="3225.25" as="sourcePoint" />
            <mxPoint x="2534.5" y="3175.25" as="targetPoint" />
          </mxGeometry>
        </mxCell>
        <mxCell id="aUg-6YMT8PlGPVR0eo5o-198" value="" style="endArrow=none;html=1;rounded=0;entryX=0.29;entryY=1.037;entryDx=0;entryDy=0;entryPerimeter=0;" edge="1" parent="1" source="aUg-6YMT8PlGPVR0eo5o-191" target="aUg-6YMT8PlGPVR0eo5o-187">
          <mxGeometry width="50" height="50" relative="1" as="geometry">
            <mxPoint x="2514.5" y="3255.25" as="sourcePoint" />
            <mxPoint x="2564.5" y="3205.25" as="targetPoint" />
          </mxGeometry>
        </mxCell>
        <mxCell id="aUg-6YMT8PlGPVR0eo5o-199" value="" style="endArrow=none;html=1;rounded=0;entryX=0.54;entryY=1.018;entryDx=0;entryDy=0;entryPerimeter=0;exitX=0.482;exitY=0.051;exitDx=0;exitDy=0;exitPerimeter=0;" edge="1" parent="1" source="aUg-6YMT8PlGPVR0eo5o-192" target="aUg-6YMT8PlGPVR0eo5o-187">
          <mxGeometry width="50" height="50" relative="1" as="geometry">
            <mxPoint x="2564.5" y="3245.25" as="sourcePoint" />
            <mxPoint x="2614.5" y="3195.25" as="targetPoint" />
          </mxGeometry>
        </mxCell>
        <mxCell id="aUg-6YMT8PlGPVR0eo5o-200" value="" style="endArrow=none;html=1;rounded=0;entryX=0.789;entryY=1.043;entryDx=0;entryDy=0;entryPerimeter=0;exitX=0.113;exitY=0.177;exitDx=0;exitDy=0;exitPerimeter=0;" edge="1" parent="1" source="aUg-6YMT8PlGPVR0eo5o-193" target="aUg-6YMT8PlGPVR0eo5o-187">
          <mxGeometry width="50" height="50" relative="1" as="geometry">
            <mxPoint x="2614.5" y="3245.25" as="sourcePoint" />
            <mxPoint x="2664.5" y="3195.25" as="targetPoint" />
          </mxGeometry>
        </mxCell>
        <mxCell id="aUg-6YMT8PlGPVR0eo5o-201" value="" style="endArrow=none;html=1;rounded=0;entryX=0.093;entryY=0.274;entryDx=0;entryDy=0;entryPerimeter=0;" edge="1" parent="1" source="aUg-6YMT8PlGPVR0eo5o-187" target="aUg-6YMT8PlGPVR0eo5o-194">
          <mxGeometry width="50" height="50" relative="1" as="geometry">
            <mxPoint x="2644.5" y="3205.25" as="sourcePoint" />
            <mxPoint x="2694.5" y="3155.25" as="targetPoint" />
          </mxGeometry>
        </mxCell>
        <mxCell id="aUg-6YMT8PlGPVR0eo5o-202" value="Attendance" style="rounded=0;whiteSpace=wrap;html=1;" vertex="1" parent="1">
          <mxGeometry x="2494.5" y="2802.5" width="120" height="60" as="geometry" />
        </mxCell>
        <mxCell id="aUg-6YMT8PlGPVR0eo5o-203" value="&lt;u&gt;AttendanceID&lt;/u&gt;" style="ellipse;whiteSpace=wrap;html=1;" vertex="1" parent="1">
          <mxGeometry x="2365" y="2670" width="102" height="47" as="geometry" />
        </mxCell>
        <mxCell id="aUg-6YMT8PlGPVR0eo5o-204" value="SessionID" style="ellipse;whiteSpace=wrap;html=1;" vertex="1" parent="1">
          <mxGeometry x="2614.5" y="2652.5" width="90" height="47" as="geometry" />
        </mxCell>
        <mxCell id="aUg-6YMT8PlGPVR0eo5o-205" value="StudentID" style="ellipse;whiteSpace=wrap;html=1;" vertex="1" parent="1">
          <mxGeometry x="2282.5" y="2761" width="102" height="44" as="geometry" />
        </mxCell>
        <mxCell id="aUg-6YMT8PlGPVR0eo5o-206" value="Status" style="ellipse;whiteSpace=wrap;html=1;" vertex="1" parent="1">
          <mxGeometry x="2280" y="2840.5" width="102" height="40" as="geometry" />
        </mxCell>
        <mxCell id="aUg-6YMT8PlGPVR0eo5o-207" value="RecordedAt" style="ellipse;whiteSpace=wrap;html=1;" vertex="1" parent="1">
          <mxGeometry x="2649.5" y="2743" width="90" height="37" as="geometry" />
        </mxCell>
        <mxCell id="aUg-6YMT8PlGPVR0eo5o-208" value="" style="endArrow=none;html=1;rounded=0;entryX=0.4;entryY=0.004;entryDx=0;entryDy=0;entryPerimeter=0;exitX=0.799;exitY=0.868;exitDx=0;exitDy=0;exitPerimeter=0;" edge="1" parent="1" source="aUg-6YMT8PlGPVR0eo5o-203" target="aUg-6YMT8PlGPVR0eo5o-202">
          <mxGeometry width="50" height="50" relative="1" as="geometry">
            <mxPoint x="2484.5" y="2795" as="sourcePoint" />
            <mxPoint x="2534.5" y="2745" as="targetPoint" />
          </mxGeometry>
        </mxCell>
        <mxCell id="aUg-6YMT8PlGPVR0eo5o-209" value="" style="endArrow=none;html=1;rounded=0;entryX=0.011;entryY=0.418;entryDx=0;entryDy=0;entryPerimeter=0;exitX=0.921;exitY=0.717;exitDx=0;exitDy=0;exitPerimeter=0;" edge="1" parent="1" source="aUg-6YMT8PlGPVR0eo5o-205" target="aUg-6YMT8PlGPVR0eo5o-202">
          <mxGeometry width="50" height="50" relative="1" as="geometry">
            <mxPoint x="2394.5" y="2815" as="sourcePoint" />
            <mxPoint x="2444.5" y="2765" as="targetPoint" />
          </mxGeometry>
        </mxCell>
        <mxCell id="aUg-6YMT8PlGPVR0eo5o-210" value="" style="endArrow=none;html=1;rounded=0;entryX=0.023;entryY=0.833;entryDx=0;entryDy=0;entryPerimeter=0;" edge="1" parent="1" source="aUg-6YMT8PlGPVR0eo5o-206" target="aUg-6YMT8PlGPVR0eo5o-202">
          <mxGeometry width="50" height="50" relative="1" as="geometry">
            <mxPoint x="2404.5" y="2865" as="sourcePoint" />
            <mxPoint x="2454.5" y="2815" as="targetPoint" />
          </mxGeometry>
        </mxCell>
        <mxCell id="aUg-6YMT8PlGPVR0eo5o-211" value="" style="endArrow=none;html=1;rounded=0;entryX=0.546;entryY=1.011;entryDx=0;entryDy=0;entryPerimeter=0;exitX=0.582;exitY=0.046;exitDx=0;exitDy=0;exitPerimeter=0;" edge="1" parent="1" source="aUg-6YMT8PlGPVR0eo5o-202" target="aUg-6YMT8PlGPVR0eo5o-204">
          <mxGeometry width="50" height="50" relative="1" as="geometry">
            <mxPoint x="2564.5" y="2795" as="sourcePoint" />
            <mxPoint x="2614.5" y="2745" as="targetPoint" />
          </mxGeometry>
        </mxCell>
        <mxCell id="aUg-6YMT8PlGPVR0eo5o-212" value="" style="endArrow=none;html=1;rounded=0;entryX=0;entryY=1;entryDx=0;entryDy=0;exitX=0.832;exitY=-0.022;exitDx=0;exitDy=0;exitPerimeter=0;" edge="1" parent="1" source="aUg-6YMT8PlGPVR0eo5o-202" target="aUg-6YMT8PlGPVR0eo5o-207">
          <mxGeometry width="50" height="50" relative="1" as="geometry">
            <mxPoint x="2594.5" y="2795" as="sourcePoint" />
            <mxPoint x="2644.5" y="2745" as="targetPoint" />
          </mxGeometry>
        </mxCell>
        <mxCell id="aUg-6YMT8PlGPVR0eo5o-213" value="Invoices" style="rounded=0;whiteSpace=wrap;html=1;" vertex="1" parent="1">
          <mxGeometry x="4384.5" y="2861" width="120" height="60" as="geometry" />
        </mxCell>
        <mxCell id="aUg-6YMT8PlGPVR0eo5o-214" value="&lt;u&gt;InvoiceID&lt;/u&gt;" style="ellipse;whiteSpace=wrap;html=1;" vertex="1" parent="1">
          <mxGeometry x="4217" y="2786" width="130" height="50" as="geometry" />
        </mxCell>
        <mxCell id="aUg-6YMT8PlGPVR0eo5o-215" value="StudentID" style="ellipse;whiteSpace=wrap;html=1;" vertex="1" parent="1">
          <mxGeometry x="4204.5" y="2864" width="110" height="45" as="geometry" />
        </mxCell>
        <mxCell id="aUg-6YMT8PlGPVR0eo5o-216" value="InvoiceDate" style="ellipse;whiteSpace=wrap;html=1;" vertex="1" parent="1">
          <mxGeometry x="4399.5" y="2752.5" width="120" height="50" as="geometry" />
        </mxCell>
        <mxCell id="aUg-6YMT8PlGPVR0eo5o-217" value="TotalAmount" style="ellipse;whiteSpace=wrap;html=1;" vertex="1" parent="1">
          <mxGeometry x="4514.5" y="2762" width="120" height="45" as="geometry" />
        </mxCell>
        <mxCell id="aUg-6YMT8PlGPVR0eo5o-218" value="Status" style="ellipse;whiteSpace=wrap;html=1;" vertex="1" parent="1">
          <mxGeometry x="4524.5" y="2920.25" width="110" height="40" as="geometry" />
        </mxCell>
        <mxCell id="aUg-6YMT8PlGPVR0eo5o-219" value="" style="endArrow=none;html=1;rounded=0;" edge="1" parent="1" source="aUg-6YMT8PlGPVR0eo5o-215" target="aUg-6YMT8PlGPVR0eo5o-213">
          <mxGeometry width="50" height="50" relative="1" as="geometry">
            <mxPoint x="4264.5" y="2915" as="sourcePoint" />
            <mxPoint x="4314.5" y="2865" as="targetPoint" />
          </mxGeometry>
        </mxCell>
        <mxCell id="aUg-6YMT8PlGPVR0eo5o-220" value="" style="endArrow=none;html=1;rounded=0;entryX=0.648;entryY=0.959;entryDx=0;entryDy=0;entryPerimeter=0;exitX=0.161;exitY=0.011;exitDx=0;exitDy=0;exitPerimeter=0;" edge="1" parent="1" source="aUg-6YMT8PlGPVR0eo5o-213" target="aUg-6YMT8PlGPVR0eo5o-214">
          <mxGeometry width="50" height="50" relative="1" as="geometry">
            <mxPoint x="4314.5" y="2855" as="sourcePoint" />
            <mxPoint x="4364.5" y="2805" as="targetPoint" />
          </mxGeometry>
        </mxCell>
        <mxCell id="aUg-6YMT8PlGPVR0eo5o-221" value="" style="endArrow=none;html=1;rounded=0;entryX=0.377;entryY=0.965;entryDx=0;entryDy=0;entryPerimeter=0;exitX=0.583;exitY=0.067;exitDx=0;exitDy=0;exitPerimeter=0;" edge="1" parent="1" source="aUg-6YMT8PlGPVR0eo5o-213" target="aUg-6YMT8PlGPVR0eo5o-216">
          <mxGeometry width="50" height="50" relative="1" as="geometry">
            <mxPoint x="4414.5" y="2865" as="sourcePoint" />
            <mxPoint x="4464.5" y="2815" as="targetPoint" />
          </mxGeometry>
        </mxCell>
        <mxCell id="aUg-6YMT8PlGPVR0eo5o-222" value="" style="endArrow=none;html=1;rounded=0;exitX=1.001;exitY=0.416;exitDx=0;exitDy=0;exitPerimeter=0;" edge="1" parent="1" source="aUg-6YMT8PlGPVR0eo5o-213" target="aUg-6YMT8PlGPVR0eo5o-217">
          <mxGeometry width="50" height="50" relative="1" as="geometry">
            <mxPoint x="4504.5" y="2925" as="sourcePoint" />
            <mxPoint x="4554.5" y="2875" as="targetPoint" />
          </mxGeometry>
        </mxCell>
        <mxCell id="aUg-6YMT8PlGPVR0eo5o-223" value="" style="endArrow=none;html=1;rounded=0;entryX=-0.001;entryY=0.333;entryDx=0;entryDy=0;entryPerimeter=0;" edge="1" parent="1" source="aUg-6YMT8PlGPVR0eo5o-213" target="aUg-6YMT8PlGPVR0eo5o-218">
          <mxGeometry width="50" height="50" relative="1" as="geometry">
            <mxPoint x="4484.5" y="2965" as="sourcePoint" />
            <mxPoint x="4534.5" y="2915" as="targetPoint" />
          </mxGeometry>
        </mxCell>
        <mxCell id="aUg-6YMT8PlGPVR0eo5o-224" value="Payments" style="rounded=0;whiteSpace=wrap;html=1;" vertex="1" parent="1">
          <mxGeometry x="4434.5" y="3207.75" width="120" height="60" as="geometry" />
        </mxCell>
        <mxCell id="aUg-6YMT8PlGPVR0eo5o-225" value="PaymentID" style="ellipse;whiteSpace=wrap;html=1;" vertex="1" parent="1">
          <mxGeometry x="4229.5" y="3229" width="105" height="47" as="geometry" />
        </mxCell>
        <mxCell id="aUg-6YMT8PlGPVR0eo5o-226" value="InvoiceID" style="ellipse;whiteSpace=wrap;html=1;" vertex="1" parent="1">
          <mxGeometry x="4264.5" y="3167.75" width="110" height="40" as="geometry" />
        </mxCell>
        <mxCell id="aUg-6YMT8PlGPVR0eo5o-227" value="PaidAmount" style="ellipse;whiteSpace=wrap;html=1;" vertex="1" parent="1">
          <mxGeometry x="4249.5" y="3310.25" width="100" height="40" as="geometry" />
        </mxCell>
        <mxCell id="aUg-6YMT8PlGPVR0eo5o-228" value="PaymentDate" style="ellipse;whiteSpace=wrap;html=1;" vertex="1" parent="1">
          <mxGeometry x="4384.5" y="3322.5" width="110" height="44" as="geometry" />
        </mxCell>
        <mxCell id="aUg-6YMT8PlGPVR0eo5o-229" value="PaymentMethod" style="ellipse;whiteSpace=wrap;html=1;" vertex="1" parent="1">
          <mxGeometry x="4528.5" y="3316.5" width="100" height="51" as="geometry" />
        </mxCell>
        <mxCell id="aUg-6YMT8PlGPVR0eo5o-230" value="TransactionRef" style="ellipse;whiteSpace=wrap;html=1;" vertex="1" parent="1">
          <mxGeometry x="4604.5" y="3217.75" width="110" height="50" as="geometry" />
        </mxCell>
        <mxCell id="aUg-6YMT8PlGPVR0eo5o-231" value="" style="endArrow=none;html=1;rounded=0;entryX=-0.002;entryY=0.43;entryDx=0;entryDy=0;entryPerimeter=0;exitX=0.956;exitY=0.684;exitDx=0;exitDy=0;exitPerimeter=0;" edge="1" parent="1" source="aUg-6YMT8PlGPVR0eo5o-226" target="aUg-6YMT8PlGPVR0eo5o-224">
          <mxGeometry width="50" height="50" relative="1" as="geometry">
            <mxPoint x="4344.5" y="3222.75" as="sourcePoint" />
            <mxPoint x="4394.5" y="3172.75" as="targetPoint" />
          </mxGeometry>
        </mxCell>
        <mxCell id="aUg-6YMT8PlGPVR0eo5o-232" value="" style="endArrow=none;html=1;rounded=0;entryX=0.029;entryY=0.683;entryDx=0;entryDy=0;entryPerimeter=0;exitX=0.983;exitY=0.385;exitDx=0;exitDy=0;exitPerimeter=0;" edge="1" parent="1" source="aUg-6YMT8PlGPVR0eo5o-225" target="aUg-6YMT8PlGPVR0eo5o-224">
          <mxGeometry width="50" height="50" relative="1" as="geometry">
            <mxPoint x="4344.5" y="3282.75" as="sourcePoint" />
            <mxPoint x="4394.5" y="3232.75" as="targetPoint" />
          </mxGeometry>
        </mxCell>
        <mxCell id="aUg-6YMT8PlGPVR0eo5o-233" value="" style="endArrow=none;html=1;rounded=0;entryX=0;entryY=0.75;entryDx=0;entryDy=0;exitX=0.5;exitY=0;exitDx=0;exitDy=0;" edge="1" parent="1" source="aUg-6YMT8PlGPVR0eo5o-227" target="aUg-6YMT8PlGPVR0eo5o-224">
          <mxGeometry width="50" height="50" relative="1" as="geometry">
            <mxPoint x="4344.5" y="3312.75" as="sourcePoint" />
            <mxPoint x="4394.5" y="3262.75" as="targetPoint" />
          </mxGeometry>
        </mxCell>
        <mxCell id="aUg-6YMT8PlGPVR0eo5o-234" value="" style="endArrow=none;html=1;rounded=0;entryX=0.25;entryY=1;entryDx=0;entryDy=0;" edge="1" parent="1" source="aUg-6YMT8PlGPVR0eo5o-228" target="aUg-6YMT8PlGPVR0eo5o-224">
          <mxGeometry width="50" height="50" relative="1" as="geometry">
            <mxPoint x="4434.5" y="3312.75" as="sourcePoint" />
            <mxPoint x="4484.5" y="3262.75" as="targetPoint" />
          </mxGeometry>
        </mxCell>
        <mxCell id="aUg-6YMT8PlGPVR0eo5o-235" value="" style="endArrow=none;html=1;rounded=0;exitX=0.714;exitY=0.958;exitDx=0;exitDy=0;exitPerimeter=0;" edge="1" parent="1" source="aUg-6YMT8PlGPVR0eo5o-224" target="aUg-6YMT8PlGPVR0eo5o-229">
          <mxGeometry width="50" height="50" relative="1" as="geometry">
            <mxPoint x="4504.5" y="3312.75" as="sourcePoint" />
            <mxPoint x="4554.5" y="3262.75" as="targetPoint" />
          </mxGeometry>
        </mxCell>
        <mxCell id="aUg-6YMT8PlGPVR0eo5o-236" value="" style="endArrow=none;html=1;rounded=0;exitX=1.004;exitY=0.592;exitDx=0;exitDy=0;exitPerimeter=0;" edge="1" parent="1" source="aUg-6YMT8PlGPVR0eo5o-224" target="aUg-6YMT8PlGPVR0eo5o-230">
          <mxGeometry width="50" height="50" relative="1" as="geometry">
            <mxPoint x="4544.5" y="3272.75" as="sourcePoint" />
            <mxPoint x="4594.5" y="3222.75" as="targetPoint" />
          </mxGeometry>
        </mxCell>
        <mxCell id="aUg-6YMT8PlGPVR0eo5o-237" value="DiscountCodes" style="rounded=0;whiteSpace=wrap;html=1;" vertex="1" parent="1">
          <mxGeometry x="4879.5" y="2827.5" width="120" height="60" as="geometry" />
        </mxCell>
        <mxCell id="aUg-6YMT8PlGPVR0eo5o-238" value="DiscountCode" style="ellipse;whiteSpace=wrap;html=1;" vertex="1" parent="1">
          <mxGeometry x="4792" y="2710" width="120" height="47" as="geometry" />
        </mxCell>
        <mxCell id="aUg-6YMT8PlGPVR0eo5o-239" value="Description" style="ellipse;whiteSpace=wrap;html=1;" vertex="1" parent="1">
          <mxGeometry x="4957" y="2710" width="110" height="52" as="geometry" />
        </mxCell>
        <mxCell id="aUg-6YMT8PlGPVR0eo5o-240" value="DiscountPercent" style="ellipse;whiteSpace=wrap;html=1;" vertex="1" parent="1">
          <mxGeometry x="5047" y="2786" width="120" height="48" as="geometry" />
        </mxCell>
        <mxCell id="aUg-6YMT8PlGPVR0eo5o-241" value="MaxUsage" style="ellipse;whiteSpace=wrap;html=1;" vertex="1" parent="1">
          <mxGeometry x="5052" y="2880.25" width="110" height="42" as="geometry" />
        </mxCell>
        <mxCell id="aUg-6YMT8PlGPVR0eo5o-242" value="ExpireAt" style="ellipse;whiteSpace=wrap;html=1;" vertex="1" parent="1">
          <mxGeometry x="4677" y="2737" width="115" height="49" as="geometry" />
        </mxCell>
        <mxCell id="aUg-6YMT8PlGPVR0eo5o-243" value="" style="endArrow=none;html=1;rounded=0;entryX=0.539;entryY=0.967;entryDx=0;entryDy=0;entryPerimeter=0;exitX=0.313;exitY=0.04;exitDx=0;exitDy=0;exitPerimeter=0;" edge="1" parent="1" source="aUg-6YMT8PlGPVR0eo5o-237" target="aUg-6YMT8PlGPVR0eo5o-238">
          <mxGeometry width="50" height="50" relative="1" as="geometry">
            <mxPoint x="4822" y="2820" as="sourcePoint" />
            <mxPoint x="4872" y="2770" as="targetPoint" />
          </mxGeometry>
        </mxCell>
        <mxCell id="aUg-6YMT8PlGPVR0eo5o-244" value="" style="endArrow=none;html=1;rounded=0;entryX=0.248;entryY=0.924;entryDx=0;entryDy=0;entryPerimeter=0;exitX=0.585;exitY=0.008;exitDx=0;exitDy=0;exitPerimeter=0;" edge="1" parent="1" source="aUg-6YMT8PlGPVR0eo5o-237" target="aUg-6YMT8PlGPVR0eo5o-239">
          <mxGeometry width="50" height="50" relative="1" as="geometry">
            <mxPoint x="4932" y="2830" as="sourcePoint" />
            <mxPoint x="4982" y="2780" as="targetPoint" />
          </mxGeometry>
        </mxCell>
        <mxCell id="aUg-6YMT8PlGPVR0eo5o-245" value="" style="endArrow=none;html=1;rounded=0;entryX=0.046;entryY=0.635;entryDx=0;entryDy=0;entryPerimeter=0;exitX=1.001;exitY=0.143;exitDx=0;exitDy=0;exitPerimeter=0;" edge="1" parent="1" source="aUg-6YMT8PlGPVR0eo5o-237" target="aUg-6YMT8PlGPVR0eo5o-240">
          <mxGeometry width="50" height="50" relative="1" as="geometry">
            <mxPoint x="4982" y="2830" as="sourcePoint" />
            <mxPoint x="5032" y="2780" as="targetPoint" />
          </mxGeometry>
        </mxCell>
        <mxCell id="aUg-6YMT8PlGPVR0eo5o-246" value="" style="endArrow=none;html=1;rounded=0;entryX=-0.015;entryY=0.432;entryDx=0;entryDy=0;entryPerimeter=0;exitX=0.976;exitY=0.748;exitDx=0;exitDy=0;exitPerimeter=0;" edge="1" parent="1" source="aUg-6YMT8PlGPVR0eo5o-237" target="aUg-6YMT8PlGPVR0eo5o-241">
          <mxGeometry width="50" height="50" relative="1" as="geometry">
            <mxPoint x="4982" y="2920" as="sourcePoint" />
            <mxPoint x="5032" y="2870" as="targetPoint" />
          </mxGeometry>
        </mxCell>
        <mxCell id="aUg-6YMT8PlGPVR0eo5o-247" value="" style="endArrow=none;html=1;rounded=0;entryX=0.009;entryY=0.112;entryDx=0;entryDy=0;entryPerimeter=0;exitX=1;exitY=1;exitDx=0;exitDy=0;" edge="1" parent="1" source="aUg-6YMT8PlGPVR0eo5o-242" target="aUg-6YMT8PlGPVR0eo5o-237">
          <mxGeometry width="50" height="50" relative="1" as="geometry">
            <mxPoint x="4832" y="2940" as="sourcePoint" />
            <mxPoint x="4882" y="2890" as="targetPoint" />
          </mxGeometry>
        </mxCell>
        <mxCell id="aUg-6YMT8PlGPVR0eo5o-253" value="Certificates" style="rounded=0;whiteSpace=wrap;html=1;" vertex="1" parent="1">
          <mxGeometry x="3534.5" y="2245" width="120" height="60" as="geometry" />
        </mxCell>
        <mxCell id="aUg-6YMT8PlGPVR0eo5o-254" value="&lt;u&gt;CertificateID&lt;/u&gt;" style="ellipse;whiteSpace=wrap;html=1;" vertex="1" parent="1">
          <mxGeometry x="3404.5" y="2125" width="125" height="40" as="geometry" />
        </mxCell>
        <mxCell id="aUg-6YMT8PlGPVR0eo5o-255" value="StudentID" style="ellipse;whiteSpace=wrap;html=1;" vertex="1" parent="1">
          <mxGeometry x="3322" y="2195" width="115" height="40" as="geometry" />
        </mxCell>
        <mxCell id="aUg-6YMT8PlGPVR0eo5o-256" value="CourseID" style="ellipse;whiteSpace=wrap;html=1;" vertex="1" parent="1">
          <mxGeometry x="3304.5" y="2270.5" width="117" height="40" as="geometry" />
        </mxCell>
        <mxCell id="aUg-6YMT8PlGPVR0eo5o-257" value="IssueDate" style="ellipse;whiteSpace=wrap;html=1;" vertex="1" parent="1">
          <mxGeometry x="3554.5" y="2125" width="100" height="40" as="geometry" />
        </mxCell>
        <mxCell id="aUg-6YMT8PlGPVR0eo5o-258" value="CertificateURL" style="ellipse;whiteSpace=wrap;html=1;" vertex="1" parent="1">
          <mxGeometry x="3694.5" y="2135" width="110" height="50" as="geometry" />
        </mxCell>
        <mxCell id="aUg-6YMT8PlGPVR0eo5o-259" value="" style="endArrow=none;html=1;rounded=0;entryX=0.41;entryY=1.039;entryDx=0;entryDy=0;entryPerimeter=0;exitX=1.023;exitY=0.418;exitDx=0;exitDy=0;exitPerimeter=0;" edge="1" parent="1" source="aUg-6YMT8PlGPVR0eo5o-253" target="aUg-6YMT8PlGPVR0eo5o-258">
          <mxGeometry width="50" height="50" relative="1" as="geometry">
            <mxPoint x="3544.5" y="2235" as="sourcePoint" />
            <mxPoint x="3594.5" y="2185" as="targetPoint" />
          </mxGeometry>
        </mxCell>
        <mxCell id="aUg-6YMT8PlGPVR0eo5o-260" value="" style="endArrow=none;html=1;rounded=0;entryX=0.468;entryY=1.024;entryDx=0;entryDy=0;entryPerimeter=0;exitX=0.655;exitY=-0.024;exitDx=0;exitDy=0;exitPerimeter=0;" edge="1" parent="1" source="aUg-6YMT8PlGPVR0eo5o-253" target="aUg-6YMT8PlGPVR0eo5o-257">
          <mxGeometry width="50" height="50" relative="1" as="geometry">
            <mxPoint x="3554.5" y="2245" as="sourcePoint" />
            <mxPoint x="3604.5" y="2195" as="targetPoint" />
          </mxGeometry>
        </mxCell>
        <mxCell id="aUg-6YMT8PlGPVR0eo5o-261" value="" style="endArrow=none;html=1;rounded=0;entryX=0.312;entryY=-0.005;entryDx=0;entryDy=0;entryPerimeter=0;exitX=0.884;exitY=0.905;exitDx=0;exitDy=0;exitPerimeter=0;" edge="1" parent="1" source="aUg-6YMT8PlGPVR0eo5o-254" target="aUg-6YMT8PlGPVR0eo5o-253">
          <mxGeometry width="50" height="50" relative="1" as="geometry">
            <mxPoint x="3494.5" y="2235" as="sourcePoint" />
            <mxPoint x="3544.5" y="2185" as="targetPoint" />
          </mxGeometry>
        </mxCell>
        <mxCell id="aUg-6YMT8PlGPVR0eo5o-262" value="" style="endArrow=none;html=1;rounded=0;entryX=0.008;entryY=0.393;entryDx=0;entryDy=0;entryPerimeter=0;exitX=0.862;exitY=0.92;exitDx=0;exitDy=0;exitPerimeter=0;" edge="1" parent="1" source="aUg-6YMT8PlGPVR0eo5o-255" target="aUg-6YMT8PlGPVR0eo5o-253">
          <mxGeometry width="50" height="50" relative="1" as="geometry">
            <mxPoint x="3444.5" y="2265" as="sourcePoint" />
            <mxPoint x="3494.5" y="2215" as="targetPoint" />
          </mxGeometry>
        </mxCell>
        <mxCell id="aUg-6YMT8PlGPVR0eo5o-263" value="" style="endArrow=none;html=1;rounded=0;entryX=0.005;entryY=0.626;entryDx=0;entryDy=0;entryPerimeter=0;exitX=0.978;exitY=0.706;exitDx=0;exitDy=0;exitPerimeter=0;" edge="1" parent="1" source="aUg-6YMT8PlGPVR0eo5o-256" target="aUg-6YMT8PlGPVR0eo5o-253">
          <mxGeometry width="50" height="50" relative="1" as="geometry">
            <mxPoint x="3434.5" y="2315" as="sourcePoint" />
            <mxPoint x="3484.5" y="2265" as="targetPoint" />
          </mxGeometry>
        </mxCell>
        <mxCell id="aUg-6YMT8PlGPVR0eo5o-264" value="CourseReviews" style="rounded=0;whiteSpace=wrap;html=1;" vertex="1" parent="1">
          <mxGeometry x="3074.5" y="2555" width="120" height="60" as="geometry" />
        </mxCell>
        <mxCell id="aUg-6YMT8PlGPVR0eo5o-265" value="&lt;u&gt;ReviewID&lt;/u&gt;" style="ellipse;whiteSpace=wrap;html=1;" vertex="1" parent="1">
          <mxGeometry x="2879.5" y="2426" width="100" height="49" as="geometry" />
        </mxCell>
        <mxCell id="aUg-6YMT8PlGPVR0eo5o-266" value="CourseID" style="ellipse;whiteSpace=wrap;html=1;" vertex="1" parent="1">
          <mxGeometry x="2969.5" y="2404" width="110" height="49" as="geometry" />
        </mxCell>
        <mxCell id="aUg-6YMT8PlGPVR0eo5o-267" value="StudentID" style="ellipse;whiteSpace=wrap;html=1;" vertex="1" parent="1">
          <mxGeometry x="2879.5" y="2500.5" width="100" height="45" as="geometry" />
        </mxCell>
        <mxCell id="aUg-6YMT8PlGPVR0eo5o-268" value="Rating" style="ellipse;whiteSpace=wrap;html=1;" vertex="1" parent="1">
          <mxGeometry x="3162.5" y="2426" width="102" height="44" as="geometry" />
        </mxCell>
        <mxCell id="aUg-6YMT8PlGPVR0eo5o-269" value="Comment" style="ellipse;whiteSpace=wrap;html=1;" vertex="1" parent="1">
          <mxGeometry x="2874.5" y="2573" width="110" height="42" as="geometry" />
        </mxCell>
        <mxCell id="aUg-6YMT8PlGPVR0eo5o-270" value="CreatedAt" style="ellipse;whiteSpace=wrap;html=1;" vertex="1" parent="1">
          <mxGeometry x="3254.5" y="2500.5" width="90" height="56" as="geometry" />
        </mxCell>
        <mxCell id="aUg-6YMT8PlGPVR0eo5o-271" value="" style="endArrow=none;html=1;rounded=0;entryX=0.001;entryY=0.407;entryDx=0;entryDy=0;entryPerimeter=0;exitX=0.97;exitY=0.362;exitDx=0;exitDy=0;exitPerimeter=0;" edge="1" parent="1" source="aUg-6YMT8PlGPVR0eo5o-269" target="aUg-6YMT8PlGPVR0eo5o-264">
          <mxGeometry width="50" height="50" relative="1" as="geometry">
            <mxPoint x="2974.5" y="2595" as="sourcePoint" />
            <mxPoint x="3024.5" y="2545" as="targetPoint" />
          </mxGeometry>
        </mxCell>
        <mxCell id="aUg-6YMT8PlGPVR0eo5o-272" value="" style="endArrow=none;html=1;rounded=0;entryX=0.001;entryY=0.192;entryDx=0;entryDy=0;entryPerimeter=0;exitX=0.874;exitY=0.78;exitDx=0;exitDy=0;exitPerimeter=0;" edge="1" parent="1" source="aUg-6YMT8PlGPVR0eo5o-267" target="aUg-6YMT8PlGPVR0eo5o-264">
          <mxGeometry width="50" height="50" relative="1" as="geometry">
            <mxPoint x="2974.5" y="2545" as="sourcePoint" />
            <mxPoint x="3024.5" y="2495" as="targetPoint" />
          </mxGeometry>
        </mxCell>
        <mxCell id="aUg-6YMT8PlGPVR0eo5o-273" value="" style="endArrow=none;html=1;rounded=0;entryX=0.127;entryY=-0.004;entryDx=0;entryDy=0;entryPerimeter=0;exitX=0.816;exitY=0.88;exitDx=0;exitDy=0;exitPerimeter=0;" edge="1" parent="1" source="aUg-6YMT8PlGPVR0eo5o-265" target="aUg-6YMT8PlGPVR0eo5o-264">
          <mxGeometry width="50" height="50" relative="1" as="geometry">
            <mxPoint x="2994.5" y="2535" as="sourcePoint" />
            <mxPoint x="3044.5" y="2485" as="targetPoint" />
          </mxGeometry>
        </mxCell>
        <mxCell id="aUg-6YMT8PlGPVR0eo5o-274" value="" style="endArrow=none;html=1;rounded=0;entryX=0.622;entryY=0.944;entryDx=0;entryDy=0;entryPerimeter=0;exitX=0.179;exitY=0.02;exitDx=0;exitDy=0;exitPerimeter=0;" edge="1" parent="1" source="aUg-6YMT8PlGPVR0eo5o-264" target="aUg-6YMT8PlGPVR0eo5o-266">
          <mxGeometry width="50" height="50" relative="1" as="geometry">
            <mxPoint x="3094.5" y="2535" as="sourcePoint" />
            <mxPoint x="3144.5" y="2485" as="targetPoint" />
          </mxGeometry>
        </mxCell>
        <mxCell id="aUg-6YMT8PlGPVR0eo5o-275" value="" style="endArrow=none;html=1;rounded=0;entryX=0.292;entryY=0.953;entryDx=0;entryDy=0;entryPerimeter=0;exitX=0.562;exitY=-0.01;exitDx=0;exitDy=0;exitPerimeter=0;" edge="1" parent="1" source="aUg-6YMT8PlGPVR0eo5o-264" target="aUg-6YMT8PlGPVR0eo5o-268">
          <mxGeometry width="50" height="50" relative="1" as="geometry">
            <mxPoint x="3144.5" y="2535" as="sourcePoint" />
            <mxPoint x="3194.5" y="2485" as="targetPoint" />
          </mxGeometry>
        </mxCell>
        <mxCell id="aUg-6YMT8PlGPVR0eo5o-276" value="" style="endArrow=none;html=1;rounded=0;entryX=0.024;entryY=0.456;entryDx=0;entryDy=0;entryPerimeter=0;exitX=0.801;exitY=0.014;exitDx=0;exitDy=0;exitPerimeter=0;" edge="1" parent="1" source="aUg-6YMT8PlGPVR0eo5o-264" target="aUg-6YMT8PlGPVR0eo5o-270">
          <mxGeometry width="50" height="50" relative="1" as="geometry">
            <mxPoint x="3164.5" y="2545" as="sourcePoint" />
            <mxPoint x="3214.5" y="2495" as="targetPoint" />
          </mxGeometry>
        </mxCell>
        <mxCell id="aUg-6YMT8PlGPVR0eo5o-277" value="Messages" style="rounded=0;whiteSpace=wrap;html=1;" vertex="1" parent="1">
          <mxGeometry x="4264.5" y="1545" width="120" height="60" as="geometry" />
        </mxCell>
        <mxCell id="aUg-6YMT8PlGPVR0eo5o-278" value="&lt;u&gt;MessageID&lt;/u&gt;" style="ellipse;whiteSpace=wrap;html=1;" vertex="1" parent="1">
          <mxGeometry x="4134.5" y="1400" width="110" height="50" as="geometry" />
        </mxCell>
        <mxCell id="aUg-6YMT8PlGPVR0eo5o-279" value="SenderID" style="ellipse;whiteSpace=wrap;html=1;" vertex="1" parent="1">
          <mxGeometry x="4262" y="1405" width="115" height="40" as="geometry" />
        </mxCell>
        <mxCell id="aUg-6YMT8PlGPVR0eo5o-280" value="ReceiverID" style="ellipse;whiteSpace=wrap;html=1;" vertex="1" parent="1">
          <mxGeometry x="4404.5" y="1405" width="110" height="45" as="geometry" />
        </mxCell>
        <mxCell id="aUg-6YMT8PlGPVR0eo5o-281" value="Body" style="ellipse;whiteSpace=wrap;html=1;" vertex="1" parent="1">
          <mxGeometry x="4464.5" y="1495" width="90" height="50" as="geometry" />
        </mxCell>
        <mxCell id="aUg-6YMT8PlGPVR0eo5o-282" value="SentAt" style="ellipse;whiteSpace=wrap;html=1;" vertex="1" parent="1">
          <mxGeometry x="4104.5" y="1485" width="70" height="40" as="geometry" />
        </mxCell>
        <mxCell id="aUg-6YMT8PlGPVR0eo5o-283" value="IsRead" style="ellipse;whiteSpace=wrap;html=1;" vertex="1" parent="1">
          <mxGeometry x="4067.5" y="1555" width="97" height="50" as="geometry" />
        </mxCell>
        <mxCell id="aUg-6YMT8PlGPVR0eo5o-284" value="" style="endArrow=none;html=1;rounded=0;entryX=0.729;entryY=0.907;entryDx=0;entryDy=0;entryPerimeter=0;exitX=0.25;exitY=0;exitDx=0;exitDy=0;" edge="1" parent="1" source="aUg-6YMT8PlGPVR0eo5o-277" target="aUg-6YMT8PlGPVR0eo5o-278">
          <mxGeometry width="50" height="50" relative="1" as="geometry">
            <mxPoint x="4254.5" y="1525" as="sourcePoint" />
            <mxPoint x="4304.5" y="1475" as="targetPoint" />
          </mxGeometry>
        </mxCell>
        <mxCell id="aUg-6YMT8PlGPVR0eo5o-285" value="" style="endArrow=none;html=1;rounded=0;entryX=0.006;entryY=0.396;entryDx=0;entryDy=0;entryPerimeter=0;" edge="1" parent="1" source="aUg-6YMT8PlGPVR0eo5o-282" target="aUg-6YMT8PlGPVR0eo5o-277">
          <mxGeometry width="50" height="50" relative="1" as="geometry">
            <mxPoint x="4184.5" y="1565" as="sourcePoint" />
            <mxPoint x="4234.5" y="1515" as="targetPoint" />
          </mxGeometry>
        </mxCell>
        <mxCell id="aUg-6YMT8PlGPVR0eo5o-286" value="" style="endArrow=none;html=1;rounded=0;entryX=0.012;entryY=0.668;entryDx=0;entryDy=0;entryPerimeter=0;exitX=0.953;exitY=0.659;exitDx=0;exitDy=0;exitPerimeter=0;" edge="1" parent="1" source="aUg-6YMT8PlGPVR0eo5o-283" target="aUg-6YMT8PlGPVR0eo5o-277">
          <mxGeometry width="50" height="50" relative="1" as="geometry">
            <mxPoint x="4174.5" y="1605" as="sourcePoint" />
            <mxPoint x="4224.5" y="1555" as="targetPoint" />
          </mxGeometry>
        </mxCell>
        <mxCell id="aUg-6YMT8PlGPVR0eo5o-287" value="" style="endArrow=none;html=1;rounded=0;entryX=0.544;entryY=1.018;entryDx=0;entryDy=0;entryPerimeter=0;exitX=0.424;exitY=-0.013;exitDx=0;exitDy=0;exitPerimeter=0;" edge="1" parent="1" source="aUg-6YMT8PlGPVR0eo5o-277" target="aUg-6YMT8PlGPVR0eo5o-279">
          <mxGeometry width="50" height="50" relative="1" as="geometry">
            <mxPoint x="4294.5" y="1525" as="sourcePoint" />
            <mxPoint x="4344.5" y="1475" as="targetPoint" />
          </mxGeometry>
        </mxCell>
        <mxCell id="aUg-6YMT8PlGPVR0eo5o-288" value="" style="endArrow=none;html=1;rounded=0;entryX=0.253;entryY=0.889;entryDx=0;entryDy=0;entryPerimeter=0;exitX=0.729;exitY=-0.019;exitDx=0;exitDy=0;exitPerimeter=0;" edge="1" parent="1" source="aUg-6YMT8PlGPVR0eo5o-277" target="aUg-6YMT8PlGPVR0eo5o-280">
          <mxGeometry width="50" height="50" relative="1" as="geometry">
            <mxPoint x="4344.5" y="1535" as="sourcePoint" />
            <mxPoint x="4394.5" y="1485" as="targetPoint" />
          </mxGeometry>
        </mxCell>
        <mxCell id="aUg-6YMT8PlGPVR0eo5o-289" value="" style="endArrow=none;html=1;rounded=0;entryX=0.034;entryY=0.572;entryDx=0;entryDy=0;entryPerimeter=0;exitX=0.984;exitY=0.39;exitDx=0;exitDy=0;exitPerimeter=0;" edge="1" parent="1" source="aUg-6YMT8PlGPVR0eo5o-277" target="aUg-6YMT8PlGPVR0eo5o-281">
          <mxGeometry width="50" height="50" relative="1" as="geometry">
            <mxPoint x="4354.5" y="1575" as="sourcePoint" />
            <mxPoint x="4404.5" y="1525" as="targetPoint" />
          </mxGeometry>
        </mxCell>
        <mxCell id="aUg-6YMT8PlGPVR0eo5o-290" value="Notifications" style="rounded=0;whiteSpace=wrap;html=1;" vertex="1" parent="1">
          <mxGeometry x="4907" y="2015" width="120" height="60" as="geometry" />
        </mxCell>
        <mxCell id="aUg-6YMT8PlGPVR0eo5o-291" value="&lt;u&gt;NotificationID&lt;/u&gt;" style="ellipse;whiteSpace=wrap;html=1;" vertex="1" parent="1">
          <mxGeometry x="4790" y="1885" width="112" height="40" as="geometry" />
        </mxCell>
        <mxCell id="aUg-6YMT8PlGPVR0eo5o-292" value="UserID" style="ellipse;whiteSpace=wrap;html=1;" vertex="1" parent="1">
          <mxGeometry x="4935" y="1885" width="92" height="40" as="geometry" />
        </mxCell>
        <mxCell id="aUg-6YMT8PlGPVR0eo5o-293" value="Title" style="ellipse;whiteSpace=wrap;html=1;" vertex="1" parent="1">
          <mxGeometry x="5052" y="1885" width="77" height="40" as="geometry" />
        </mxCell>
        <mxCell id="aUg-6YMT8PlGPVR0eo5o-294" value="Message" style="ellipse;whiteSpace=wrap;html=1;" vertex="1" parent="1">
          <mxGeometry x="5087" y="2005" width="90" height="50" as="geometry" />
        </mxCell>
        <mxCell id="aUg-6YMT8PlGPVR0eo5o-295" value="CreatedAt" style="ellipse;whiteSpace=wrap;html=1;" vertex="1" parent="1">
          <mxGeometry x="4734.5" y="1955" width="100" height="50" as="geometry" />
        </mxCell>
        <mxCell id="aUg-6YMT8PlGPVR0eo5o-296" value="IsRead" style="ellipse;whiteSpace=wrap;html=1;" vertex="1" parent="1">
          <mxGeometry x="4744.5" y="2095" width="90" height="60" as="geometry" />
        </mxCell>
        <mxCell id="aUg-6YMT8PlGPVR0eo5o-297" value="" style="endArrow=none;html=1;rounded=0;entryX=0.685;entryY=0.958;entryDx=0;entryDy=0;entryPerimeter=0;exitX=0.3;exitY=0.036;exitDx=0;exitDy=0;exitPerimeter=0;" edge="1" parent="1" source="aUg-6YMT8PlGPVR0eo5o-290" target="aUg-6YMT8PlGPVR0eo5o-291">
          <mxGeometry width="50" height="50" relative="1" as="geometry">
            <mxPoint x="4894.5" y="1995" as="sourcePoint" />
            <mxPoint x="4944.5" y="1945" as="targetPoint" />
          </mxGeometry>
        </mxCell>
        <mxCell id="aUg-6YMT8PlGPVR0eo5o-298" value="" style="endArrow=none;html=1;rounded=0;entryX=0;entryY=0.34;entryDx=0;entryDy=0;entryPerimeter=0;exitX=0.965;exitY=0.724;exitDx=0;exitDy=0;exitPerimeter=0;" edge="1" parent="1" source="aUg-6YMT8PlGPVR0eo5o-295" target="aUg-6YMT8PlGPVR0eo5o-290">
          <mxGeometry width="50" height="50" relative="1" as="geometry">
            <mxPoint x="4824.5" y="2055" as="sourcePoint" />
            <mxPoint x="4874.5" y="2005" as="targetPoint" />
          </mxGeometry>
        </mxCell>
        <mxCell id="aUg-6YMT8PlGPVR0eo5o-299" value="" style="endArrow=none;html=1;rounded=0;entryX=0.02;entryY=0.612;entryDx=0;entryDy=0;entryPerimeter=0;" edge="1" parent="1" source="aUg-6YMT8PlGPVR0eo5o-296" target="aUg-6YMT8PlGPVR0eo5o-290">
          <mxGeometry width="50" height="50" relative="1" as="geometry">
            <mxPoint x="4854.5" y="2085" as="sourcePoint" />
            <mxPoint x="4904.5" y="2035" as="targetPoint" />
          </mxGeometry>
        </mxCell>
        <mxCell id="aUg-6YMT8PlGPVR0eo5o-300" value="" style="endArrow=none;html=1;rounded=0;entryX=0.59;entryY=1.045;entryDx=0;entryDy=0;entryPerimeter=0;exitX=0.5;exitY=0;exitDx=0;exitDy=0;" edge="1" parent="1" source="aUg-6YMT8PlGPVR0eo5o-290" target="aUg-6YMT8PlGPVR0eo5o-292">
          <mxGeometry width="50" height="50" relative="1" as="geometry">
            <mxPoint x="4964.5" y="2005" as="sourcePoint" />
            <mxPoint x="5014.5" y="1955" as="targetPoint" />
          </mxGeometry>
        </mxCell>
        <mxCell id="aUg-6YMT8PlGPVR0eo5o-301" value="" style="endArrow=none;html=1;rounded=0;entryX=0.107;entryY=0.812;entryDx=0;entryDy=0;entryPerimeter=0;exitX=0.75;exitY=0;exitDx=0;exitDy=0;" edge="1" parent="1" source="aUg-6YMT8PlGPVR0eo5o-290" target="aUg-6YMT8PlGPVR0eo5o-293">
          <mxGeometry width="50" height="50" relative="1" as="geometry">
            <mxPoint x="4994.5" y="2015" as="sourcePoint" />
            <mxPoint x="5044.5" y="1965" as="targetPoint" />
          </mxGeometry>
        </mxCell>
        <mxCell id="aUg-6YMT8PlGPVR0eo5o-302" value="" style="endArrow=none;html=1;rounded=0;exitX=1;exitY=0.5;exitDx=0;exitDy=0;" edge="1" parent="1" source="aUg-6YMT8PlGPVR0eo5o-290" target="aUg-6YMT8PlGPVR0eo5o-294">
          <mxGeometry width="50" height="50" relative="1" as="geometry">
            <mxPoint x="5004.5" y="2055" as="sourcePoint" />
            <mxPoint x="5054.5" y="2005" as="targetPoint" />
          </mxGeometry>
        </mxCell>
        <mxCell id="aUg-6YMT8PlGPVR0eo5o-303" value="ActivityLogs" style="rounded=0;whiteSpace=wrap;html=1;" vertex="1" parent="1">
          <mxGeometry x="6024.5" y="2025" width="120" height="60" as="geometry" />
        </mxCell>
        <mxCell id="aUg-6YMT8PlGPVR0eo5o-304" value="&lt;u&gt;LogID&lt;/u&gt;" style="ellipse;whiteSpace=wrap;html=1;" vertex="1" parent="1">
          <mxGeometry x="6034.5" y="1915" width="120" height="40" as="geometry" />
        </mxCell>
        <mxCell id="aUg-6YMT8PlGPVR0eo5o-305" value="UserID" style="ellipse;whiteSpace=wrap;html=1;" vertex="1" parent="1">
          <mxGeometry x="6194.5" y="1920" width="110" height="40" as="geometry" />
        </mxCell>
        <mxCell id="aUg-6YMT8PlGPVR0eo5o-306" value="Action" style="ellipse;whiteSpace=wrap;html=1;" vertex="1" parent="1">
          <mxGeometry x="5904.5" y="1925" width="90" height="30" as="geometry" />
        </mxCell>
        <mxCell id="aUg-6YMT8PlGPVR0eo5o-307" value="Entity" style="ellipse;whiteSpace=wrap;html=1;" vertex="1" parent="1">
          <mxGeometry x="6214.5" y="1995" width="85" height="40" as="geometry" />
        </mxCell>
        <mxCell id="aUg-6YMT8PlGPVR0eo5o-308" value="EntityID" style="ellipse;whiteSpace=wrap;html=1;" vertex="1" parent="1">
          <mxGeometry x="6214.5" y="2065" width="80" height="50" as="geometry" />
        </mxCell>
        <mxCell id="aUg-6YMT8PlGPVR0eo5o-309" value="Timestamp" style="ellipse;whiteSpace=wrap;html=1;" vertex="1" parent="1">
          <mxGeometry x="6194.5" y="2145" width="90" height="50" as="geometry" />
        </mxCell>
        <mxCell id="aUg-6YMT8PlGPVR0eo5o-310" value="Details" style="ellipse;whiteSpace=wrap;html=1;" vertex="1" parent="1">
          <mxGeometry x="6014.5" y="2165" width="80" height="40" as="geometry" />
        </mxCell>
        <mxCell id="aUg-6YMT8PlGPVR0eo5o-311" value="" style="endArrow=none;html=1;rounded=0;entryX=0.593;entryY=0.94;entryDx=0;entryDy=0;entryPerimeter=0;exitX=0.088;exitY=0.053;exitDx=0;exitDy=0;exitPerimeter=0;" edge="1" parent="1" source="aUg-6YMT8PlGPVR0eo5o-303" target="aUg-6YMT8PlGPVR0eo5o-306">
          <mxGeometry width="50" height="50" relative="1" as="geometry">
            <mxPoint x="5964.5" y="2025" as="sourcePoint" />
            <mxPoint x="6014.5" y="1975" as="targetPoint" />
          </mxGeometry>
        </mxCell>
        <mxCell id="aUg-6YMT8PlGPVR0eo5o-312" value="" style="endArrow=none;html=1;rounded=0;entryX=0.413;entryY=0.939;entryDx=0;entryDy=0;entryPerimeter=0;exitX=0.47;exitY=0.006;exitDx=0;exitDy=0;exitPerimeter=0;" edge="1" parent="1" source="aUg-6YMT8PlGPVR0eo5o-303" target="aUg-6YMT8PlGPVR0eo5o-304">
          <mxGeometry width="50" height="50" relative="1" as="geometry">
            <mxPoint x="6044.5" y="2025" as="sourcePoint" />
            <mxPoint x="6094.5" y="1975" as="targetPoint" />
          </mxGeometry>
        </mxCell>
        <mxCell id="aUg-6YMT8PlGPVR0eo5o-313" value="" style="endArrow=none;html=1;rounded=0;entryX=0.105;entryY=0.814;entryDx=0;entryDy=0;entryPerimeter=0;exitX=0.682;exitY=0.006;exitDx=0;exitDy=0;exitPerimeter=0;" edge="1" parent="1" source="aUg-6YMT8PlGPVR0eo5o-303" target="aUg-6YMT8PlGPVR0eo5o-305">
          <mxGeometry width="50" height="50" relative="1" as="geometry">
            <mxPoint x="6124.5" y="2025" as="sourcePoint" />
            <mxPoint x="6174.5" y="1975" as="targetPoint" />
          </mxGeometry>
        </mxCell>
        <mxCell id="aUg-6YMT8PlGPVR0eo5o-314" value="" style="endArrow=none;html=1;rounded=0;entryX=0.037;entryY=0.633;entryDx=0;entryDy=0;entryPerimeter=0;exitX=1.006;exitY=0.33;exitDx=0;exitDy=0;exitPerimeter=0;" edge="1" parent="1" source="aUg-6YMT8PlGPVR0eo5o-303" target="aUg-6YMT8PlGPVR0eo5o-307">
          <mxGeometry width="50" height="50" relative="1" as="geometry">
            <mxPoint x="6114.5" y="2065" as="sourcePoint" />
            <mxPoint x="6164.5" y="2015" as="targetPoint" />
          </mxGeometry>
        </mxCell>
        <mxCell id="aUg-6YMT8PlGPVR0eo5o-315" value="" style="endArrow=none;html=1;rounded=0;entryX=0.118;entryY=0.192;entryDx=0;entryDy=0;entryPerimeter=0;exitX=0.789;exitY=1.015;exitDx=0;exitDy=0;exitPerimeter=0;" edge="1" parent="1" source="aUg-6YMT8PlGPVR0eo5o-303" target="aUg-6YMT8PlGPVR0eo5o-309">
          <mxGeometry width="50" height="50" relative="1" as="geometry">
            <mxPoint x="6104.5" y="2135" as="sourcePoint" />
            <mxPoint x="6154.5" y="2085" as="targetPoint" />
          </mxGeometry>
        </mxCell>
        <mxCell id="aUg-6YMT8PlGPVR0eo5o-316" value="" style="endArrow=none;html=1;rounded=0;entryX=0.292;entryY=0.994;entryDx=0;entryDy=0;entryPerimeter=0;" edge="1" parent="1" source="aUg-6YMT8PlGPVR0eo5o-310" target="aUg-6YMT8PlGPVR0eo5o-303">
          <mxGeometry width="50" height="50" relative="1" as="geometry">
            <mxPoint x="6014.5" y="2155" as="sourcePoint" />
            <mxPoint x="6064.5" y="2105" as="targetPoint" />
          </mxGeometry>
        </mxCell>
        <mxCell id="aUg-6YMT8PlGPVR0eo5o-317" value="" style="endArrow=none;html=1;rounded=0;entryX=0.048;entryY=0.38;entryDx=0;entryDy=0;entryPerimeter=0;exitX=0.988;exitY=0.686;exitDx=0;exitDy=0;exitPerimeter=0;" edge="1" parent="1" source="aUg-6YMT8PlGPVR0eo5o-303" target="aUg-6YMT8PlGPVR0eo5o-308">
          <mxGeometry width="50" height="50" relative="1" as="geometry">
            <mxPoint x="6164.5" y="2105" as="sourcePoint" />
            <mxPoint x="6214.5" y="2055" as="targetPoint" />
          </mxGeometry>
        </mxCell>
        <mxCell id="aUg-6YMT8PlGPVR0eo5o-318" value="Has_Permission" style="rhombus;whiteSpace=wrap;html=1;" vertex="1" parent="1">
          <mxGeometry x="3297" y="1745" width="140" height="80" as="geometry" />
        </mxCell>
        <mxCell id="aUg-6YMT8PlGPVR0eo5o-319" value="" style="endArrow=none;html=1;rounded=0;entryX=0;entryY=0.5;entryDx=0;entryDy=0;exitX=1;exitY=0.5;exitDx=0;exitDy=0;" edge="1" parent="1" source="aUg-6YMT8PlGPVR0eo5o-8" target="aUg-6YMT8PlGPVR0eo5o-318">
          <mxGeometry width="50" height="50" relative="1" as="geometry">
            <mxPoint x="3164.5" y="1805" as="sourcePoint" />
            <mxPoint x="3214.5" y="1755" as="targetPoint" />
          </mxGeometry>
        </mxCell>
        <mxCell id="aUg-6YMT8PlGPVR0eo5o-320" value="N" style="edgeLabel;html=1;align=center;verticalAlign=middle;resizable=0;points=[];" vertex="1" connectable="0" parent="aUg-6YMT8PlGPVR0eo5o-319">
          <mxGeometry x="0.1271" y="-1" relative="1" as="geometry">
            <mxPoint as="offset" />
          </mxGeometry>
        </mxCell>
        <mxCell id="aUg-6YMT8PlGPVR0eo5o-321" value="" style="endArrow=none;html=1;rounded=0;entryX=0.339;entryY=0.959;entryDx=0;entryDy=0;entryPerimeter=0;exitX=0.953;exitY=0.519;exitDx=0;exitDy=0;exitPerimeter=0;" edge="1" parent="1" source="aUg-6YMT8PlGPVR0eo5o-318" target="aUg-6YMT8PlGPVR0eo5o-1">
          <mxGeometry width="50" height="50" relative="1" as="geometry">
            <mxPoint x="3464.5" y="1785" as="sourcePoint" />
            <mxPoint x="3514.5" y="1735" as="targetPoint" />
          </mxGeometry>
        </mxCell>
        <mxCell id="aUg-6YMT8PlGPVR0eo5o-322" value="N" style="edgeLabel;html=1;align=center;verticalAlign=middle;resizable=0;points=[];" vertex="1" connectable="0" parent="aUg-6YMT8PlGPVR0eo5o-321">
          <mxGeometry x="-0.0434" y="-2" relative="1" as="geometry">
            <mxPoint as="offset" />
          </mxGeometry>
        </mxCell>
        <mxCell id="aUg-6YMT8PlGPVR0eo5o-323" value="Has_Role" style="rhombus;whiteSpace=wrap;html=1;" vertex="1" parent="1">
          <mxGeometry x="3934.5" y="1690" width="140" height="80" as="geometry" />
        </mxCell>
        <mxCell id="aUg-6YMT8PlGPVR0eo5o-324" value="" style="endArrow=none;html=1;rounded=0;entryX=0;entryY=0.5;entryDx=0;entryDy=0;exitX=1;exitY=0.5;exitDx=0;exitDy=0;" edge="1" parent="1" source="aUg-6YMT8PlGPVR0eo5o-1" target="aUg-6YMT8PlGPVR0eo5o-323">
          <mxGeometry width="50" height="50" relative="1" as="geometry">
            <mxPoint x="3704.5" y="1695" as="sourcePoint" />
            <mxPoint x="3754.5" y="1645" as="targetPoint" />
            <Array as="points">
              <mxPoint x="3934.5" y="1600" />
            </Array>
          </mxGeometry>
        </mxCell>
        <mxCell id="aUg-6YMT8PlGPVR0eo5o-325" value="1" style="edgeLabel;html=1;align=center;verticalAlign=middle;resizable=0;points=[];" vertex="1" connectable="0" parent="aUg-6YMT8PlGPVR0eo5o-324">
          <mxGeometry x="-0.5631" y="-1" relative="1" as="geometry">
            <mxPoint as="offset" />
          </mxGeometry>
        </mxCell>
        <mxCell id="aUg-6YMT8PlGPVR0eo5o-326" value="" style="endArrow=none;html=1;rounded=0;entryX=0.972;entryY=0.515;entryDx=0;entryDy=0;entryPerimeter=0;exitX=0.023;exitY=-0.053;exitDx=0;exitDy=0;exitPerimeter=0;" edge="1" parent="1" source="aUg-6YMT8PlGPVR0eo5o-15" target="aUg-6YMT8PlGPVR0eo5o-323">
          <mxGeometry width="50" height="50" relative="1" as="geometry">
            <mxPoint x="4074.5" y="1835" as="sourcePoint" />
            <mxPoint x="4124.5" y="1785" as="targetPoint" />
            <Array as="points">
              <mxPoint x="4214.5" y="1905" />
              <mxPoint x="4070.5" y="1905" />
            </Array>
          </mxGeometry>
        </mxCell>
        <mxCell id="aUg-6YMT8PlGPVR0eo5o-327" value="N" style="edgeLabel;html=1;align=center;verticalAlign=middle;resizable=0;points=[];" vertex="1" connectable="0" parent="aUg-6YMT8PlGPVR0eo5o-326">
          <mxGeometry x="-0.2081" y="1" relative="1" as="geometry">
            <mxPoint as="offset" />
          </mxGeometry>
        </mxCell>
        <mxCell id="aUg-6YMT8PlGPVR0eo5o-328" value="Sends" style="rhombus;whiteSpace=wrap;html=1;" vertex="1" parent="1">
          <mxGeometry x="4229.5" y="1715" width="160" height="80" as="geometry" />
        </mxCell>
        <mxCell id="aUg-6YMT8PlGPVR0eo5o-329" value="" style="endArrow=none;html=1;rounded=0;entryX=0.5;entryY=1;entryDx=0;entryDy=0;exitX=0.46;exitY=0.038;exitDx=0;exitDy=0;exitPerimeter=0;" edge="1" parent="1" source="aUg-6YMT8PlGPVR0eo5o-15" target="aUg-6YMT8PlGPVR0eo5o-328">
          <mxGeometry width="50" height="50" relative="1" as="geometry">
            <mxPoint x="4294.5" y="1845" as="sourcePoint" />
            <mxPoint x="4344.5" y="1795" as="targetPoint" />
          </mxGeometry>
        </mxCell>
        <mxCell id="aUg-6YMT8PlGPVR0eo5o-330" value="1" style="edgeLabel;html=1;align=center;verticalAlign=middle;resizable=0;points=[];" vertex="1" connectable="0" parent="aUg-6YMT8PlGPVR0eo5o-329">
          <mxGeometry x="0.1397" relative="1" as="geometry">
            <mxPoint as="offset" />
          </mxGeometry>
        </mxCell>
        <mxCell id="aUg-6YMT8PlGPVR0eo5o-331" value="" style="endArrow=none;html=1;rounded=0;entryX=0.44;entryY=1.016;entryDx=0;entryDy=0;entryPerimeter=0;exitX=0.528;exitY=0.052;exitDx=0;exitDy=0;exitPerimeter=0;" edge="1" parent="1" source="aUg-6YMT8PlGPVR0eo5o-328" target="aUg-6YMT8PlGPVR0eo5o-277">
          <mxGeometry width="50" height="50" relative="1" as="geometry">
            <mxPoint x="4294.5" y="1705" as="sourcePoint" />
            <mxPoint x="4344.5" y="1655" as="targetPoint" />
          </mxGeometry>
        </mxCell>
        <mxCell id="aUg-6YMT8PlGPVR0eo5o-332" value="N" style="edgeLabel;html=1;align=center;verticalAlign=middle;resizable=0;points=[];" vertex="1" connectable="0" parent="aUg-6YMT8PlGPVR0eo5o-331">
          <mxGeometry x="0.0664" relative="1" as="geometry">
            <mxPoint as="offset" />
          </mxGeometry>
        </mxCell>
        <mxCell id="aUg-6YMT8PlGPVR0eo5o-333" value="Receives_Notification" style="rhombus;whiteSpace=wrap;html=1;" vertex="1" parent="1">
          <mxGeometry x="4540.5" y="2005" width="174" height="80" as="geometry" />
        </mxCell>
        <mxCell id="aUg-6YMT8PlGPVR0eo5o-334" value="" style="endArrow=none;html=1;rounded=0;exitX=0.981;exitY=0.489;exitDx=0;exitDy=0;exitPerimeter=0;" edge="1" parent="1" source="aUg-6YMT8PlGPVR0eo5o-333" target="aUg-6YMT8PlGPVR0eo5o-290">
          <mxGeometry width="50" height="50" relative="1" as="geometry">
            <mxPoint x="4714.5" y="2065" as="sourcePoint" />
            <mxPoint x="4764.5" y="2015" as="targetPoint" />
          </mxGeometry>
        </mxCell>
        <mxCell id="aUg-6YMT8PlGPVR0eo5o-335" value="N" style="edgeLabel;html=1;align=center;verticalAlign=middle;resizable=0;points=[];" vertex="1" connectable="0" parent="aUg-6YMT8PlGPVR0eo5o-334">
          <mxGeometry x="-0.2417" relative="1" as="geometry">
            <mxPoint as="offset" />
          </mxGeometry>
        </mxCell>
        <mxCell id="aUg-6YMT8PlGPVR0eo5o-336" value="" style="endArrow=none;html=1;rounded=0;entryX=0.033;entryY=0.537;entryDx=0;entryDy=0;entryPerimeter=0;exitX=0.994;exitY=0.595;exitDx=0;exitDy=0;exitPerimeter=0;" edge="1" parent="1" source="aUg-6YMT8PlGPVR0eo5o-15" target="aUg-6YMT8PlGPVR0eo5o-333">
          <mxGeometry width="50" height="50" relative="1" as="geometry">
            <mxPoint x="4434.5" y="2065" as="sourcePoint" />
            <mxPoint x="4484.5" y="2015" as="targetPoint" />
          </mxGeometry>
        </mxCell>
        <mxCell id="aUg-6YMT8PlGPVR0eo5o-337" value="1" style="edgeLabel;html=1;align=center;verticalAlign=middle;resizable=0;points=[];" vertex="1" connectable="0" parent="aUg-6YMT8PlGPVR0eo5o-336">
          <mxGeometry x="-0.0728" y="-2" relative="1" as="geometry">
            <mxPoint as="offset" />
          </mxGeometry>
        </mxCell>
        <mxCell id="aUg-6YMT8PlGPVR0eo5o-338" value="Has_Invoice" style="rhombus;whiteSpace=wrap;html=1;" vertex="1" parent="1">
          <mxGeometry x="4244.5" y="2416" width="160" height="80" as="geometry" />
        </mxCell>
        <mxCell id="aUg-6YMT8PlGPVR0eo5o-339" value="" style="endArrow=none;html=1;rounded=0;" edge="1" parent="1" source="aUg-6YMT8PlGPVR0eo5o-338" target="aUg-6YMT8PlGPVR0eo5o-15">
          <mxGeometry width="50" height="50" relative="1" as="geometry">
            <mxPoint x="4264.5" y="2315" as="sourcePoint" />
            <mxPoint x="4314.5" y="2265" as="targetPoint" />
          </mxGeometry>
        </mxCell>
        <mxCell id="aUg-6YMT8PlGPVR0eo5o-340" value="1" style="edgeLabel;html=1;align=center;verticalAlign=middle;resizable=0;points=[];" vertex="1" connectable="0" parent="aUg-6YMT8PlGPVR0eo5o-339">
          <mxGeometry x="0.068" y="1" relative="1" as="geometry">
            <mxPoint as="offset" />
          </mxGeometry>
        </mxCell>
        <mxCell id="aUg-6YMT8PlGPVR0eo5o-341" value="" style="endArrow=none;html=1;rounded=0;entryX=0.513;entryY=0.947;entryDx=0;entryDy=0;entryPerimeter=0;exitX=0.198;exitY=0.033;exitDx=0;exitDy=0;exitPerimeter=0;" edge="1" parent="1" source="aUg-6YMT8PlGPVR0eo5o-213" target="aUg-6YMT8PlGPVR0eo5o-338">
          <mxGeometry width="50" height="50" relative="1" as="geometry">
            <mxPoint x="4334.5" y="2585" as="sourcePoint" />
            <mxPoint x="4384.5" y="2535" as="targetPoint" />
          </mxGeometry>
        </mxCell>
        <mxCell id="aUg-6YMT8PlGPVR0eo5o-342" value="N" style="edgeLabel;html=1;align=center;verticalAlign=middle;resizable=0;points=[];" vertex="1" connectable="0" parent="aUg-6YMT8PlGPVR0eo5o-341">
          <mxGeometry x="0.3869" y="1" relative="1" as="geometry">
            <mxPoint x="14" y="29" as="offset" />
          </mxGeometry>
        </mxCell>
        <mxCell id="aUg-6YMT8PlGPVR0eo5o-343" value="Pays" style="rhombus;whiteSpace=wrap;html=1;" vertex="1" parent="1">
          <mxGeometry x="4379.5" y="3030.75" width="145" height="80" as="geometry" />
        </mxCell>
        <mxCell id="aUg-6YMT8PlGPVR0eo5o-344" value="" style="endArrow=none;html=1;rounded=0;entryX=0.5;entryY=1;entryDx=0;entryDy=0;" edge="1" parent="1" source="aUg-6YMT8PlGPVR0eo5o-343" target="aUg-6YMT8PlGPVR0eo5o-213">
          <mxGeometry width="50" height="50" relative="1" as="geometry">
            <mxPoint x="4404.5" y="3015" as="sourcePoint" />
            <mxPoint x="4454.5" y="2965" as="targetPoint" />
          </mxGeometry>
        </mxCell>
        <mxCell id="aUg-6YMT8PlGPVR0eo5o-345" value="1" style="edgeLabel;html=1;align=center;verticalAlign=middle;resizable=0;points=[];" vertex="1" connectable="0" parent="aUg-6YMT8PlGPVR0eo5o-344">
          <mxGeometry x="0.0991" y="2" relative="1" as="geometry">
            <mxPoint as="offset" />
          </mxGeometry>
        </mxCell>
        <mxCell id="aUg-6YMT8PlGPVR0eo5o-346" value="" style="endArrow=none;html=1;rounded=0;entryX=0.5;entryY=1;entryDx=0;entryDy=0;exitX=0.394;exitY=0.032;exitDx=0;exitDy=0;exitPerimeter=0;" edge="1" parent="1" source="aUg-6YMT8PlGPVR0eo5o-224" target="aUg-6YMT8PlGPVR0eo5o-343">
          <mxGeometry width="50" height="50" relative="1" as="geometry">
            <mxPoint x="4454.5" y="3195" as="sourcePoint" />
            <mxPoint x="4504.5" y="3145" as="targetPoint" />
          </mxGeometry>
        </mxCell>
        <mxCell id="aUg-6YMT8PlGPVR0eo5o-347" value="N" style="edgeLabel;html=1;align=center;verticalAlign=middle;resizable=0;points=[];" vertex="1" connectable="0" parent="aUg-6YMT8PlGPVR0eo5o-346">
          <mxGeometry x="-0.2702" y="1" relative="1" as="geometry">
            <mxPoint as="offset" />
          </mxGeometry>
        </mxCell>
        <mxCell id="aUg-6YMT8PlGPVR0eo5o-348" value="Uses_Discount" style="rhombus;whiteSpace=wrap;html=1;" vertex="1" parent="1">
          <mxGeometry x="4628.5" y="2837.5" width="120" height="80" as="geometry" />
        </mxCell>
        <mxCell id="aUg-6YMT8PlGPVR0eo5o-349" value="" style="endArrow=none;html=1;rounded=0;entryX=0.014;entryY=0.544;entryDx=0;entryDy=0;entryPerimeter=0;exitX=1.008;exitY=0.554;exitDx=0;exitDy=0;exitPerimeter=0;" edge="1" parent="1" source="aUg-6YMT8PlGPVR0eo5o-213" target="aUg-6YMT8PlGPVR0eo5o-348">
          <mxGeometry width="50" height="50" relative="1" as="geometry">
            <mxPoint x="4554.5" y="2895" as="sourcePoint" />
            <mxPoint x="4604.5" y="2845" as="targetPoint" />
            <Array as="points">
              <mxPoint x="4574.5" y="2885" />
            </Array>
          </mxGeometry>
        </mxCell>
        <mxCell id="aUg-6YMT8PlGPVR0eo5o-350" value="N" style="edgeLabel;html=1;align=center;verticalAlign=middle;resizable=0;points=[];" vertex="1" connectable="0" parent="aUg-6YMT8PlGPVR0eo5o-349">
          <mxGeometry x="-0.2967" relative="1" as="geometry">
            <mxPoint as="offset" />
          </mxGeometry>
        </mxCell>
        <mxCell id="aUg-6YMT8PlGPVR0eo5o-351" value="" style="endArrow=none;html=1;rounded=0;exitX=0.982;exitY=0.516;exitDx=0;exitDy=0;exitPerimeter=0;" edge="1" parent="1" source="aUg-6YMT8PlGPVR0eo5o-348" target="aUg-6YMT8PlGPVR0eo5o-237">
          <mxGeometry width="50" height="50" relative="1" as="geometry">
            <mxPoint x="4734.5" y="2905" as="sourcePoint" />
            <mxPoint x="4784.5" y="2855" as="targetPoint" />
          </mxGeometry>
        </mxCell>
        <mxCell id="aUg-6YMT8PlGPVR0eo5o-352" value="N" style="edgeLabel;html=1;align=center;verticalAlign=middle;resizable=0;points=[];" vertex="1" connectable="0" parent="aUg-6YMT8PlGPVR0eo5o-351">
          <mxGeometry x="-0.0964" y="1" relative="1" as="geometry">
            <mxPoint as="offset" />
          </mxGeometry>
        </mxCell>
        <mxCell id="aUg-6YMT8PlGPVR0eo5o-353" value="Receives_Certificate" style="rhombus;whiteSpace=wrap;html=1;" vertex="1" parent="1">
          <mxGeometry x="3804.5" y="2246" width="170" height="80" as="geometry" />
        </mxCell>
        <mxCell id="aUg-6YMT8PlGPVR0eo5o-354" value="" style="endArrow=none;html=1;rounded=0;entryX=0;entryY=0.5;entryDx=0;entryDy=0;exitX=0.981;exitY=0.684;exitDx=0;exitDy=0;exitPerimeter=0;" edge="1" parent="1" source="aUg-6YMT8PlGPVR0eo5o-253" target="aUg-6YMT8PlGPVR0eo5o-353">
          <mxGeometry width="50" height="50" relative="1" as="geometry">
            <mxPoint x="3714.5" y="2325" as="sourcePoint" />
            <mxPoint x="3764.5" y="2275" as="targetPoint" />
          </mxGeometry>
        </mxCell>
        <mxCell id="aUg-6YMT8PlGPVR0eo5o-355" value="N" style="edgeLabel;html=1;align=center;verticalAlign=middle;resizable=0;points=[];" vertex="1" connectable="0" parent="aUg-6YMT8PlGPVR0eo5o-354">
          <mxGeometry x="0.1233" y="1" relative="1" as="geometry">
            <mxPoint as="offset" />
          </mxGeometry>
        </mxCell>
        <mxCell id="aUg-6YMT8PlGPVR0eo5o-356" value="" style="endArrow=none;html=1;rounded=0;exitX=0.974;exitY=0.495;exitDx=0;exitDy=0;exitPerimeter=0;" edge="1" parent="1" source="aUg-6YMT8PlGPVR0eo5o-353" target="aUg-6YMT8PlGPVR0eo5o-15">
          <mxGeometry width="50" height="50" relative="1" as="geometry">
            <mxPoint x="3974.5" y="2285" as="sourcePoint" />
            <mxPoint x="4024.5" y="2235" as="targetPoint" />
          </mxGeometry>
        </mxCell>
        <mxCell id="aUg-6YMT8PlGPVR0eo5o-357" value="1" style="edgeLabel;html=1;align=center;verticalAlign=middle;resizable=0;points=[];" vertex="1" connectable="0" parent="aUg-6YMT8PlGPVR0eo5o-356">
          <mxGeometry x="-0.216" y="-1" relative="1" as="geometry">
            <mxPoint as="offset" />
          </mxGeometry>
        </mxCell>
        <mxCell id="aUg-6YMT8PlGPVR0eo5o-358" value="Reviews" style="rhombus;whiteSpace=wrap;html=1;" vertex="1" parent="1">
          <mxGeometry x="3124.5" y="2005" width="147" height="80" as="geometry" />
        </mxCell>
        <mxCell id="aUg-6YMT8PlGPVR0eo5o-359" value="" style="endArrow=none;html=1;rounded=0;entryX=0.022;entryY=0.577;entryDx=0;entryDy=0;entryPerimeter=0;exitX=0.959;exitY=0.553;exitDx=0;exitDy=0;exitPerimeter=0;" edge="1" parent="1" source="aUg-6YMT8PlGPVR0eo5o-358" target="aUg-6YMT8PlGPVR0eo5o-15">
          <mxGeometry width="50" height="50" relative="1" as="geometry">
            <mxPoint x="3524.5" y="2055" as="sourcePoint" />
            <mxPoint x="3574.5" y="2005" as="targetPoint" />
          </mxGeometry>
        </mxCell>
        <mxCell id="aUg-6YMT8PlGPVR0eo5o-360" value="1" style="edgeLabel;html=1;align=center;verticalAlign=middle;resizable=0;points=[];" vertex="1" connectable="0" parent="aUg-6YMT8PlGPVR0eo5o-359">
          <mxGeometry x="-0.3698" y="-2" relative="1" as="geometry">
            <mxPoint as="offset" />
          </mxGeometry>
        </mxCell>
        <mxCell id="aUg-6YMT8PlGPVR0eo5o-361" value="" style="endArrow=none;html=1;rounded=0;entryX=0;entryY=0.5;entryDx=0;entryDy=0;exitX=0.402;exitY=0.003;exitDx=0;exitDy=0;exitPerimeter=0;" edge="1" parent="1" source="aUg-6YMT8PlGPVR0eo5o-264" target="aUg-6YMT8PlGPVR0eo5o-358">
          <mxGeometry width="50" height="50" relative="1" as="geometry">
            <mxPoint x="3084.5" y="2195" as="sourcePoint" />
            <mxPoint x="3134.5" y="2145" as="targetPoint" />
          </mxGeometry>
        </mxCell>
        <mxCell id="aUg-6YMT8PlGPVR0eo5o-362" value="N" style="edgeLabel;html=1;align=center;verticalAlign=middle;resizable=0;points=[];" vertex="1" connectable="0" parent="aUg-6YMT8PlGPVR0eo5o-361">
          <mxGeometry x="0.1439" y="2" relative="1" as="geometry">
            <mxPoint as="offset" />
          </mxGeometry>
        </mxCell>
        <mxCell id="aUg-6YMT8PlGPVR0eo5o-363" value="Submits" style="rhombus;whiteSpace=wrap;html=1;" vertex="1" parent="1">
          <mxGeometry x="5077.5" y="2145" width="127" height="80" as="geometry" />
        </mxCell>
        <mxCell id="aUg-6YMT8PlGPVR0eo5o-364" value="" style="endArrow=none;html=1;rounded=0;entryX=0.173;entryY=0.037;entryDx=0;entryDy=0;entryPerimeter=0;exitX=1;exitY=0.5;exitDx=0;exitDy=0;" edge="1" parent="1" source="aUg-6YMT8PlGPVR0eo5o-363" target="aUg-6YMT8PlGPVR0eo5o-130">
          <mxGeometry width="50" height="50" relative="1" as="geometry">
            <mxPoint x="5404.5" y="2225" as="sourcePoint" />
            <mxPoint x="5454.5" y="2175" as="targetPoint" />
          </mxGeometry>
        </mxCell>
        <mxCell id="aUg-6YMT8PlGPVR0eo5o-365" value="N" style="edgeLabel;html=1;align=center;verticalAlign=middle;resizable=0;points=[];" vertex="1" connectable="0" parent="aUg-6YMT8PlGPVR0eo5o-364">
          <mxGeometry x="-0.2088" relative="1" as="geometry">
            <mxPoint as="offset" />
          </mxGeometry>
        </mxCell>
        <mxCell id="aUg-6YMT8PlGPVR0eo5o-366" value="" style="endArrow=none;html=1;rounded=0;entryX=0.095;entryY=0.568;entryDx=0;entryDy=0;entryPerimeter=0;" edge="1" parent="1" source="aUg-6YMT8PlGPVR0eo5o-15" target="aUg-6YMT8PlGPVR0eo5o-363">
          <mxGeometry width="50" height="50" relative="1" as="geometry">
            <mxPoint x="4674.5" y="2245" as="sourcePoint" />
            <mxPoint x="4724.5" y="2195" as="targetPoint" />
            <Array as="points">
              <mxPoint x="4714.5" y="2195" />
            </Array>
          </mxGeometry>
        </mxCell>
        <mxCell id="aUg-6YMT8PlGPVR0eo5o-367" value="1" style="edgeLabel;html=1;align=center;verticalAlign=middle;resizable=0;points=[];" vertex="1" connectable="0" parent="aUg-6YMT8PlGPVR0eo5o-366">
          <mxGeometry x="-0.3727" relative="1" as="geometry">
            <mxPoint as="offset" />
          </mxGeometry>
        </mxCell>
        <mxCell id="aUg-6YMT8PlGPVR0eo5o-368" value="Attends" style="rhombus;whiteSpace=wrap;html=1;" vertex="1" parent="1">
          <mxGeometry x="2552" y="1945" width="150" height="80" as="geometry" />
        </mxCell>
        <mxCell id="aUg-6YMT8PlGPVR0eo5o-369" value="" style="endArrow=none;html=1;rounded=0;entryX=0;entryY=0.5;entryDx=0;entryDy=0;exitX=0.398;exitY=0.047;exitDx=0;exitDy=0;exitPerimeter=0;" edge="1" parent="1" source="aUg-6YMT8PlGPVR0eo5o-202" target="aUg-6YMT8PlGPVR0eo5o-368">
          <mxGeometry width="50" height="50" relative="1" as="geometry">
            <mxPoint x="2424.5" y="2175" as="sourcePoint" />
            <mxPoint x="2474.5" y="2125" as="targetPoint" />
          </mxGeometry>
        </mxCell>
        <mxCell id="aUg-6YMT8PlGPVR0eo5o-370" value="N" style="edgeLabel;html=1;align=center;verticalAlign=middle;resizable=0;points=[];" vertex="1" connectable="0" parent="aUg-6YMT8PlGPVR0eo5o-369">
          <mxGeometry x="0.1179" relative="1" as="geometry">
            <mxPoint as="offset" />
          </mxGeometry>
        </mxCell>
        <mxCell id="aUg-6YMT8PlGPVR0eo5o-371" value="" style="endArrow=none;html=1;rounded=0;exitX=0.965;exitY=0.491;exitDx=0;exitDy=0;exitPerimeter=0;entryX=0.005;entryY=0.429;entryDx=0;entryDy=0;entryPerimeter=0;" edge="1" parent="1" source="aUg-6YMT8PlGPVR0eo5o-368" target="aUg-6YMT8PlGPVR0eo5o-15">
          <mxGeometry width="50" height="50" relative="1" as="geometry">
            <mxPoint x="2804.5" y="2005" as="sourcePoint" />
            <mxPoint x="4054.5" y="1985" as="targetPoint" />
            <Array as="points">
              <mxPoint x="3394.5" y="1965" />
            </Array>
          </mxGeometry>
        </mxCell>
        <mxCell id="aUg-6YMT8PlGPVR0eo5o-372" value="1" style="edgeLabel;html=1;align=center;verticalAlign=middle;resizable=0;points=[];" vertex="1" connectable="0" parent="aUg-6YMT8PlGPVR0eo5o-371">
          <mxGeometry x="-0.1512" y="1" relative="1" as="geometry">
            <mxPoint as="offset" />
          </mxGeometry>
        </mxCell>
        <mxCell id="aUg-6YMT8PlGPVR0eo5o-373" value="Enrolled" style="rhombus;whiteSpace=wrap;html=1;" vertex="1" parent="1">
          <mxGeometry x="3604.5" y="2449" width="150" height="80" as="geometry" />
        </mxCell>
        <mxCell id="aUg-6YMT8PlGPVR0eo5o-374" value="" style="endArrow=none;html=1;rounded=0;entryX=0.329;entryY=1.012;entryDx=0;entryDy=0;entryPerimeter=0;exitX=1;exitY=0.5;exitDx=0;exitDy=0;" edge="1" parent="1" source="aUg-6YMT8PlGPVR0eo5o-373" target="aUg-6YMT8PlGPVR0eo5o-15">
          <mxGeometry width="50" height="50" relative="1" as="geometry">
            <mxPoint x="3844.5" y="2415" as="sourcePoint" />
            <mxPoint x="3894.5" y="2365" as="targetPoint" />
          </mxGeometry>
        </mxCell>
        <mxCell id="aUg-6YMT8PlGPVR0eo5o-375" value="N" style="edgeLabel;html=1;align=center;verticalAlign=middle;resizable=0;points=[];" vertex="1" connectable="0" parent="aUg-6YMT8PlGPVR0eo5o-374">
          <mxGeometry x="-0.3314" y="-2" relative="1" as="geometry">
            <mxPoint as="offset" />
          </mxGeometry>
        </mxCell>
        <mxCell id="aUg-6YMT8PlGPVR0eo5o-376" value="" style="endArrow=none;html=1;rounded=0;entryX=0;entryY=0.5;entryDx=0;entryDy=0;exitX=0.679;exitY=0.024;exitDx=0;exitDy=0;exitPerimeter=0;" edge="1" parent="1" source="aUg-6YMT8PlGPVR0eo5o-62" target="aUg-6YMT8PlGPVR0eo5o-373">
          <mxGeometry width="50" height="50" relative="1" as="geometry">
            <mxPoint x="3394.5" y="2775" as="sourcePoint" />
            <mxPoint x="3444.5" y="2725" as="targetPoint" />
          </mxGeometry>
        </mxCell>
        <mxCell id="aUg-6YMT8PlGPVR0eo5o-377" value="N" style="edgeLabel;html=1;align=center;verticalAlign=middle;resizable=0;points=[];" vertex="1" connectable="0" parent="aUg-6YMT8PlGPVR0eo5o-376">
          <mxGeometry x="0.0763" relative="1" as="geometry">
            <mxPoint as="offset" />
          </mxGeometry>
        </mxCell>
        <mxCell id="aUg-6YMT8PlGPVR0eo5o-378" value="Held_At" style="rhombus;whiteSpace=wrap;html=1;" vertex="1" parent="1">
          <mxGeometry x="2944.5" y="3245" width="140" height="80" as="geometry" />
        </mxCell>
        <mxCell id="aUg-6YMT8PlGPVR0eo5o-379" value="" style="endArrow=none;html=1;rounded=0;entryX=0.047;entryY=0.538;entryDx=0;entryDy=0;entryPerimeter=0;exitX=0.988;exitY=0.415;exitDx=0;exitDy=0;exitPerimeter=0;" edge="1" parent="1" source="aUg-6YMT8PlGPVR0eo5o-38" target="aUg-6YMT8PlGPVR0eo5o-378">
          <mxGeometry width="50" height="50" relative="1" as="geometry">
            <mxPoint x="2844.5" y="3475" as="sourcePoint" />
            <mxPoint x="2894.5" y="3425" as="targetPoint" />
          </mxGeometry>
        </mxCell>
        <mxCell id="aUg-6YMT8PlGPVR0eo5o-380" value="1" style="edgeLabel;html=1;align=center;verticalAlign=middle;resizable=0;points=[];" vertex="1" connectable="0" parent="aUg-6YMT8PlGPVR0eo5o-379">
          <mxGeometry x="0.1472" relative="1" as="geometry">
            <mxPoint as="offset" />
          </mxGeometry>
        </mxCell>
        <mxCell id="aUg-6YMT8PlGPVR0eo5o-381" value="" style="endArrow=none;html=1;rounded=0;entryX=0.138;entryY=0.968;entryDx=0;entryDy=0;entryPerimeter=0;exitX=0.941;exitY=0.563;exitDx=0;exitDy=0;exitPerimeter=0;" edge="1" parent="1" source="aUg-6YMT8PlGPVR0eo5o-378" target="aUg-6YMT8PlGPVR0eo5o-62">
          <mxGeometry width="50" height="50" relative="1" as="geometry">
            <mxPoint x="3094.5" y="3235" as="sourcePoint" />
            <mxPoint x="3144.5" y="3185" as="targetPoint" />
          </mxGeometry>
        </mxCell>
        <mxCell id="aUg-6YMT8PlGPVR0eo5o-382" value="N" style="edgeLabel;html=1;align=center;verticalAlign=middle;resizable=0;points=[];" vertex="1" connectable="0" parent="aUg-6YMT8PlGPVR0eo5o-381">
          <mxGeometry x="-0.4016" y="1" relative="1" as="geometry">
            <mxPoint as="offset" />
          </mxGeometry>
        </mxCell>
        <mxCell id="aUg-6YMT8PlGPVR0eo5o-383" value="Categorized_As" style="rhombus;whiteSpace=wrap;html=1;" vertex="1" parent="1">
          <mxGeometry x="3254.5" y="3272.5" width="120" height="80" as="geometry" />
        </mxCell>
        <mxCell id="aUg-6YMT8PlGPVR0eo5o-384" value="" style="endArrow=none;html=1;rounded=0;entryX=0.417;entryY=1.071;entryDx=0;entryDy=0;entryPerimeter=0;exitX=0.535;exitY=0.087;exitDx=0;exitDy=0;exitPerimeter=0;" edge="1" parent="1" source="aUg-6YMT8PlGPVR0eo5o-383" target="aUg-6YMT8PlGPVR0eo5o-62">
          <mxGeometry width="50" height="50" relative="1" as="geometry">
            <mxPoint x="3262" y="3332.5" as="sourcePoint" />
            <mxPoint x="3312" y="3282.5" as="targetPoint" />
          </mxGeometry>
        </mxCell>
        <mxCell id="aUg-6YMT8PlGPVR0eo5o-385" value="N" style="edgeLabel;html=1;align=center;verticalAlign=middle;resizable=0;points=[];" vertex="1" connectable="0" parent="aUg-6YMT8PlGPVR0eo5o-384">
          <mxGeometry x="-0.0464" relative="1" as="geometry">
            <mxPoint as="offset" />
          </mxGeometry>
        </mxCell>
        <mxCell id="aUg-6YMT8PlGPVR0eo5o-386" value="" style="endArrow=none;html=1;rounded=0;entryX=0.482;entryY=0.962;entryDx=0;entryDy=0;entryPerimeter=0;" edge="1" parent="1" source="aUg-6YMT8PlGPVR0eo5o-55" target="aUg-6YMT8PlGPVR0eo5o-383">
          <mxGeometry width="50" height="50" relative="1" as="geometry">
            <mxPoint x="3254.5" y="3425" as="sourcePoint" />
            <mxPoint x="3304.5" y="3375" as="targetPoint" />
          </mxGeometry>
        </mxCell>
        <mxCell id="aUg-6YMT8PlGPVR0eo5o-387" value="N" style="edgeLabel;html=1;align=center;verticalAlign=middle;resizable=0;points=[];" vertex="1" connectable="0" parent="aUg-6YMT8PlGPVR0eo5o-386">
          <mxGeometry x="-0.0698" relative="1" as="geometry">
            <mxPoint as="offset" />
          </mxGeometry>
        </mxCell>
        <mxCell id="aUg-6YMT8PlGPVR0eo5o-388" value="Contains" style="rhombus;whiteSpace=wrap;html=1;" vertex="1" parent="1">
          <mxGeometry x="3914.5" y="3367.5" width="180" height="80" as="geometry" />
        </mxCell>
        <mxCell id="aUg-6YMT8PlGPVR0eo5o-389" value="" style="endArrow=none;html=1;rounded=0;entryX=0.085;entryY=0.464;entryDx=0;entryDy=0;entryPerimeter=0;" edge="1" parent="1" source="aUg-6YMT8PlGPVR0eo5o-62" target="aUg-6YMT8PlGPVR0eo5o-388">
          <mxGeometry width="50" height="50" relative="1" as="geometry">
            <mxPoint x="3544.5" y="3195" as="sourcePoint" />
            <mxPoint x="3594.5" y="3145" as="targetPoint" />
          </mxGeometry>
        </mxCell>
        <mxCell id="aUg-6YMT8PlGPVR0eo5o-390" value="1" style="edgeLabel;html=1;align=center;verticalAlign=middle;resizable=0;points=[];" vertex="1" connectable="0" parent="aUg-6YMT8PlGPVR0eo5o-389">
          <mxGeometry x="-0.162" y="-3" relative="1" as="geometry">
            <mxPoint as="offset" />
          </mxGeometry>
        </mxCell>
        <mxCell id="aUg-6YMT8PlGPVR0eo5o-391" value="" style="endArrow=none;html=1;rounded=0;entryX=0.75;entryY=1;entryDx=0;entryDy=0;" edge="1" parent="1" source="aUg-6YMT8PlGPVR0eo5o-388" target="aUg-6YMT8PlGPVR0eo5o-91">
          <mxGeometry width="50" height="50" relative="1" as="geometry">
            <mxPoint x="4234.5" y="3445" as="sourcePoint" />
            <mxPoint x="4284.5" y="3395" as="targetPoint" />
            <Array as="points">
              <mxPoint x="5544.5" y="3415" />
            </Array>
          </mxGeometry>
        </mxCell>
        <mxCell id="aUg-6YMT8PlGPVR0eo5o-392" value="N" style="edgeLabel;html=1;align=center;verticalAlign=middle;resizable=0;points=[];" vertex="1" connectable="0" parent="aUg-6YMT8PlGPVR0eo5o-391">
          <mxGeometry x="-0.3147" y="1" relative="1" as="geometry">
            <mxPoint as="offset" />
          </mxGeometry>
        </mxCell>
        <mxCell id="aUg-6YMT8PlGPVR0eo5o-393" value="Reviewed_By" style="rhombus;whiteSpace=wrap;html=1;" vertex="1" parent="1">
          <mxGeometry x="3206" y="2665" width="142" height="80" as="geometry" />
        </mxCell>
        <mxCell id="aUg-6YMT8PlGPVR0eo5o-394" value="" style="endArrow=none;html=1;rounded=0;exitX=0.033;exitY=0.524;exitDx=0;exitDy=0;exitPerimeter=0;entryX=0.428;entryY=0.976;entryDx=0;entryDy=0;entryPerimeter=0;" edge="1" parent="1" source="aUg-6YMT8PlGPVR0eo5o-393" target="aUg-6YMT8PlGPVR0eo5o-264">
          <mxGeometry width="50" height="50" relative="1" as="geometry">
            <mxPoint x="3084.5" y="2695" as="sourcePoint" />
            <mxPoint x="3134.5" y="2645" as="targetPoint" />
          </mxGeometry>
        </mxCell>
        <mxCell id="aUg-6YMT8PlGPVR0eo5o-395" value="N" style="edgeLabel;html=1;align=center;verticalAlign=middle;resizable=0;points=[];" vertex="1" connectable="0" parent="aUg-6YMT8PlGPVR0eo5o-394">
          <mxGeometry x="0.0491" y="-1" relative="1" as="geometry">
            <mxPoint as="offset" />
          </mxGeometry>
        </mxCell>
        <mxCell id="aUg-6YMT8PlGPVR0eo5o-396" value="" style="endArrow=none;html=1;rounded=0;entryX=1;entryY=0.5;entryDx=0;entryDy=0;exitX=0.557;exitY=-0.005;exitDx=0;exitDy=0;exitPerimeter=0;" edge="1" parent="1" source="aUg-6YMT8PlGPVR0eo5o-62" target="aUg-6YMT8PlGPVR0eo5o-393">
          <mxGeometry width="50" height="50" relative="1" as="geometry">
            <mxPoint x="3324.5" y="2785" as="sourcePoint" />
            <mxPoint x="3374.5" y="2735" as="targetPoint" />
          </mxGeometry>
        </mxCell>
        <mxCell id="aUg-6YMT8PlGPVR0eo5o-397" value="1" style="edgeLabel;html=1;align=center;verticalAlign=middle;resizable=0;points=[];" vertex="1" connectable="0" parent="aUg-6YMT8PlGPVR0eo5o-396">
          <mxGeometry x="-0.0444" relative="1" as="geometry">
            <mxPoint as="offset" />
          </mxGeometry>
        </mxCell>
        <mxCell id="aUg-6YMT8PlGPVR0eo5o-398" value="Has_Certificate" style="rhombus;whiteSpace=wrap;html=1;" vertex="1" parent="1">
          <mxGeometry x="3369.5" y="2445" width="140" height="80" as="geometry" />
        </mxCell>
        <mxCell id="aUg-6YMT8PlGPVR0eo5o-399" value="" style="endArrow=none;html=1;rounded=0;entryX=0.042;entryY=0.524;entryDx=0;entryDy=0;entryPerimeter=0;exitX=0.678;exitY=0.019;exitDx=0;exitDy=0;exitPerimeter=0;" edge="1" parent="1" source="aUg-6YMT8PlGPVR0eo5o-62" target="aUg-6YMT8PlGPVR0eo5o-398">
          <mxGeometry width="50" height="50" relative="1" as="geometry">
            <mxPoint x="3404.5" y="2585" as="sourcePoint" />
            <mxPoint x="3454.5" y="2535" as="targetPoint" />
          </mxGeometry>
        </mxCell>
        <mxCell id="aUg-6YMT8PlGPVR0eo5o-400" value="1" style="edgeLabel;html=1;align=center;verticalAlign=middle;resizable=0;points=[];" vertex="1" connectable="0" parent="aUg-6YMT8PlGPVR0eo5o-399">
          <mxGeometry x="0.347" y="-2" relative="1" as="geometry">
            <mxPoint as="offset" />
          </mxGeometry>
        </mxCell>
        <mxCell id="aUg-6YMT8PlGPVR0eo5o-401" value="" style="endArrow=none;html=1;rounded=0;entryX=0.165;entryY=0.957;entryDx=0;entryDy=0;entryPerimeter=0;exitX=0.977;exitY=0.568;exitDx=0;exitDy=0;exitPerimeter=0;" edge="1" parent="1" source="aUg-6YMT8PlGPVR0eo5o-398" target="aUg-6YMT8PlGPVR0eo5o-253">
          <mxGeometry width="50" height="50" relative="1" as="geometry">
            <mxPoint x="3484.5" y="2425" as="sourcePoint" />
            <mxPoint x="3534.5" y="2375" as="targetPoint" />
          </mxGeometry>
        </mxCell>
        <mxCell id="aUg-6YMT8PlGPVR0eo5o-402" value="N" style="edgeLabel;html=1;align=center;verticalAlign=middle;resizable=0;points=[];" vertex="1" connectable="0" parent="aUg-6YMT8PlGPVR0eo5o-401">
          <mxGeometry x="0.4084" y="2" relative="1" as="geometry">
            <mxPoint as="offset" />
          </mxGeometry>
        </mxCell>
        <mxCell id="aUg-6YMT8PlGPVR0eo5o-403" value="Has_Attachment" style="rhombus;whiteSpace=wrap;html=1;" vertex="1" parent="1">
          <mxGeometry x="5674.5" y="2902.5" width="120" height="80" as="geometry" />
        </mxCell>
        <mxCell id="aUg-6YMT8PlGPVR0eo5o-404" value="" style="endArrow=none;html=1;rounded=0;entryX=0.028;entryY=0.537;entryDx=0;entryDy=0;entryPerimeter=0;exitX=0.988;exitY=0.562;exitDx=0;exitDy=0;exitPerimeter=0;" edge="1" parent="1" source="aUg-6YMT8PlGPVR0eo5o-91" target="aUg-6YMT8PlGPVR0eo5o-403">
          <mxGeometry width="50" height="50" relative="1" as="geometry">
            <mxPoint x="5594.5" y="2975" as="sourcePoint" />
            <mxPoint x="5644.5" y="2925" as="targetPoint" />
          </mxGeometry>
        </mxCell>
        <mxCell id="aUg-6YMT8PlGPVR0eo5o-405" value="1" style="edgeLabel;html=1;align=center;verticalAlign=middle;resizable=0;points=[];" vertex="1" connectable="0" parent="aUg-6YMT8PlGPVR0eo5o-404">
          <mxGeometry x="-0.261" relative="1" as="geometry">
            <mxPoint as="offset" />
          </mxGeometry>
        </mxCell>
        <mxCell id="aUg-6YMT8PlGPVR0eo5o-406" value="" style="endArrow=none;html=1;rounded=0;entryX=0.013;entryY=0.394;entryDx=0;entryDy=0;entryPerimeter=0;exitX=0.98;exitY=0.538;exitDx=0;exitDy=0;exitPerimeter=0;" edge="1" parent="1" source="aUg-6YMT8PlGPVR0eo5o-403" target="aUg-6YMT8PlGPVR0eo5o-106">
          <mxGeometry width="50" height="50" relative="1" as="geometry">
            <mxPoint x="5804.5" y="2995" as="sourcePoint" />
            <mxPoint x="5854.5" y="2945" as="targetPoint" />
          </mxGeometry>
        </mxCell>
        <mxCell id="aUg-6YMT8PlGPVR0eo5o-407" value="N" style="edgeLabel;html=1;align=center;verticalAlign=middle;resizable=0;points=[];" vertex="1" connectable="0" parent="aUg-6YMT8PlGPVR0eo5o-406">
          <mxGeometry x="0.0573" relative="1" as="geometry">
            <mxPoint as="offset" />
          </mxGeometry>
        </mxCell>
        <mxCell id="aUg-6YMT8PlGPVR0eo5o-408" value="Has_Assignment" style="rhombus;whiteSpace=wrap;html=1;" vertex="1" parent="1">
          <mxGeometry x="5137" y="2572.5" width="140" height="80" as="geometry" />
        </mxCell>
        <mxCell id="aUg-6YMT8PlGPVR0eo5o-409" value="" style="endArrow=none;html=1;rounded=0;entryX=0.642;entryY=0.985;entryDx=0;entryDy=0;entryPerimeter=0;exitX=0.031;exitY=0.495;exitDx=0;exitDy=0;exitPerimeter=0;" edge="1" parent="1" source="aUg-6YMT8PlGPVR0eo5o-408" target="aUg-6YMT8PlGPVR0eo5o-117">
          <mxGeometry width="50" height="50" relative="1" as="geometry">
            <mxPoint x="5124.5" y="2575" as="sourcePoint" />
            <mxPoint x="5174.5" y="2525" as="targetPoint" />
          </mxGeometry>
        </mxCell>
        <mxCell id="aUg-6YMT8PlGPVR0eo5o-410" value="N" style="edgeLabel;html=1;align=center;verticalAlign=middle;resizable=0;points=[];" vertex="1" connectable="0" parent="aUg-6YMT8PlGPVR0eo5o-409">
          <mxGeometry x="0.3431" relative="1" as="geometry">
            <mxPoint as="offset" />
          </mxGeometry>
        </mxCell>
        <mxCell id="aUg-6YMT8PlGPVR0eo5o-411" value="" style="endArrow=none;html=1;rounded=0;entryX=0.951;entryY=0.554;entryDx=0;entryDy=0;entryPerimeter=0;exitX=0.122;exitY=-0.026;exitDx=0;exitDy=0;exitPerimeter=0;" edge="1" parent="1" source="aUg-6YMT8PlGPVR0eo5o-91" target="aUg-6YMT8PlGPVR0eo5o-408">
          <mxGeometry width="50" height="50" relative="1" as="geometry">
            <mxPoint x="5314.5" y="2705" as="sourcePoint" />
            <mxPoint x="5364.5" y="2655" as="targetPoint" />
          </mxGeometry>
        </mxCell>
        <mxCell id="aUg-6YMT8PlGPVR0eo5o-412" value="1" style="edgeLabel;html=1;align=center;verticalAlign=middle;resizable=0;points=[];" vertex="1" connectable="0" parent="aUg-6YMT8PlGPVR0eo5o-411">
          <mxGeometry x="0.196" y="1" relative="1" as="geometry">
            <mxPoint as="offset" />
          </mxGeometry>
        </mxCell>
        <mxCell id="aUg-6YMT8PlGPVR0eo5o-413" value="Has_Quiz" style="rhombus;whiteSpace=wrap;html=1;" vertex="1" parent="1">
          <mxGeometry x="5334.5" y="3207.75" width="155" height="80" as="geometry" />
        </mxCell>
        <mxCell id="aUg-6YMT8PlGPVR0eo5o-414" value="" style="endArrow=none;html=1;rounded=0;entryX=0.426;entryY=0.954;entryDx=0;entryDy=0;entryPerimeter=0;exitX=0.96;exitY=0.565;exitDx=0;exitDy=0;exitPerimeter=0;" edge="1" parent="1" source="aUg-6YMT8PlGPVR0eo5o-413" target="aUg-6YMT8PlGPVR0eo5o-91">
          <mxGeometry width="50" height="50" relative="1" as="geometry">
            <mxPoint x="5434.5" y="3135" as="sourcePoint" />
            <mxPoint x="5484.5" y="3085" as="targetPoint" />
          </mxGeometry>
        </mxCell>
        <mxCell id="aUg-6YMT8PlGPVR0eo5o-415" value="1" style="edgeLabel;html=1;align=center;verticalAlign=middle;resizable=0;points=[];" vertex="1" connectable="0" parent="aUg-6YMT8PlGPVR0eo5o-414">
          <mxGeometry x="0.2112" y="-3" relative="1" as="geometry">
            <mxPoint as="offset" />
          </mxGeometry>
        </mxCell>
        <mxCell id="aUg-6YMT8PlGPVR0eo5o-416" value="" style="endArrow=none;html=1;rounded=0;entryX=0.038;entryY=0.555;entryDx=0;entryDy=0;entryPerimeter=0;exitX=0.556;exitY=-0.001;exitDx=0;exitDy=0;exitPerimeter=0;" edge="1" parent="1" source="aUg-6YMT8PlGPVR0eo5o-145" target="aUg-6YMT8PlGPVR0eo5o-413">
          <mxGeometry width="50" height="50" relative="1" as="geometry">
            <mxPoint x="5204.5" y="3315" as="sourcePoint" />
            <mxPoint x="5254.5" y="3265" as="targetPoint" />
            <Array as="points">
              <mxPoint x="5124.5" y="3255" />
            </Array>
          </mxGeometry>
        </mxCell>
        <mxCell id="aUg-6YMT8PlGPVR0eo5o-417" value="N" style="edgeLabel;html=1;align=center;verticalAlign=middle;resizable=0;points=[];" vertex="1" connectable="0" parent="aUg-6YMT8PlGPVR0eo5o-416">
          <mxGeometry x="0.4135" y="-2" relative="1" as="geometry">
            <mxPoint as="offset" />
          </mxGeometry>
        </mxCell>
        <mxCell id="aUg-6YMT8PlGPVR0eo5o-418" value="Has_Question" style="rhombus;whiteSpace=wrap;html=1;" vertex="1" parent="1">
          <mxGeometry x="5294.5" y="3592.5" width="160" height="80" as="geometry" />
        </mxCell>
        <mxCell id="aUg-6YMT8PlGPVR0eo5o-419" value="" style="endArrow=none;html=1;rounded=0;entryX=0.057;entryY=0.524;entryDx=0;entryDy=0;entryPerimeter=0;exitX=1;exitY=0.61;exitDx=0;exitDy=0;exitPerimeter=0;" edge="1" parent="1" source="aUg-6YMT8PlGPVR0eo5o-145" target="aUg-6YMT8PlGPVR0eo5o-418">
          <mxGeometry width="50" height="50" relative="1" as="geometry">
            <mxPoint x="5234.5" y="3595" as="sourcePoint" />
            <mxPoint x="5284.5" y="3545" as="targetPoint" />
          </mxGeometry>
        </mxCell>
        <mxCell id="aUg-6YMT8PlGPVR0eo5o-420" value="1" style="edgeLabel;html=1;align=center;verticalAlign=middle;resizable=0;points=[];" vertex="1" connectable="0" parent="aUg-6YMT8PlGPVR0eo5o-419">
          <mxGeometry x="-0.3022" y="2" relative="1" as="geometry">
            <mxPoint as="offset" />
          </mxGeometry>
        </mxCell>
        <mxCell id="aUg-6YMT8PlGPVR0eo5o-421" value="" style="endArrow=none;html=1;rounded=0;entryX=0.97;entryY=0.532;entryDx=0;entryDy=0;entryPerimeter=0;exitX=0.01;exitY=0.104;exitDx=0;exitDy=0;exitPerimeter=0;" edge="1" parent="1" source="aUg-6YMT8PlGPVR0eo5o-154" target="aUg-6YMT8PlGPVR0eo5o-418">
          <mxGeometry width="50" height="50" relative="1" as="geometry">
            <mxPoint x="5444.5" y="3695" as="sourcePoint" />
            <mxPoint x="5494.5" y="3645" as="targetPoint" />
            <Array as="points">
              <mxPoint x="5454.5" y="3795" />
            </Array>
          </mxGeometry>
        </mxCell>
        <mxCell id="aUg-6YMT8PlGPVR0eo5o-422" value="N" style="edgeLabel;html=1;align=center;verticalAlign=middle;resizable=0;points=[];" vertex="1" connectable="0" parent="aUg-6YMT8PlGPVR0eo5o-421">
          <mxGeometry x="-0.0072" y="1" relative="1" as="geometry">
            <mxPoint as="offset" />
          </mxGeometry>
        </mxCell>
        <mxCell id="aUg-6YMT8PlGPVR0eo5o-423" value="Has_Option" style="rhombus;whiteSpace=wrap;html=1;" vertex="1" parent="1">
          <mxGeometry x="5294.5" y="3807.5" width="140" height="80" as="geometry" />
        </mxCell>
        <mxCell id="aUg-6YMT8PlGPVR0eo5o-424" value="" style="endArrow=none;html=1;rounded=0;entryX=0.042;entryY=0.511;entryDx=0;entryDy=0;entryPerimeter=0;exitX=1.001;exitY=0.682;exitDx=0;exitDy=0;exitPerimeter=0;" edge="1" parent="1" source="aUg-6YMT8PlGPVR0eo5o-165" target="aUg-6YMT8PlGPVR0eo5o-423">
          <mxGeometry width="50" height="50" relative="1" as="geometry">
            <mxPoint x="5154.5" y="3855" as="sourcePoint" />
            <mxPoint x="5204.5" y="3805" as="targetPoint" />
          </mxGeometry>
        </mxCell>
        <mxCell id="aUg-6YMT8PlGPVR0eo5o-425" value="N" style="edgeLabel;html=1;align=center;verticalAlign=middle;resizable=0;points=[];" vertex="1" connectable="0" parent="aUg-6YMT8PlGPVR0eo5o-424">
          <mxGeometry x="-0.0239" y="1" relative="1" as="geometry">
            <mxPoint as="offset" />
          </mxGeometry>
        </mxCell>
        <mxCell id="aUg-6YMT8PlGPVR0eo5o-426" value="" style="endArrow=none;html=1;rounded=0;entryX=0;entryY=0.5;entryDx=0;entryDy=0;exitX=0.961;exitY=0.52;exitDx=0;exitDy=0;exitPerimeter=0;" edge="1" parent="1" source="aUg-6YMT8PlGPVR0eo5o-423" target="aUg-6YMT8PlGPVR0eo5o-154">
          <mxGeometry width="50" height="50" relative="1" as="geometry">
            <mxPoint x="5504.5" y="3885" as="sourcePoint" />
            <mxPoint x="5554.5" y="3835" as="targetPoint" />
            <Array as="points">
              <mxPoint x="5624.5" y="3845" />
            </Array>
          </mxGeometry>
        </mxCell>
        <mxCell id="aUg-6YMT8PlGPVR0eo5o-427" value="1" style="edgeLabel;html=1;align=center;verticalAlign=middle;resizable=0;points=[];" vertex="1" connectable="0" parent="aUg-6YMT8PlGPVR0eo5o-426">
          <mxGeometry x="-0.3834" relative="1" as="geometry">
            <mxPoint as="offset" />
          </mxGeometry>
        </mxCell>
        <mxCell id="aUg-6YMT8PlGPVR0eo5o-428" value="Attempted_By" style="rhombus;whiteSpace=wrap;html=1;" vertex="1" parent="1">
          <mxGeometry x="5369.5" y="3457.5" width="120" height="80" as="geometry" />
        </mxCell>
        <mxCell id="aUg-6YMT8PlGPVR0eo5o-429" value="" style="endArrow=none;html=1;rounded=0;entryX=0.051;entryY=0.513;entryDx=0;entryDy=0;entryPerimeter=0;exitX=0.998;exitY=0.16;exitDx=0;exitDy=0;exitPerimeter=0;" edge="1" parent="1" source="aUg-6YMT8PlGPVR0eo5o-145" target="aUg-6YMT8PlGPVR0eo5o-428">
          <mxGeometry width="50" height="50" relative="1" as="geometry">
            <mxPoint x="5204.5" y="3515" as="sourcePoint" />
            <mxPoint x="5254.5" y="3465" as="targetPoint" />
          </mxGeometry>
        </mxCell>
        <mxCell id="aUg-6YMT8PlGPVR0eo5o-430" value="1" style="edgeLabel;html=1;align=center;verticalAlign=middle;resizable=0;points=[];" vertex="1" connectable="0" parent="aUg-6YMT8PlGPVR0eo5o-429">
          <mxGeometry x="-0.2058" y="3" relative="1" as="geometry">
            <mxPoint as="offset" />
          </mxGeometry>
        </mxCell>
        <mxCell id="aUg-6YMT8PlGPVR0eo5o-431" value="" style="endArrow=none;html=1;rounded=0;exitX=0.963;exitY=0.55;exitDx=0;exitDy=0;exitPerimeter=0;" edge="1" parent="1" source="aUg-6YMT8PlGPVR0eo5o-428" target="aUg-6YMT8PlGPVR0eo5o-174">
          <mxGeometry width="50" height="50" relative="1" as="geometry">
            <mxPoint x="5514.5" y="3505" as="sourcePoint" />
            <mxPoint x="5564.5" y="3455" as="targetPoint" />
          </mxGeometry>
        </mxCell>
        <mxCell id="aUg-6YMT8PlGPVR0eo5o-432" value="N" style="edgeLabel;html=1;align=center;verticalAlign=middle;resizable=0;points=[];" vertex="1" connectable="0" parent="aUg-6YMT8PlGPVR0eo5o-431">
          <mxGeometry x="-0.2222" y="1" relative="1" as="geometry">
            <mxPoint as="offset" />
          </mxGeometry>
        </mxCell>
        <mxCell id="aUg-6YMT8PlGPVR0eo5o-433" value="Submitted_By" style="rhombus;whiteSpace=wrap;html=1;" vertex="1" parent="1">
          <mxGeometry x="5324.5" y="2404" width="130" height="80" as="geometry" />
        </mxCell>
        <mxCell id="aUg-6YMT8PlGPVR0eo5o-434" value="" style="endArrow=none;html=1;rounded=0;entryX=0.021;entryY=0.491;entryDx=0;entryDy=0;entryPerimeter=0;exitX=0.993;exitY=0.618;exitDx=0;exitDy=0;exitPerimeter=0;" edge="1" parent="1" source="aUg-6YMT8PlGPVR0eo5o-117" target="aUg-6YMT8PlGPVR0eo5o-433">
          <mxGeometry width="50" height="50" relative="1" as="geometry">
            <mxPoint x="5244.5" y="2455" as="sourcePoint" />
            <mxPoint x="5294.5" y="2405" as="targetPoint" />
          </mxGeometry>
        </mxCell>
        <mxCell id="aUg-6YMT8PlGPVR0eo5o-435" value="1" style="edgeLabel;html=1;align=center;verticalAlign=middle;resizable=0;points=[];" vertex="1" connectable="0" parent="aUg-6YMT8PlGPVR0eo5o-434">
          <mxGeometry x="-0.179" y="2" relative="1" as="geometry">
            <mxPoint as="offset" />
          </mxGeometry>
        </mxCell>
        <mxCell id="aUg-6YMT8PlGPVR0eo5o-436" value="" style="endArrow=none;html=1;rounded=0;entryX=-0.017;entryY=0.585;entryDx=0;entryDy=0;entryPerimeter=0;exitX=0.971;exitY=0.53;exitDx=0;exitDy=0;exitPerimeter=0;" edge="1" parent="1" source="aUg-6YMT8PlGPVR0eo5o-433" target="aUg-6YMT8PlGPVR0eo5o-130">
          <mxGeometry width="50" height="50" relative="1" as="geometry">
            <mxPoint x="5504.5" y="2495" as="sourcePoint" />
            <mxPoint x="5554.5" y="2445" as="targetPoint" />
          </mxGeometry>
        </mxCell>
        <mxCell id="aUg-6YMT8PlGPVR0eo5o-437" value="N" style="edgeLabel;html=1;align=center;verticalAlign=middle;resizable=0;points=[];" vertex="1" connectable="0" parent="aUg-6YMT8PlGPVR0eo5o-436">
          <mxGeometry x="-0.0097" relative="1" as="geometry">
            <mxPoint as="offset" />
          </mxGeometry>
        </mxCell>
        <mxCell id="aUg-6YMT8PlGPVR0eo5o-438" value="Belongs_To_Course" style="rhombus;whiteSpace=wrap;html=1;" vertex="1" parent="1">
          <mxGeometry x="2714.5" y="2995.25" width="150" height="80" as="geometry" />
        </mxCell>
        <mxCell id="aUg-6YMT8PlGPVR0eo5o-439" value="" style="endArrow=none;html=1;rounded=0;entryX=0.054;entryY=0.535;entryDx=0;entryDy=0;entryPerimeter=0;" edge="1" parent="1" source="aUg-6YMT8PlGPVR0eo5o-187" target="aUg-6YMT8PlGPVR0eo5o-438">
          <mxGeometry width="50" height="50" relative="1" as="geometry">
            <mxPoint x="2604.5" y="3065" as="sourcePoint" />
            <mxPoint x="2654.5" y="3015" as="targetPoint" />
          </mxGeometry>
        </mxCell>
        <mxCell id="aUg-6YMT8PlGPVR0eo5o-440" value="N" style="edgeLabel;html=1;align=center;verticalAlign=middle;resizable=0;points=[];" vertex="1" connectable="0" parent="aUg-6YMT8PlGPVR0eo5o-439">
          <mxGeometry x="-0.0807" y="-1" relative="1" as="geometry">
            <mxPoint as="offset" />
          </mxGeometry>
        </mxCell>
        <mxCell id="aUg-6YMT8PlGPVR0eo5o-441" value="" style="endArrow=none;html=1;rounded=0;entryX=0.026;entryY=0.651;entryDx=0;entryDy=0;entryPerimeter=0;exitX=0.955;exitY=0.558;exitDx=0;exitDy=0;exitPerimeter=0;" edge="1" parent="1" source="aUg-6YMT8PlGPVR0eo5o-438" target="aUg-6YMT8PlGPVR0eo5o-62">
          <mxGeometry width="50" height="50" relative="1" as="geometry">
            <mxPoint x="2924.5" y="3055" as="sourcePoint" />
            <mxPoint x="2974.5" y="3005" as="targetPoint" />
          </mxGeometry>
        </mxCell>
        <mxCell id="aUg-6YMT8PlGPVR0eo5o-442" value="1" style="edgeLabel;html=1;align=center;verticalAlign=middle;resizable=0;points=[];" vertex="1" connectable="0" parent="aUg-6YMT8PlGPVR0eo5o-441">
          <mxGeometry x="-0.5552" y="-1" relative="1" as="geometry">
            <mxPoint as="offset" />
          </mxGeometry>
        </mxCell>
        <mxCell id="aUg-6YMT8PlGPVR0eo5o-443" value="Held_At_Center" style="rhombus;whiteSpace=wrap;html=1;" vertex="1" parent="1">
          <mxGeometry x="2534.5" y="3325" width="140" height="80" as="geometry" />
        </mxCell>
        <mxCell id="aUg-6YMT8PlGPVR0eo5o-444" value="" style="endArrow=none;html=1;rounded=0;entryX=0.643;entryY=0.997;entryDx=0;entryDy=0;entryPerimeter=0;" edge="1" parent="1" source="aUg-6YMT8PlGPVR0eo5o-443" target="aUg-6YMT8PlGPVR0eo5o-187">
          <mxGeometry width="50" height="50" relative="1" as="geometry">
            <mxPoint x="2594.5" y="3345" as="sourcePoint" />
            <mxPoint x="2644.5" y="3295" as="targetPoint" />
          </mxGeometry>
        </mxCell>
        <mxCell id="aUg-6YMT8PlGPVR0eo5o-445" value="N" style="edgeLabel;html=1;align=center;verticalAlign=middle;resizable=0;points=[];" vertex="1" connectable="0" parent="aUg-6YMT8PlGPVR0eo5o-444">
          <mxGeometry x="0.0199" relative="1" as="geometry">
            <mxPoint as="offset" />
          </mxGeometry>
        </mxCell>
        <mxCell id="aUg-6YMT8PlGPVR0eo5o-446" value="" style="endArrow=none;html=1;rounded=0;entryX=0.5;entryY=1;entryDx=0;entryDy=0;exitX=0.464;exitY=0.054;exitDx=0;exitDy=0;exitPerimeter=0;" edge="1" parent="1" source="aUg-6YMT8PlGPVR0eo5o-38" target="aUg-6YMT8PlGPVR0eo5o-443">
          <mxGeometry width="50" height="50" relative="1" as="geometry">
            <mxPoint x="2604.5" y="3505" as="sourcePoint" />
            <mxPoint x="2654.5" y="3455" as="targetPoint" />
          </mxGeometry>
        </mxCell>
        <mxCell id="aUg-6YMT8PlGPVR0eo5o-447" value="1" style="edgeLabel;html=1;align=center;verticalAlign=middle;resizable=0;points=[];" vertex="1" connectable="0" parent="aUg-6YMT8PlGPVR0eo5o-446">
          <mxGeometry x="-0.2723" y="-1" relative="1" as="geometry">
            <mxPoint as="offset" />
          </mxGeometry>
        </mxCell>
        <mxCell id="aUg-6YMT8PlGPVR0eo5o-448" value="Recorded" style="rhombus;whiteSpace=wrap;html=1;" vertex="1" parent="1">
          <mxGeometry x="2504.5" y="2955.75" width="130" height="80" as="geometry" />
        </mxCell>
        <mxCell id="aUg-6YMT8PlGPVR0eo5o-449" value="" style="endArrow=none;html=1;rounded=0;entryX=0.523;entryY=0.98;entryDx=0;entryDy=0;entryPerimeter=0;exitX=0.5;exitY=0;exitDx=0;exitDy=0;" edge="1" parent="1" source="aUg-6YMT8PlGPVR0eo5o-187" target="aUg-6YMT8PlGPVR0eo5o-448">
          <mxGeometry width="50" height="50" relative="1" as="geometry">
            <mxPoint x="2554.5" y="3095" as="sourcePoint" />
            <mxPoint x="2604.5" y="3045" as="targetPoint" />
          </mxGeometry>
        </mxCell>
        <mxCell id="aUg-6YMT8PlGPVR0eo5o-450" value="1" style="edgeLabel;html=1;align=center;verticalAlign=middle;resizable=0;points=[];" vertex="1" connectable="0" parent="aUg-6YMT8PlGPVR0eo5o-449">
          <mxGeometry x="-0.0162" y="1" relative="1" as="geometry">
            <mxPoint as="offset" />
          </mxGeometry>
        </mxCell>
        <mxCell id="aUg-6YMT8PlGPVR0eo5o-451" value="" style="endArrow=none;html=1;rounded=0;entryX=0.62;entryY=0.972;entryDx=0;entryDy=0;entryPerimeter=0;" edge="1" parent="1" source="aUg-6YMT8PlGPVR0eo5o-448" target="aUg-6YMT8PlGPVR0eo5o-202">
          <mxGeometry width="50" height="50" relative="1" as="geometry">
            <mxPoint x="2574.5" y="2935" as="sourcePoint" />
            <mxPoint x="2624.5" y="2885" as="targetPoint" />
          </mxGeometry>
        </mxCell>
        <mxCell id="aUg-6YMT8PlGPVR0eo5o-452" value="N" style="edgeLabel;html=1;align=center;verticalAlign=middle;resizable=0;points=[];" vertex="1" connectable="0" parent="aUg-6YMT8PlGPVR0eo5o-451">
          <mxGeometry x="-0.0809" y="1" relative="1" as="geometry">
            <mxPoint as="offset" />
          </mxGeometry>
        </mxCell>
        <mxCell id="aUg-6YMT8PlGPVR0eo5o-453" value="Logs" style="rhombus;whiteSpace=wrap;html=1;" vertex="1" parent="1">
          <mxGeometry x="5369.5" y="1615" width="155" height="80" as="geometry" />
        </mxCell>
        <mxCell id="aUg-6YMT8PlGPVR0eo5o-454" value="" style="endArrow=none;html=1;rounded=0;entryX=0.033;entryY=0.513;entryDx=0;entryDy=0;entryPerimeter=0;" edge="1" parent="1" source="aUg-6YMT8PlGPVR0eo5o-15" target="aUg-6YMT8PlGPVR0eo5o-453">
          <mxGeometry width="50" height="50" relative="1" as="geometry">
            <mxPoint x="4544.5" y="1995" as="sourcePoint" />
            <mxPoint x="4594.5" y="1945" as="targetPoint" />
          </mxGeometry>
        </mxCell>
        <mxCell id="aUg-6YMT8PlGPVR0eo5o-455" value="N" style="edgeLabel;html=1;align=center;verticalAlign=middle;resizable=0;points=[];" vertex="1" connectable="0" parent="aUg-6YMT8PlGPVR0eo5o-454">
          <mxGeometry x="0.1607" relative="1" as="geometry">
            <mxPoint as="offset" />
          </mxGeometry>
        </mxCell>
        <mxCell id="aUg-6YMT8PlGPVR0eo5o-456" value="" style="endArrow=none;html=1;rounded=0;entryX=0.954;entryY=0.503;entryDx=0;entryDy=0;entryPerimeter=0;" edge="1" parent="1" source="aUg-6YMT8PlGPVR0eo5o-303" target="aUg-6YMT8PlGPVR0eo5o-453">
          <mxGeometry width="50" height="50" relative="1" as="geometry">
            <mxPoint x="5624.5" y="1935" as="sourcePoint" />
            <mxPoint x="5674.5" y="1885" as="targetPoint" />
            <Array as="points">
              <mxPoint x="5524.5" y="2045" />
            </Array>
          </mxGeometry>
        </mxCell>
        <mxCell id="aUg-6YMT8PlGPVR0eo5o-457" value="1" style="edgeLabel;html=1;align=center;verticalAlign=middle;resizable=0;points=[];" vertex="1" connectable="0" parent="aUg-6YMT8PlGPVR0eo5o-456">
          <mxGeometry x="-0.1295" y="-1" relative="1" as="geometry">
            <mxPoint as="offset" />
          </mxGeometry>
        </mxCell>
      </root>
    </mxGraphModel>
  </diagram>
</mxfile>
